<?xml version="1.0" standalone="no"?>
<!DOCTYPE svg PUBLIC "-//W3C//DTD SVG 20010904//EN"
 "http://www.w3.org/TR/2001/REC-SVG-20010904/DTD/svg10.dtd">
<svg version="1.0" xmlns="http://www.w3.org/2000/svg"
 width="330.000000pt" height="330.000000pt" viewBox="0 0 330.000000 330.000000"
 preserveAspectRatio="xMidYMid meet">
<metadata>
Created by potrace 1.14, written by Peter Selinger 2001-2017
</metadata>
<g transform="translate(0.000000,330.000000) scale(0.100000,-0.100000)"
fill="#000000" stroke="none">
<path d="M1455 3280 c-27 -4 -68 -10 -90 -13 -65 -10 -234 -56 -305 -84 -753
-296 -1174 -1063 -1023 -1863 45 -238 179 -523 337 -714 191 -232 444 -411
709 -505 90 -32 232 -71 277 -76 14 -2 52 -7 85 -12 100 -13 380 -7 482 11
727 130 1275 714 1358 1446 6 60 8 303 1 335 -2 11 -7 45 -10 75 -4 30 -16 93
-27 140 -102 431 -373 805 -747 1033 -171 104 -393 186 -572 213 -19 3 -46 8
-60 11 -40 8 -360 11 -415 3z m308 -989 c183 -34 367 -168 450 -330 60 -116
81 -202 79 -331 -2 -83 -4 -97 -28 -178 -56 -195 -207 -351 -412 -429 -85 -32
-255 -41 -344 -18 -122 32 -245 103 -329 190 -113 116 -180 301 -174 480 4
114 62 294 111 343 8 7 14 16 14 20 0 17 81 93 143 136 161 112 317 149 490
117z"/>
</g>
</svg>
