<?xml version="1.0" standalone="no"?>
<!DOCTYPE svg PUBLIC "-//W3C//DTD SVG 20010904//EN"
 "http://www.w3.org/TR/2001/REC-SVG-20010904/DTD/svg10.dtd">
<svg version="1.0" xmlns="http://www.w3.org/2000/svg"
 width="512.000000pt" height="512.000000pt" viewBox="0 0 512.000000 512.000000"
 preserveAspectRatio="xMidYMid meet">
<metadata>
Created by potrace 1.14, written by Peter Selinger 2001-2017
</metadata>
<g transform="translate(0.000000,512.000000) scale(0.100000,-0.100000)"
fill="#000000" stroke="none">
<path d="M4325 4943 c-209 -44 -389 -198 -467 -400 -35 -90 -39 -111 -43 -228
-5 -143 34 -266 121 -390 80 -113 196 -198 326 -241 106 -35 277 -40 373 -11
296 89 482 333 483 637 1 279 -182 527 -458 620 -83 29 -236 34 -335 13z"/>
<path d="M4438 3325 c-2 -2 -30 -6 -63 -10 -249 -28 -472 -228 -542 -485 -17
-60 -18 -143 -18 -1155 l0 -1090 27 -76 c47 -133 130 -250 236 -331 133 -104
353 -150 527 -112 187 41 360 176 443 345 74 150 72 103 69 1309 l-2 1075 -28
79 c-79 224 -266 391 -487 435 -55 11 -157 21 -162 16z"/>
<path d="M1675 3298 c-94 -10 -206 -51 -285 -103 -126 -83 -159 -126 -340
-440 -235 -409 -477 -829 -496 -862 -11 -17 -44 -76 -75 -130 -31 -54 -107
-186 -170 -293 -295 -511 -302 -525 -305 -693 -3 -122 16 -207 70 -316 109
-223 351 -366 601 -356 44 2 103 9 130 15 57 14 198 78 234 106 82 65 201 207
201 241 0 7 5 13 10 13 6 0 10 4 10 9 0 5 36 71 81 147 79 135 100 173 156
272 14 26 73 127 130 224 57 98 103 183 103 189 0 21 23 3 45 -36 210 -369
512 -887 540 -925 33 -45 123 -128 170 -157 31 -20 105 -54 148 -69 133 -47
340 -34 476 29 25 11 48 25 49 29 2 4 9 8 15 8 21 0 134 100 176 155 22 29 54
80 70 112 26 51 36 82 58 168 13 51 11 196 -4 261 -21 94 -38 129 -149 322
-53 92 -108 187 -122 212 -26 47 -246 427 -312 540 -47 82 -256 443 -283 490
-11 19 -30 53 -42 75 -13 22 -47 81 -75 130 -29 50 -87 151 -129 225 -115 203
-235 315 -403 376 -69 25 -205 40 -283 32z"/>
</g>
</svg>
