<svg width="2560" height="400" viewBox="0 0 2560 400" fill="none" xmlns="http://www.w3.org/2000/svg">
<g clip-path="url(#clip0_1054_19089)">
<rect width="2560" height="400" fill="url(#paint0_linear_1054_19089)"/>
<g style="mix-blend-mode:overlay" opacity="0.1">
<rect x="140" y="-57.1426" width="726" height="829.714" rx="363" fill="white"/>
</g>
<g style="mix-blend-mode:overlay" opacity="0.1" filter="url(#filter0_d_1054_19089)">
<path fill-rule="evenodd" clip-rule="evenodd" d="M1490.26 348.645C1521.02 383.802 1570.9 383.802 1601.66 348.645C1632.42 313.487 1632.42 256.486 1601.66 221.328C1601.22 220.826 1600.78 220.331 1600.33 219.843L1488.96 347.124C1489.39 347.635 1489.82 348.142 1490.26 348.645ZM1489.99 221.636L1490.53 221.022C1490.44 221.124 1490.35 221.226 1490.26 221.328C1490.17 221.43 1490.08 221.533 1489.99 221.636Z" fill="white"/>
</g>
<g style="mix-blend-mode:overlay" opacity="0.1" filter="url(#filter1_d_1054_19089)">
<rect width="622.243" height="622.243" rx="120" transform="matrix(0.658505 0.752577 -0.658505 0.752577 1925.75 -627.429)" fill="white"/>
</g>
<g style="mix-blend-mode:overlay" opacity="0.1">
<path d="M1088.13 175.377L981.152 113.612L1088.13 51.8461L1088.13 175.377Z" fill="white"/>
</g>
</g>
<defs>
<filter id="filter0_d_1054_19089" x="1464.96" y="219.843" width="183.774" height="203.17" filterUnits="userSpaceOnUse" color-interpolation-filters="sRGB">
<feFlood flood-opacity="0" result="BackgroundImageFix"/>
<feColorMatrix in="SourceAlpha" type="matrix" values="0 0 0 0 0 0 0 0 0 0 0 0 0 0 0 0 0 0 127 0" result="hardAlpha"/>
<feOffset dy="24"/>
<feGaussianBlur stdDeviation="12"/>
<feComposite in2="hardAlpha" operator="out"/>
<feColorMatrix type="matrix" values="0 0 0 0 0.68 0 0 0 0 0 0 0 0 0 1 0 0 0 0.15 0"/>
<feBlend mode="normal" in2="BackgroundImageFix" result="effect1_dropShadow_1054_19089"/>
<feBlend mode="normal" in="SourceGraphic" in2="effect1_dropShadow_1054_19089" result="shape"/>
</filter>
<filter id="filter1_d_1054_19089" x="1518.29" y="-594.526" width="814.922" height="918.768" filterUnits="userSpaceOnUse" color-interpolation-filters="sRGB">
<feFlood flood-opacity="0" result="BackgroundImageFix"/>
<feColorMatrix in="SourceAlpha" type="matrix" values="0 0 0 0 0 0 0 0 0 0 0 0 0 0 0 0 0 0 127 0" result="hardAlpha"/>
<feOffset dy="24"/>
<feGaussianBlur stdDeviation="22"/>
<feComposite in2="hardAlpha" operator="out"/>
<feColorMatrix type="matrix" values="0 0 0 0 0 0 0 0 0 0.22 0 0 0 0 1 0 0 0 0.13 0"/>
<feBlend mode="normal" in2="BackgroundImageFix" result="effect1_dropShadow_1054_19089"/>
<feBlend mode="normal" in="SourceGraphic" in2="effect1_dropShadow_1054_19089" result="shape"/>
</filter>
<linearGradient id="paint0_linear_1054_19089" x1="-250.667" y1="-182.857" x2="2910.56" y2="1646.67" gradientUnits="userSpaceOnUse">
<stop stop-color="#5081FF"/>
<stop offset="1" stop-color="#00E786"/>
</linearGradient>
<clipPath id="clip0_1054_19089">
<rect width="2560" height="400" fill="white"/>
</clipPath>
</defs>
</svg>
