<svg width="2560" height="400" viewBox="0 0 2560 400" fill="none" xmlns="http://www.w3.org/2000/svg">
<g clip-path="url(#clip0_1054_18758)">
<rect width="2560" height="400" fill="url(#paint0_linear_1054_18758)"/>
<path d="M-225.331 133.759C-225.331 133.759 -20.6854 39.426 341.073 56.8514C702.831 74.2767 944.478 256.242 1551.68 254.818C2158.88 253.394 2386.58 34.0639 2810.67 54.7044V654.667H1368.97C1368.97 654.667 1315.48 516.198 938.529 467.027C561.562 417.855 69.7304 501.514 -225.331 490.12V133.759Z" fill="white" fill-opacity="0.05"/>
<path d="M-222.993 -2.34409C-222.993 -2.34409 35.5293 -99.615 379.161 -34.5962C722.792 30.4226 847.492 292.995 1443.15 362.664C2038.8 432.333 2396.84 176.956 2799.55 253.452L2430.27 1025.37L1018.06 855.596C1018.06 855.596 1050.89 671.142 711.924 563.49C372.935 455.836 -160.327 505.555 -442.339 456.151L-222.993 -2.34409Z" fill="white" fill-opacity="0.05"/>
</g>
<defs>
<linearGradient id="paint0_linear_1054_18758" x1="-77.3333" y1="4.41615e-05" x2="3105.74" y2="1160.49" gradientUnits="userSpaceOnUse">
<stop stop-color="#006DE6"/>
<stop offset="0.481986" stop-color="#5350F7"/>
<stop offset="1" stop-color="#22FFAF"/>
</linearGradient>
<clipPath id="clip0_1054_18758">
<rect width="2560" height="400" fill="white"/>
</clipPath>
</defs>
</svg>
