<svg width="1920" height="400" viewBox="0 0 1920 400" fill="none" xmlns="http://www.w3.org/2000/svg">
<g clip-path="url(#clip0_717_10965)">
<rect width="1920" height="400" fill="url(#paint0_linear_717_10965)"/>
<path d="M-168.998 133.758C-168.998 133.758 -15.514 39.4251 255.805 56.8504C527.124 74.2757 708.359 256.241 1163.76 254.817C1619.16 253.393 1789.93 34.0629 2108 54.7034V654.666H1026.73C1026.73 654.666 986.608 516.197 703.897 467.026C421.172 417.854 52.2979 501.513 -168.998 490.119V133.758Z" fill="white" fill-opacity="0.05"/>
<path d="M-167.245 -2.34408C-167.245 -2.34408 26.6466 -99.615 284.37 -34.5962C542.094 30.4226 635.619 292.995 1082.36 362.664C1529.1 432.334 1797.63 176.957 2099.66 253.452L1822.7 1025.37L763.545 855.596C763.545 855.596 788.17 671.142 533.943 563.49C279.701 455.836 -120.246 505.555 -331.754 456.151L-167.245 -2.34408Z" fill="white" fill-opacity="0.05"/>
</g>
<defs>
<linearGradient id="paint0_linear_717_10965" x1="-58" y1="4.41615e-05" x2="2458.47" y2="688.098" gradientUnits="userSpaceOnUse">
<stop stop-color="#006DE6"/>
<stop offset="0.481986" stop-color="#5350F7"/>
<stop offset="1" stop-color="#22FFAF"/>
</linearGradient>
<clipPath id="clip0_717_10965">
<rect width="1920" height="400" fill="white"/>
</clipPath>
</defs>
</svg>
