<svg width="2560" height="400" viewBox="0 0 2560 400" fill="none" xmlns="http://www.w3.org/2000/svg">
<g clip-path="url(#clip0_1054_18761)">
<rect width="2560" height="400" fill="url(#paint0_linear_1054_18761)"/>
<g style="mix-blend-mode:color-burn" opacity="0.1" clip-path="url(#clip1_1054_18761)">
<path d="M358.25 -208H-18V168.25H358.25V-208Z" fill="#A5CCF7"/>
<path d="M264.188 -19.875C264.187 5.07192 274.098 28.9971 291.738 46.6372C309.378 64.2774 333.303 74.1875 358.25 74.1875V-113.938C333.303 -113.938 309.378 -104.027 291.738 -86.3872C274.098 -68.7471 264.188 -44.8219 264.188 -19.875Z" fill="#E5F0FC"/>
<path d="M170.122 74.1875C222.071 74.1875 264.184 32.0743 264.184 -19.875C264.184 -71.8243 222.071 -113.938 170.122 -113.938C118.172 -113.938 76.0591 -71.8243 76.0591 -19.875C76.0591 32.0743 118.172 74.1875 170.122 74.1875Z" fill="#E5F0FC"/>
<path d="M76.0625 -19.875C76.0625 -44.8219 66.1524 -68.7471 48.5122 -86.3872C30.8721 -104.027 6.94692 -113.937 -18 -113.938V74.1875C6.94692 74.1875 30.8721 64.2774 48.5122 46.6372C66.1524 28.9971 76.0625 5.07192 76.0625 -19.875Z" fill="#E5F0FC"/>
<path d="M264.188 168.25H358.25V74.1875C333.303 74.1875 309.378 84.0976 291.738 101.738C274.098 119.378 264.188 143.303 264.188 168.25Z" fill="#E5F0FC"/>
<path d="M170.122 74.1875C145.175 74.1875 121.249 84.0976 103.609 101.738C85.9692 119.378 76.0591 143.303 76.0591 168.25H264.184C264.184 143.303 254.274 119.378 236.634 101.738C218.994 84.0976 195.069 74.1875 170.122 74.1875Z" fill="#E5F0FC"/>
<path d="M-18 74.1875V168.25H76.0625C76.0625 143.303 66.1524 119.378 48.5122 101.738C30.8721 84.0976 6.94692 74.1875 -18 74.1875Z" fill="#E5F0FC"/>
<path d="M734.5 -208H358.25V168.25H734.5V-208Z" fill="#121619"/>
<path d="M689.43 -13.9961H685.51V115.34H689.43V-13.9961Z" fill="#E5F0FC"/>
<path d="M681.59 119.259H552.254V123.178H681.59V119.259Z" fill="#E5F0FC"/>
<path d="M540.496 119.259H411.16V123.178H540.496V119.259Z" fill="#E5F0FC"/>
<path d="M407.242 -13.9961H403.323V115.34H407.242V-13.9961Z" fill="#E5F0FC"/>
<path d="M548.336 -13.9961H544.417V115.34H548.336V-13.9961Z" fill="#E5F0FC"/>
<path d="M678.243 -13.4215L552.827 111.995L555.598 114.766L681.014 -10.6506L678.243 -13.4215Z" fill="#E5F0FC"/>
<path d="M537.15 -13.4215L411.733 111.995L414.504 114.766L539.92 -10.6506L537.15 -13.4215Z" fill="#E5F0FC"/>
<path d="M1110.75 -208H734.5V168.25H1110.75V-208Z" fill="#E5F0FC"/>
<path d="M1110.75 -208H734.5V168.25H1110.75V-208Z" fill="#A5CCF7"/>
<path d="M781.535 113.381C781.535 114.931 781.994 116.446 782.856 117.735C783.717 119.024 784.941 120.029 786.374 120.622C787.806 121.216 789.382 121.371 790.902 121.068C792.423 120.766 793.82 120.019 794.916 118.923C796.012 117.827 796.759 116.43 797.061 114.91C797.364 113.389 797.208 111.813 796.615 110.381C796.022 108.949 795.017 107.724 793.728 106.863C792.439 106.002 790.924 105.542 789.373 105.542C787.294 105.542 785.301 106.368 783.831 107.838C782.361 109.308 781.535 111.302 781.535 113.381ZM793.292 113.381C793.292 114.156 793.063 114.913 792.632 115.558C792.201 116.202 791.589 116.705 790.873 117.001C790.157 117.298 789.369 117.376 788.609 117.224C787.848 117.073 787.15 116.7 786.602 116.152C786.054 115.604 785.68 114.905 785.529 114.145C785.378 113.385 785.456 112.597 785.752 111.881C786.049 111.165 786.551 110.552 787.196 110.122C787.84 109.691 788.598 109.461 789.373 109.461C790.413 109.461 791.41 109.874 792.145 110.609C792.88 111.344 793.292 112.341 793.292 113.381Z" fill="#E5F0FC"/>
<path d="M781.535 66.3483C781.535 67.8986 781.994 69.4141 782.856 70.7032C783.717 71.9922 784.941 72.9969 786.374 73.5902C787.806 74.1835 789.382 74.3387 790.902 74.0362C792.423 73.7338 793.82 72.9872 794.916 71.891C796.012 70.7948 796.759 69.398 797.061 67.8775C797.364 66.357 797.208 64.7809 796.615 63.3486C796.022 61.9163 795.017 60.6921 793.728 59.8308C792.439 58.9695 790.924 58.5098 789.373 58.5098C787.294 58.5098 785.301 59.3356 783.831 60.8056C782.361 62.2756 781.535 64.2694 781.535 66.3483ZM793.292 66.3483C793.292 67.1235 793.063 67.8812 792.632 68.5257C792.201 69.1703 791.589 69.6726 790.873 69.9692C790.157 70.2659 789.369 70.3435 788.609 70.1923C787.848 70.041 787.15 69.6678 786.602 69.1196C786.054 68.5715 785.68 67.8732 785.529 67.1129C785.378 66.3526 785.456 65.5646 785.752 64.8485C786.049 64.1323 786.551 63.5202 787.196 63.0895C787.84 62.6589 788.598 62.429 789.373 62.429C790.413 62.429 791.41 62.842 792.145 63.577C792.88 64.312 793.292 65.3089 793.292 66.3483Z" fill="#E5F0FC"/>
<path d="M828.559 113.381C828.559 114.931 829.019 116.446 829.88 117.735C830.741 119.024 831.966 120.029 833.398 120.622C834.83 121.216 836.406 121.371 837.927 121.068C839.447 120.766 840.844 120.019 841.94 118.923C843.037 117.827 843.783 116.43 844.086 114.91C844.388 113.389 844.233 111.813 843.64 110.381C843.046 108.949 842.041 107.724 840.752 106.863C839.463 106.002 837.948 105.542 836.398 105.542C834.319 105.542 832.325 106.368 830.855 107.838C829.385 109.308 828.559 111.302 828.559 113.381ZM840.317 113.381C840.317 114.156 840.087 114.913 839.656 115.558C839.226 116.202 838.614 116.705 837.897 117.001C837.181 117.298 836.393 117.376 835.633 117.224C834.873 117.073 834.174 116.7 833.626 116.152C833.078 115.604 832.705 114.905 832.554 114.145C832.402 113.385 832.48 112.597 832.777 111.881C833.073 111.165 833.576 110.552 834.22 110.122C834.865 109.691 835.622 109.461 836.398 109.461C837.437 109.461 838.434 109.874 839.169 110.609C839.904 111.344 840.317 112.341 840.317 113.381Z" fill="#E5F0FC"/>
<path d="M1487 -208H1110.75V168.25H1487V-208Z" fill="#121619"/>
<path d="M1487 -19.875C1487 -123.774 1402.77 -208 1298.87 -208C1194.98 -208 1110.75 -123.774 1110.75 -19.875V168.25H1487V-19.875Z" fill="#E5F0FC"/>
<path d="M1487 74.1875C1487 -29.7111 1402.77 -113.938 1298.87 -113.938C1194.98 -113.938 1110.75 -29.7111 1110.75 74.1875V168.25H1487V74.1875Z" fill="#36527C"/>
<path d="M1487 168.25C1487 64.3514 1402.77 -19.875 1298.87 -19.875C1194.98 -19.875 1110.75 64.3514 1110.75 168.25H1487Z" fill="#121619"/>
<path d="M1863.25 -208H1487V168.25H1863.25V-208Z" fill="#121619"/>
<path d="M1745.67 -74.7441H1620.26V50.6725H1745.67V-74.7441Z" fill="#A5CCF7"/>
<path d="M1730 34.9948H1604.58V-90.4219H1730V34.9948ZM1608.5 -86.5026V31.0755H1726.08V-86.5026H1608.5Z" fill="#A5CCF7"/>
<path d="M2239.5 -208H1863.25V168.25H2239.5V-208Z" fill="#121619"/>
<path d="M2063.14 97.7031V109.461H2051.38V121.219H1910.28V74.1875H1922.04V62.4297H1931.84V50.6719H2072.93V97.7031H2063.14ZM2059.22 105.542V97.7031H2051.38V105.542H2059.22ZM1931.84 78.1068H1925.96V105.542H2047.46V97.7031H1931.84V78.1068ZM1935.76 93.7838H2047.46V78.1068H1935.76V93.7838ZM2051.38 74.1875V93.7838H2059.22V66.349H1935.76V74.1875H2051.38ZM1914.2 78.1068V117.299H2047.46V109.461H1922.04V78.1068H1914.2ZM1925.96 66.349V74.1875H1931.84V66.349H1925.96ZM2069.01 54.5911H1935.76V62.4297H2063.14V93.7838H2069.01V54.5911Z" fill="#E5F0FC"/>
<path d="M2615.75 -208H2239.5V168.25H2615.75V-208Z" fill="#1150C5"/>
<path d="M358.25 168.25H-18V544.5H358.25V168.25Z" fill="#A5CCF7"/>
<path d="M358.25 195.686H-18V199.605H358.25V195.686Z" fill="#121619"/>
<path d="M358.25 230.959H-18V234.878H358.25V230.959Z" fill="#121619"/>
<path d="M358.25 266.232H-18V270.152H358.25V266.232Z" fill="#121619"/>
<path d="M358.25 301.505H-18V305.424H358.25V301.505Z" fill="#121619"/>
<path d="M358.25 336.778H-18V340.698H358.25V336.778Z" fill="#121619"/>
<path d="M358.25 372.052H-18V375.971H358.25V372.052Z" fill="#121619"/>
<path d="M13.3553 168.25H9.43604V544.5H13.3553V168.25Z" fill="#121619"/>
<path d="M48.6287 168.25H44.7095V544.5H48.6287V168.25Z" fill="#121619"/>
<path d="M83.9022 168.25H79.9829V544.5H83.9022V168.25Z" fill="#121619"/>
<path d="M119.176 168.25H115.256V544.5H119.176V168.25Z" fill="#121619"/>
<path d="M154.449 168.25H150.53V544.5H154.449V168.25Z" fill="#121619"/>
<path d="M189.722 168.25H185.803V544.5H189.722V168.25Z" fill="#121619"/>
<path d="M224.996 168.25H221.077V544.5H224.996V168.25Z" fill="#121619"/>
<path d="M260.269 168.25H256.35V544.5H260.269V168.25Z" fill="#121619"/>
<path d="M295.543 168.25H291.624V544.5H295.543V168.25Z" fill="#121619"/>
<path d="M330.816 168.25H326.897V544.5H330.816V168.25Z" fill="#121619"/>
<path d="M734.5 168.25H358.25V544.5H734.5V168.25Z" fill="#A5CCF7"/>
<path d="M734.5 168.25H687.469V497.469H679.63V168.25H577.729V497.469H569.891V168.25H467.99V497.469H460.151V168.25H358.25V544.5H405.281V215.281H413.12V544.5H515.021V215.281H522.859V544.5H624.76V215.281H632.599V544.5H734.5V168.25Z" fill="#E5F0FC"/>
<path d="M1110.75 168.25H734.5V544.5H1110.75V168.25Z" fill="#121619"/>
<path d="M1016.69 207.442V238.797H828.562L1071.56 481.791L1048.04 505.307L805.047 262.312V450.437H773.692V207.442H1016.69Z" fill="#A5CCF7"/>
<path d="M1487 356.375H1298.88V544.5C1298.88 440.602 1383.1 356.375 1487 356.375Z" fill="#E5F0FC"/>
<path d="M1298.87 168.25H1110.75V356.375C1110.75 252.477 1194.98 168.25 1298.87 168.25Z" fill="#E5F0FC"/>
<path d="M1487 168.25H1298.88V356.375C1298.88 252.477 1383.1 168.25 1487 168.25Z" fill="#E5F0FC"/>
<path d="M1298.87 356.375H1110.75V544.5C1110.75 440.602 1194.98 356.375 1298.87 356.375Z" fill="#E5F0FC"/>
<path d="M1298.88 544.5H1487V356.375C1383.1 356.375 1298.88 440.601 1298.88 544.5Z" fill="#121619"/>
<path d="M1298.87 544.5V356.375C1194.98 356.375 1110.75 440.601 1110.75 544.5H1298.87Z" fill="#121619"/>
<path d="M1298.88 356.375H1487V168.25C1383.1 168.25 1298.88 252.476 1298.88 356.375Z" fill="#121619"/>
<path d="M1298.87 356.375V168.25C1194.98 168.25 1110.75 252.476 1110.75 356.375H1298.87Z" fill="#121619"/>
<path d="M1863.25 168.25H1487V544.5H1863.25V168.25Z" fill="#E5F0FC"/>
<path d="M1685.13 335.12L1751.8 219.647C1752.94 220.288 1754.08 220.934 1755.2 221.602L1688.53 337.071C1687.46 336.327 1686.32 335.674 1685.13 335.12Z" fill="#121619"/>
<path d="M1681.3 333.705L1726.9 208.396C1728.14 208.829 1729.37 209.269 1730.59 209.73L1684.98 335.043C1683.79 334.494 1682.56 334.046 1681.3 333.705Z" fill="#121619"/>
<path d="M1677.27 332.968L1700.42 201.663C1701.71 201.873 1702.99 202.111 1704.28 202.352L1681.12 333.66C1679.86 333.321 1678.57 333.09 1677.27 332.968Z" fill="#121619"/>
<path d="M1669.13 333.66L1645.98 202.353C1647.26 202.112 1648.54 201.874 1649.83 201.664L1672.98 332.968C1671.68 333.091 1670.39 333.322 1669.13 333.66Z" fill="#121619"/>
<path d="M1691.82 339.814L1793.92 254.139C1794.77 255.128 1795.64 256.107 1796.46 257.118L1694.33 342.823C1693.57 341.753 1692.73 340.746 1691.82 339.814Z" fill="#121619"/>
<path d="M1696.46 346.526L1821.77 300.917C1822.23 302.137 1822.67 303.367 1823.11 304.601L1697.8 350.209C1697.46 348.946 1697.01 347.714 1696.46 346.526Z" fill="#121619"/>
<path d="M1694.43 342.967L1809.9 276.3C1810.57 277.422 1811.21 278.559 1811.85 279.697L1696.38 346.367C1695.83 345.181 1695.17 344.044 1694.43 342.967Z" fill="#121619"/>
<path d="M1658.57 339.686L1572.89 237.582C1573.88 236.733 1574.86 235.866 1575.87 235.038L1661.58 337.178C1660.5 337.929 1659.5 338.768 1658.57 339.686Z" fill="#121619"/>
<path d="M1652.46 350.209L1527.15 304.601C1527.58 303.367 1528.02 302.137 1528.49 300.917L1653.8 346.527C1653.25 347.714 1652.8 348.946 1652.46 350.209Z" fill="#121619"/>
<path d="M1665.28 335.043L1619.67 209.729C1620.89 209.268 1622.12 208.828 1623.36 208.396L1668.96 333.704C1667.7 334.046 1666.47 334.494 1665.28 335.043Z" fill="#121619"/>
<path d="M1653.87 346.366L1538.4 279.697C1539.04 278.558 1539.68 277.422 1540.35 276.301L1655.82 342.968C1655.08 344.044 1654.43 345.181 1653.87 346.366Z" fill="#121619"/>
<path d="M1651.72 354.236L1520.41 331.084C1520.62 329.791 1520.86 328.509 1521.1 327.227L1652.41 350.38C1652.07 351.644 1651.84 352.934 1651.72 354.236Z" fill="#121619"/>
<path d="M1655.93 342.823L1553.79 257.118C1554.62 256.107 1555.48 255.128 1556.34 254.139L1658.44 339.814C1657.52 340.746 1656.68 341.752 1655.93 342.823Z" fill="#121619"/>
<path d="M1661.72 337.07L1595.05 221.601C1596.17 220.933 1597.31 220.287 1598.45 219.646L1665.11 335.119C1663.93 335.674 1662.79 336.326 1661.72 337.07Z" fill="#121619"/>
<path d="M1697.84 350.38L1829.15 327.227C1829.39 328.508 1829.63 329.791 1829.84 331.084L1698.53 354.236C1698.41 352.934 1698.18 351.644 1697.84 350.38Z" fill="#121619"/>
<path d="M1672.99 379.782L1649.84 511.086C1648.54 510.876 1647.26 510.638 1645.98 510.397L1669.14 379.09C1670.4 379.428 1671.69 379.659 1672.99 379.782Z" fill="#121619"/>
<path d="M1665.12 377.63L1598.45 493.102C1597.31 492.462 1596.17 491.816 1595.05 491.148L1661.72 375.679C1662.8 376.423 1663.93 377.075 1665.12 377.63Z" fill="#121619"/>
<path d="M1661.58 375.573L1575.87 477.712C1574.86 476.884 1573.88 476.02 1572.89 475.165L1658.57 373.061C1659.5 373.98 1660.5 374.82 1661.58 375.573Z" fill="#121619"/>
<path d="M1658.44 372.936L1556.33 458.611C1555.48 457.622 1554.62 456.643 1553.79 455.632L1655.93 369.927C1656.68 370.998 1657.52 372.004 1658.44 372.936Z" fill="#121619"/>
<path d="M1668.96 379.046L1623.35 504.354C1622.12 503.922 1620.89 503.482 1619.67 503.02L1665.28 377.708C1666.46 378.257 1667.7 378.704 1668.96 379.046Z" fill="#121619"/>
<path d="M1651.61 356.375C1651.61 357.036 1651.66 357.686 1651.71 358.334H1518.41C1518.4 357.681 1518.36 357.032 1518.36 356.375C1518.36 355.718 1518.4 355.068 1518.41 354.415H1651.71C1651.66 355.063 1651.61 355.713 1651.61 356.375Z" fill="#121619"/>
<path d="M1652.41 362.37L1521.1 385.523C1520.86 384.242 1520.62 382.959 1520.41 381.666L1651.72 358.514C1651.84 359.816 1652.07 361.106 1652.41 362.37Z" fill="#121619"/>
<path d="M1655.82 369.783L1540.35 436.45C1539.69 435.329 1539.04 434.191 1538.4 433.054L1653.87 366.385C1654.43 367.57 1655.08 368.707 1655.82 369.783Z" fill="#121619"/>
<path d="M1653.8 366.224L1528.49 411.833C1528.02 410.613 1527.58 409.384 1527.15 408.149L1652.46 362.541C1652.8 363.804 1653.25 365.036 1653.8 366.224Z" fill="#121619"/>
<path d="M1691.69 373.063L1777.36 475.168C1776.38 476.02 1775.4 476.884 1774.39 477.711L1688.68 375.573C1689.75 374.821 1690.76 373.981 1691.69 373.063Z" fill="#121619"/>
<path d="M1696.38 366.384L1811.85 433.053C1811.21 434.192 1810.57 435.328 1809.9 436.449L1694.43 369.782C1695.17 368.706 1695.83 367.569 1696.38 366.384Z" fill="#121619"/>
<path d="M1694.32 369.927L1796.46 455.632C1795.63 456.643 1794.77 457.622 1793.92 458.611L1691.81 372.936C1692.73 372.004 1693.57 370.997 1694.32 369.927Z" fill="#121619"/>
<path d="M1697.8 362.541L1823.1 408.149C1822.67 409.384 1822.23 410.613 1821.77 411.833L1696.46 366.223C1697.01 365.036 1697.45 363.804 1697.8 362.541Z" fill="#121619"/>
<path d="M1698.53 358.514L1829.84 381.666C1829.63 382.959 1829.39 384.241 1829.15 385.523L1697.84 362.37C1698.18 361.106 1698.41 359.816 1698.53 358.514Z" fill="#121619"/>
<path d="M1681.12 379.09L1704.28 510.397C1703 510.638 1701.71 510.876 1700.42 511.086L1677.27 379.782C1678.57 379.659 1679.86 379.428 1681.12 379.09Z" fill="#121619"/>
<path d="M1684.98 377.708L1730.59 503.021C1729.37 503.483 1728.14 503.923 1726.9 504.355L1681.3 379.047C1682.56 378.705 1683.79 378.257 1684.98 377.708Z" fill="#121619"/>
<path d="M1688.53 375.679L1755.2 491.148C1754.08 491.816 1752.94 492.462 1751.8 493.102L1685.13 377.63C1686.32 377.075 1687.46 376.423 1688.53 375.679Z" fill="#121619"/>
<path d="M1688.68 337.177L1774.39 235.038C1775.4 235.866 1776.38 236.729 1777.36 237.582L1691.69 339.686C1690.76 338.768 1689.75 337.929 1688.68 337.177Z" fill="#121619"/>
<path d="M1675.13 332.86C1674.47 332.86 1673.82 332.905 1673.17 332.959V199.654C1673.82 199.646 1674.47 199.604 1675.13 199.604C1675.79 199.604 1676.44 199.646 1677.09 199.654V332.959C1676.44 332.905 1675.79 332.86 1675.13 332.86Z" fill="#121619"/>
<path d="M1675.13 379.89C1675.79 379.89 1676.44 379.845 1677.09 379.791V513.096C1676.44 513.104 1675.79 513.145 1675.13 513.145C1674.47 513.145 1673.82 513.104 1673.17 513.096V379.791C1673.82 379.845 1674.47 379.89 1675.13 379.89Z" fill="#121619"/>
<path d="M1698.64 356.375C1698.64 355.713 1698.6 355.063 1698.54 354.415H1831.85C1831.86 355.068 1831.9 355.718 1831.9 356.375C1831.9 357.032 1831.86 357.681 1831.85 358.334H1698.54C1698.6 357.686 1698.64 357.036 1698.64 356.375Z" fill="#121619"/>
<path d="M2239.5 168.25H1863.25V544.5H2239.5V168.25Z" fill="#121619"/>
<path d="M2051.38 199.604C2009.44 200.304 1969.35 216.986 1939.29 246.244C1879.71 307.776 1879.71 405.366 1939.29 466.507C1953.97 481.287 1971.44 493.017 1990.67 501.021C2009.91 509.025 2030.54 513.146 2051.38 513.146C2072.21 513.146 2092.84 509.025 2112.08 501.021C2131.32 493.017 2148.78 481.287 2163.47 466.507C2223.04 404.974 2223.04 307.384 2163.47 246.244C2133.41 216.986 2093.32 200.304 2051.38 199.604ZM1942.03 463.763C1914.13 434.978 1898.53 396.464 1898.53 356.375C1898.53 316.287 1914.13 277.772 1942.03 248.987C1956.36 234.579 1973.4 223.145 1992.17 215.342C2010.93 207.54 2031.06 203.524 2051.38 203.524C2071.7 203.524 2091.82 207.54 2110.59 215.342C2129.35 223.145 2146.39 234.579 2160.73 248.987C2188.63 277.772 2204.23 316.287 2204.23 356.375C2204.23 396.464 2188.63 434.978 2160.73 463.763C2146.39 478.172 2129.35 489.606 2110.59 497.408C2091.82 505.21 2071.7 509.227 2051.38 509.227C2031.06 509.227 2010.93 505.21 1992.17 497.408C1973.4 489.606 1956.36 478.172 1942.03 463.763Z" fill="#21272A"/>
<path d="M2051.38 207.442C2011.4 208.226 1973.38 224.295 1944.38 251.73C1917.41 279.813 1902.35 317.241 1902.35 356.179C1902.35 395.116 1917.41 432.544 1944.38 460.627C1973.38 488.454 2011.4 504.523 2051.38 505.307C2091.35 504.523 2129.37 488.454 2158.37 461.019C2185.34 432.936 2200.41 395.508 2200.41 356.571C2200.41 317.633 2185.34 280.205 2158.37 252.122C2129.37 224.295 2091.35 208.226 2051.38 207.442ZM2051.38 501.388C2012.59 500.497 1975.53 485.117 1947.52 458.276C1892.65 401.446 1892.65 311.303 1947.52 254.474C1975.43 227.478 2012.55 212.072 2051.38 211.362C2090.17 212.252 2127.22 227.632 2155.24 254.474C2209.71 311.303 2209.71 401.054 2155.24 457.884C2127.36 484.989 2090.25 500.533 2051.38 501.388Z" fill="#21272A"/>
<path d="M2051.38 215.281C2013.36 216.065 1977.31 231.35 1949.87 257.609C1897.35 312.871 1897.35 399.879 1949.87 455.141C1977.31 481.4 2013.36 496.685 2051.38 497.469C2089.4 496.685 2125.45 481.4 2152.89 455.141C2205.41 399.879 2205.41 312.871 2152.89 257.609C2125.45 231.35 2089.4 216.065 2051.38 215.281ZM2051.38 493.549C2014.51 492.461 1979.35 477.808 1952.61 452.397C1901.27 398.703 1901.27 314.047 1952.61 260.353C1965.54 247.313 1980.93 236.963 1997.88 229.9C2014.83 222.837 2033.02 219.201 2051.38 219.201C2069.74 219.201 2087.93 222.837 2104.88 229.9C2121.83 236.963 2137.21 247.313 2150.14 260.353C2201.49 314.047 2201.49 398.703 2150.14 452.397C2123.41 477.808 2088.25 492.461 2051.38 493.549Z" fill="#21272A"/>
<path d="M2051.38 223.12C2015.35 224.198 1981.01 238.579 1954.96 263.489C1932.23 286.22 1918.12 321.886 1918.12 356.375C1918.12 390.865 1932.23 426.53 1954.96 449.262C1967.55 462.047 1982.56 472.201 1999.11 479.131C2015.67 486.062 2033.43 489.631 2051.38 489.631C2069.32 489.631 2087.09 486.062 2103.64 479.131C2120.19 472.201 2135.2 462.047 2147.79 449.262C2170.52 426.53 2184.63 390.865 2184.63 356.375C2184.63 321.886 2170.52 286.22 2147.79 263.489C2121.75 238.579 2087.4 224.198 2051.38 223.12ZM2051.38 485.711C2019.24 485.711 1980.83 469.642 1957.7 446.519C1935.76 424.571 1922.04 390.081 1922.04 356.375C1922.04 322.67 1935.76 288.18 1957.7 266.232C1980.83 243.108 2019.24 227.039 2051.38 227.039C2083.51 227.039 2121.92 243.108 2145.05 266.232C2166.99 288.18 2180.71 323.062 2180.71 356.375C2180.71 389.689 2166.99 424.571 2145.05 446.519C2121.92 469.642 2083.51 485.711 2051.38 485.711Z" fill="#21272A"/>
<path d="M2051.38 230.958C2020.81 230.958 1982.4 247.027 1960.45 268.975C1939.29 290.139 1925.96 323.845 1925.96 356.375C1925.96 388.905 1939.29 422.61 1960.45 443.774C1982.4 465.722 2020.81 481.791 2051.38 481.791C2081.95 481.791 2120.36 465.722 2142.31 443.774C2163.47 422.61 2176.8 388.905 2176.8 356.375C2176.8 323.845 2163.47 290.139 2142.31 268.975C2120.36 247.027 2081.95 230.958 2051.38 230.958ZM2051.38 477.872C2021.59 477.872 1984.36 462.195 1963.19 441.031C1942.42 420.651 1929.88 388.121 1929.88 356.375C1929.88 324.629 1942.42 292.099 1963.19 271.718C1984.36 250.554 2021.59 234.877 2051.38 234.877C2081.17 234.877 2118.4 250.554 2139.56 271.718C2160.33 292.099 2172.88 324.629 2172.88 356.375C2172.88 388.121 2160.33 420.651 2139.56 441.031C2118.4 462.195 2081.17 477.872 2051.38 477.872Z" fill="#21272A"/>
<path d="M2051.38 238.797C2022.77 238.797 1985.93 254.082 1965.55 274.854C1946.34 294.059 1933.8 326.197 1933.8 356.375C1933.8 386.553 1946.34 418.691 1965.55 437.896C1985.93 458.668 2022.77 473.953 2051.38 473.953C2079.99 473.953 2116.83 458.668 2137.21 437.896C2156.41 418.691 2168.96 386.553 2168.96 356.375C2168.96 326.197 2156.41 294.059 2137.21 274.854C2116.83 254.082 2079.99 238.797 2051.38 238.797ZM2051.38 470.034C2023.94 470.034 1988.28 455.141 1968.29 435.152C1949.87 416.732 1937.72 385.77 1937.72 356.375C1937.72 326.98 1949.87 296.018 1968.29 277.598C1988.28 257.609 2023.94 242.716 2051.38 242.716C2078.81 242.716 2114.48 257.609 2134.47 277.598C2152.89 296.018 2165.04 326.98 2165.04 356.375C2165.04 385.77 2152.89 416.732 2134.47 435.152C2114.48 455.141 2078.81 470.034 2051.38 470.034Z" fill="#21272A"/>
<path d="M2051.38 246.636C2025.12 246.636 1989.84 261.529 1970.64 280.341C1953.4 297.978 1941.64 328.549 1941.64 356.375C1941.64 384.202 1953.4 414.772 1970.64 432.409C1989.84 451.222 2025.12 466.115 2051.38 466.115C2077.64 466.115 2112.91 451.222 2132.11 432.409C2149.36 414.772 2161.12 384.202 2161.12 356.375C2161.12 328.549 2149.36 297.978 2132.11 280.341C2112.91 261.529 2077.64 246.636 2051.38 246.636ZM2051.38 462.196C2025.9 462.196 1991.8 447.694 1973.38 429.666C1956.92 412.813 1945.56 383.418 1945.56 356.375C1945.56 329.332 1956.92 299.938 1973.38 283.085C1991.8 265.056 2025.9 250.555 2051.38 250.555C2076.85 250.555 2110.95 265.056 2129.37 283.085C2145.83 299.938 2157.2 329.332 2157.2 356.375C2157.2 383.418 2145.83 412.813 2129.37 429.666C2110.95 447.694 2076.85 462.196 2051.38 462.196Z" fill="#21272A"/>
<path d="M2051.38 254.474C2027.86 254.474 1993.38 268.975 1976.13 286.22C1960.06 301.897 1949.48 330.116 1949.48 356.375C1949.48 382.634 1960.06 410.853 1976.13 426.53C1993.38 443.774 2027.86 458.276 2051.38 458.276C2074.9 458.276 2109.39 443.774 2126.63 426.53C2142.7 410.853 2153.28 382.634 2153.28 356.375C2153.28 330.116 2142.7 301.897 2126.63 286.22C2109.39 268.975 2074.9 254.474 2051.38 254.474ZM2051.38 454.356C2028.65 454.356 1995.33 440.247 1978.87 423.786C1963.59 408.501 1953.4 381.458 1953.4 356.375C1953.4 331.291 1963.59 304.248 1978.87 288.963C1995.33 272.502 2028.65 258.393 2051.38 258.393C2074.11 258.393 2107.43 272.502 2123.89 288.963C2139.17 304.248 2149.36 331.291 2149.36 356.375C2149.36 381.458 2139.17 408.501 2123.89 423.786C2107.43 440.247 2074.11 454.356 2051.38 454.356Z" fill="#21272A"/>
<path d="M2051.37 262.312C2029.82 262.312 1996.9 276.03 1981.22 291.707C1967.11 305.816 1957.31 332.467 1957.31 356.375C1957.31 380.283 1967.11 406.934 1981.22 421.043C1996.9 436.72 2029.82 450.437 2051.37 450.437C2072.93 450.437 2105.85 436.72 2121.53 421.043C2135.64 406.934 2145.44 380.283 2145.44 356.375C2145.44 332.467 2135.64 305.816 2121.53 291.707C2105.85 276.03 2072.93 262.312 2051.37 262.312ZM2051.37 446.518C2029.04 446.518 1997.29 431.625 1983.96 418.299C1970.64 404.582 1961.23 379.499 1961.23 356.375C1961.23 333.251 1970.64 308.168 1983.96 294.45C1997.29 281.125 2029.04 266.232 2051.37 266.232C2073.71 266.232 2105.46 281.125 2118.79 294.45C2132.11 308.168 2141.52 333.251 2141.52 356.375C2141.52 379.499 2132.11 404.582 2118.79 418.299C2105.46 431.625 2073.71 446.518 2051.37 446.518Z" fill="#21272A"/>
<path d="M2051.38 270.151C2030.21 270.151 1999.25 285.045 1986.32 297.586C1972.6 311.696 1965.15 337.563 1965.15 356.375C1965.15 375.188 1972.6 401.055 1986.32 415.164C1998.86 427.706 2030.21 442.599 2051.38 442.599C2072.54 442.599 2103.5 427.706 2116.44 415.164C2130.55 401.055 2137.6 374.796 2137.6 356.375C2137.6 337.955 2130.16 311.696 2116.44 297.586C2103.5 285.045 2072.54 270.151 2051.38 270.151ZM2051.38 438.68C2031.39 438.68 2001.21 424.179 1989.45 412.421C1976.13 399.095 1969.07 374.012 1969.07 356.375C1969.07 338.739 1976.13 313.655 1989.45 300.33C2001.21 288.572 2031.78 274.071 2051.38 274.071C2070.97 274.071 2101.54 288.572 2113.3 300.33C2126.63 313.655 2133.68 338.739 2133.68 356.375C2133.68 374.012 2126.63 399.095 2113.3 412.421C2101.54 424.179 2071.37 438.68 2051.38 438.68Z" fill="#21272A"/>
<path d="M2051.38 277.989C2033.35 277.989 2002.78 292.099 1991.8 303.465C1979.65 315.614 1972.99 339.914 1972.99 356.375C1972.99 372.836 1979.65 397.135 1991.8 409.285C2002.78 420.651 2033.35 434.76 2051.38 434.76C2069.41 434.76 2099.98 420.651 2110.95 409.285C2123.1 397.135 2129.76 372.836 2129.76 356.375C2129.76 339.914 2123.1 315.614 2110.95 303.465C2099.98 292.099 2069.41 277.989 2051.38 277.989ZM2051.38 430.841C2034.52 430.841 2005.13 417.123 1994.55 406.541C1983.57 395.567 1976.91 372.444 1976.91 356.375C1976.91 340.306 1983.57 317.182 1994.55 306.208C2005.13 295.626 2034.52 281.909 2051.38 281.909C2068.23 281.909 2097.62 295.626 2108.21 306.208C2119.18 317.182 2125.84 340.306 2125.84 356.375C2125.84 372.444 2119.18 395.567 2108.21 406.541C2097.62 417.123 2068.23 430.841 2051.38 430.841Z" fill="#21272A"/>
<path d="M2051.38 285.828C2035.7 285.828 2006.7 299.154 1996.9 308.952C1987.1 319.142 1980.83 341.482 1980.83 356.375C1980.83 371.268 1987.1 393.608 1996.9 403.798C2006.7 413.596 2035.7 426.922 2051.38 426.922C2067.06 426.922 2096.06 413.596 2105.86 403.798C2115.66 393.608 2121.93 371.268 2121.93 356.375C2121.93 341.482 2115.66 319.142 2105.86 308.952C2096.06 299.154 2067.06 285.828 2051.38 285.828ZM2051.38 423.003C2037.27 423.003 2008.66 410.069 1999.65 401.055C1990.63 391.648 1984.75 370.484 1984.75 356.375C1984.75 342.266 1990.63 321.102 1999.65 311.695C2008.66 302.681 2037.27 289.747 2051.38 289.747C2065.49 289.747 2094.1 302.681 2103.12 311.695C2112.13 321.102 2118.01 342.266 2118.01 356.375C2118.01 370.484 2112.13 391.648 2103.12 401.055C2094.1 410.069 2065.49 423.003 2051.38 423.003Z" fill="#21272A"/>
<path d="M2051.38 293.667C2038.44 293.667 2010.61 306.209 2002.38 314.831C1993.37 323.453 1988.67 344.618 1988.67 356.375C1988.67 368.133 1993.37 389.297 2002.38 397.92C2010.61 406.542 2038.44 419.084 2051.38 419.084C2064.31 419.084 2092.14 406.542 2100.37 397.92C2109.38 389.297 2114.08 368.133 2114.08 356.375C2114.08 344.618 2109.38 323.453 2100.37 314.831C2092.14 306.209 2064.31 293.667 2051.38 293.667ZM2051.38 415.164C2039.62 415.164 2012.57 403.015 2005.13 395.176C1997.68 388.121 1992.59 368.917 1992.59 356.375C1992.59 343.834 1997.68 324.629 2005.13 317.575C2012.57 309.736 2039.62 297.586 2051.38 297.586C2063.13 297.586 2090.18 309.736 2097.62 317.575C2105.07 325.021 2110.16 343.834 2110.16 356.375C2110.16 368.917 2105.07 388.121 2097.62 395.176C2090.18 403.015 2063.13 415.164 2051.38 415.164Z" fill="#21272A"/>
<path d="M2051.38 301.505C2041.19 301.505 2014.15 313.655 2007.48 320.317C2000.82 327.372 1996.51 345.793 1996.51 356.375C1996.51 366.957 2000.82 385.377 2007.48 392.432C2014.15 399.095 2041.19 411.244 2051.38 411.244C2061.57 411.244 2088.61 399.095 2095.27 392.432C2101.94 385.769 2106.25 366.957 2106.25 356.375C2106.25 345.793 2101.94 327.372 2095.27 320.317C2088.61 313.655 2061.57 301.505 2051.38 301.505ZM2051.38 407.325C2042.36 407.325 2016.11 395.567 2010.23 389.688C2004.35 383.81 2000.43 365.781 2000.43 356.375C2000.43 346.968 2004.35 328.94 2010.23 323.061C2016.11 317.182 2042.36 305.424 2051.38 305.424C2060.39 305.424 2086.65 317.182 2092.53 323.061C2098.41 328.94 2102.33 346.968 2102.33 356.375C2102.33 365.781 2098.41 383.81 2092.53 389.688C2086.65 395.567 2060.39 407.325 2051.38 407.325Z" fill="#21272A"/>
<path d="M2051.38 309.344C2043.54 309.344 2018.06 321.102 2012.58 326.197C2007.48 331.684 2004.35 348.928 2004.35 356.375C2004.35 363.822 2007.48 381.066 2012.58 386.553C2018.06 391.648 2043.54 403.406 2051.38 403.406C2059.22 403.406 2084.69 391.648 2090.18 386.553C2095.67 381.066 2098.41 363.822 2098.41 356.375C2098.41 348.928 2095.27 331.684 2090.18 326.197C2084.69 321.102 2059.22 309.344 2051.38 309.344ZM2051.38 399.487C2044.72 399.487 2020.02 388.121 2015.32 383.81C2011.01 379.499 2008.27 363.43 2008.27 356.375C2008.27 349.32 2011.4 333.251 2015.32 328.94C2019.63 324.629 2044.32 313.263 2051.38 313.263C2058.43 313.263 2082.73 324.629 2087.44 328.94C2091.75 333.251 2094.49 349.32 2094.49 356.375C2094.49 363.43 2091.35 379.499 2087.44 383.81C2082.73 388.121 2058.04 399.487 2051.38 399.487Z" fill="#21272A"/>
<path d="M2051.38 317.183C2045.89 317.183 2021.59 328.157 2018.06 331.684C2014.14 335.603 2012.18 351.672 2012.18 356.375C2012.18 361.078 2014.14 377.147 2018.06 381.067C2021.59 384.594 2045.89 395.568 2051.38 395.568C2056.86 395.568 2081.16 384.594 2084.69 381.067C2088.61 377.147 2090.57 361.078 2090.57 356.375C2090.57 351.672 2088.61 335.603 2084.69 331.684C2081.16 328.157 2056.86 317.183 2051.38 317.183ZM2051.38 391.649C2047.07 391.649 2023.55 381.067 2020.81 378.323C2018.46 375.58 2016.1 361.862 2016.1 356.375C2016.1 350.888 2018.46 337.171 2020.81 334.427C2023.55 331.684 2047.07 321.102 2051.38 321.102C2055.69 321.102 2079.2 331.684 2081.95 334.427C2084.3 336.779 2086.65 350.888 2086.65 356.375C2086.65 361.862 2084.3 375.58 2081.95 378.323C2079.2 381.067 2055.69 391.649 2051.38 391.649Z" fill="#21272A"/>
<path d="M2051.38 325.021C2048.25 325.021 2025.12 335.603 2023.16 337.562C2020.42 339.914 2020.03 356.375 2020.03 356.375C2020.03 356.375 2020.42 372.836 2023.16 375.187C2025.12 377.147 2048.25 387.729 2051.38 387.729C2054.52 387.729 2077.64 377.147 2079.6 375.187C2082.34 372.836 2082.73 356.375 2082.73 356.375C2082.73 356.375 2082.34 339.914 2079.6 337.562C2077.64 335.603 2054.52 325.021 2051.38 325.021ZM2025.91 372.444C2023.29 361.89 2023.29 350.859 2025.91 340.306C2034.14 335.958 2042.65 332.161 2051.38 328.94C2060.11 332.161 2068.62 335.958 2076.86 340.306C2079.47 350.859 2079.47 361.89 2076.86 372.444C2068.62 376.791 2060.11 380.588 2051.38 383.81C2042.65 380.588 2034.14 376.791 2025.91 372.444Z" fill="#21272A"/>
<path d="M2051.37 332.859L2027.86 343.441V369.309L2051.37 379.891L2074.89 369.309V343.441L2051.37 332.859ZM2031.78 345.793L2051.37 336.779L2070.97 345.793V366.957L2051.37 375.971L2031.78 366.957V345.793Z" fill="#21272A"/>
<path d="M2615.75 168.25H2239.5V544.5H2615.75V168.25Z" fill="#21272A"/>
<path d="M2239.5 168.25C2316.03 243.435 2372.76 293.667 2427.63 293.667C2482.5 293.667 2539.49 246.37 2615.75 168.25H2239.5Z" fill="#E5F0FC"/>
<path d="M2615.75 168.25C2540.57 244.781 2490.34 301.505 2490.34 356.375C2490.34 411.245 2537.63 468.24 2615.75 544.5V168.25Z" fill="#E5F0FC"/>
<path d="M2239.5 544.5C2314.69 467.969 2364.92 411.245 2364.92 356.375C2364.92 301.505 2317.62 244.51 2239.5 168.25V544.5Z" fill="#E5F0FC"/>
</g>
</g>
<defs>
<linearGradient id="paint0_linear_1054_18761" x1="-170.667" y1="-45.7139" x2="2546.35" y2="675.68" gradientUnits="userSpaceOnUse">
<stop stop-color="#5350F6"/>
<stop offset="1" stop-color="#A35BFF"/>
</linearGradient>
<clipPath id="clip0_1054_18761">
<rect width="2560" height="400" fill="white"/>
</clipPath>
<clipPath id="clip1_1054_18761">
<rect width="2648" height="1077" fill="white" transform="translate(-18 -208)"/>
</clipPath>
</defs>
</svg>
