<svg width="540" height="644" viewBox="0 0 540 644" fill="none" xmlns="http://www.w3.org/2000/svg">
<g clip-path="url(#clip0_717_18524)">
<rect width="540" height="644" fill="#D7E8FB"/>
<path opacity="0.12" d="M902.536 318.164C687.17 397.934 505.199 185.791 300.342 252.003C68.8086 326.837 167.887 659.309 -93.8659 752.937C-285.82 821.599 -431.59 539.919 -688.345 629.393" stroke="#0471E9" stroke-dasharray="3 3"/>
<path opacity="0.12" d="M-1429.37 745.987C-1355.07 766.777 -1159.62 795.948 -972.282 746.313C-738.105 684.268 -827.09 372.254 -565.363 302.91C-303.636 233.566 -177.59 621.867 131.366 540.01C440.322 458.153 373.464 219.286 645.031 147.335" stroke="#0471E9"/>
<circle opacity="0.1" cx="492.299" cy="228.83" r="5" transform="rotate(5.73588 492.299 228.83)" fill="#0471E9"/>
<circle opacity="0.1" cx="134.163" cy="441.861" r="5" transform="rotate(5.73588 134.163 441.861)" fill="#0471E9"/>
</g>
<defs>
<clipPath id="clip0_717_18524">
<rect width="540" height="644" fill="white"/>
</clipPath>
</defs>
</svg>
