<svg width="1492" height="920" viewBox="0 0 1492 920" fill="none" xmlns="http://www.w3.org/2000/svg">
<g clip-path="url(#clip0_550_21483)">
<path d="M0 0H1492V820C1492 875.229 1447.23 920 1392 920H0V0Z" fill="#E4DFFF"/>
<g style="mix-blend-mode:color-burn" opacity="0.03" clip-path="url(#clip1_550_21483)">
<path d="M373.667 -166H-3.6665V211.333H373.667V-166Z" fill="#121619"/>
<path d="M328.465 28.5625H324.535V158.271H328.465V28.5625Z" fill="#E5F0FC"/>
<path d="M320.604 162.202H190.896V166.132H320.604V162.202Z" fill="#E5F0FC"/>
<path d="M179.104 162.202H49.396V166.132H179.104V162.202Z" fill="#E5F0FC"/>
<path d="M45.4657 28.5625H41.5352V158.271H45.4657V28.5625Z" fill="#E5F0FC"/>
<path d="M45.4657 -112.938H41.5352V16.7708H45.4657V-112.938Z" fill="#E5F0FC"/>
<path d="M328.465 -112.938H324.535V16.7708H328.465V-112.938Z" fill="#E5F0FC"/>
<path d="M179.104 20.7017H49.396V24.6322H179.104V20.7017Z" fill="#E5F0FC"/>
<path d="M320.604 20.7017H190.896V24.6322H320.604V20.7017Z" fill="#E5F0FC"/>
<path d="M186.966 -112.938H183.035V16.7708H186.966V-112.938Z" fill="#E5F0FC"/>
<path d="M186.966 28.5625H183.035V158.271H186.966V28.5625Z" fill="#E5F0FC"/>
<path d="M317.249 -112.362L191.472 13.416L194.251 16.1949L320.028 -109.583L317.249 -112.362Z" fill="#E5F0FC"/>
<path d="M317.249 -112.362L191.472 13.416L194.251 16.1949L320.028 -109.583L317.249 -112.362Z" fill="#E5F0FC"/>
<path d="M175.749 -112.362L49.9717 13.416L52.7505 16.1949L178.528 -109.583L175.749 -112.362Z" fill="#E5F0FC"/>
<path d="M317.249 29.1382L191.472 154.916L194.251 157.695L320.028 31.9171L317.249 29.1382Z" fill="#E5F0FC"/>
<path d="M175.749 29.1382L49.9717 154.916L52.7505 157.695L178.528 31.9171L175.749 29.1382Z" fill="#E5F0FC"/>
<path d="M751 -166H373.667V211.333H751V-166Z" fill="#E5F0FC"/>
<path d="M751 -166H373.667V211.333H751V-166Z" fill="#A5CCF7"/>
<path d="M420.834 156.305C420.834 157.86 421.295 159.38 422.159 160.673C423.022 161.966 424.25 162.973 425.687 163.568C427.123 164.163 428.704 164.319 430.228 164.016C431.753 163.712 433.154 162.963 434.253 161.864C435.353 160.765 436.102 159.364 436.405 157.839C436.708 156.314 436.553 154.734 435.958 153.297C435.363 151.861 434.355 150.633 433.062 149.769C431.77 148.905 430.25 148.444 428.695 148.444C426.61 148.444 424.61 149.273 423.136 150.747C421.662 152.221 420.834 154.221 420.834 156.305ZM432.625 156.305C432.625 157.083 432.395 157.843 431.963 158.489C431.531 159.136 430.917 159.639 430.199 159.937C429.481 160.234 428.69 160.312 427.928 160.16C427.166 160.009 426.465 159.634 425.916 159.085C425.366 158.535 424.991 157.835 424.84 157.072C424.688 156.31 424.766 155.52 425.063 154.801C425.361 154.083 425.865 153.469 426.511 153.037C427.158 152.605 427.917 152.375 428.695 152.375C429.737 152.375 430.737 152.789 431.474 153.526C432.211 154.263 432.625 155.263 432.625 156.305Z" fill="#E5F0FC"/>
<path d="M420.834 109.139C420.834 110.694 421.295 112.214 422.159 113.506C423.022 114.799 424.25 115.807 425.687 116.402C427.123 116.997 428.704 117.152 430.228 116.849C431.753 116.546 433.154 115.797 434.253 114.698C435.353 113.598 436.102 112.197 436.405 110.673C436.708 109.148 436.553 107.567 435.958 106.131C435.363 104.694 434.355 103.466 433.062 102.603C431.77 101.739 430.25 101.278 428.695 101.278C426.61 101.278 424.61 102.106 423.136 103.58C421.662 105.055 420.834 107.054 420.834 109.139ZM432.625 109.139C432.625 109.916 432.395 110.676 431.963 111.323C431.531 111.969 430.917 112.473 430.199 112.77C429.481 113.068 428.69 113.146 427.928 112.994C427.166 112.842 426.465 112.468 425.916 111.918C425.366 111.369 424.991 110.668 424.84 109.906C424.688 109.143 424.766 108.353 425.063 107.635C425.361 106.917 425.865 106.303 426.511 105.871C427.158 105.439 427.917 105.208 428.695 105.208C429.737 105.208 430.737 105.623 431.474 106.36C432.211 107.097 432.625 108.096 432.625 109.139Z" fill="#E5F0FC"/>
<path d="M468 156.305C468 157.86 468.461 159.38 469.325 160.673C470.188 161.966 471.416 162.973 472.852 163.568C474.289 164.163 475.87 164.319 477.394 164.016C478.919 163.712 480.32 162.963 481.42 161.864C482.519 160.765 483.268 159.364 483.571 157.839C483.874 156.314 483.719 154.734 483.124 153.297C482.529 151.861 481.521 150.633 480.228 149.769C478.935 148.905 477.416 148.444 475.861 148.444C473.776 148.444 471.776 149.273 470.302 150.747C468.828 152.221 468 154.221 468 156.305ZM479.791 156.305C479.791 157.083 479.561 157.843 479.129 158.489C478.697 159.136 478.083 159.639 477.365 159.937C476.647 160.234 475.856 160.312 475.094 160.16C474.332 160.009 473.631 159.634 473.082 159.085C472.532 158.535 472.157 157.835 472.006 157.072C471.854 156.31 471.932 155.52 472.23 154.801C472.527 154.083 473.031 153.469 473.677 153.037C474.323 152.605 475.083 152.375 475.861 152.375C476.903 152.375 477.903 152.789 478.64 153.526C479.377 154.263 479.791 155.263 479.791 156.305Z" fill="#E5F0FC"/>
<path d="M1128.33 -166H751V211.333H1128.33V-166Z" fill="#121619"/>
<path d="M1128.33 22.6667C1128.33 -81.5311 1043.86 -166 939.667 -166C835.469 -166 751 -81.5311 751 22.6667V211.333H1128.33V22.6667Z" fill="#E5F0FC"/>
<path d="M1128.33 117C1128.33 12.8024 1043.86 -71.6665 939.667 -71.6665C835.469 -71.6665 751 12.8024 751 117V211.333H1128.33V117Z" fill="#36527C"/>
<path d="M1128.33 211.333C1128.33 107.135 1043.86 22.6665 939.667 22.6665C835.469 22.6665 751 107.135 751 211.333H1128.33Z" fill="#121619"/>
<path d="M1505.67 -166H1128.33V211.333H1505.67V-166Z" fill="#121619"/>
<path d="M1387.75 -32.3608H1261.97V93.4169H1387.75V-32.3608Z" fill="#A5CCF7"/>
<path d="M1372.03 77.6943H1246.25V-48.0835H1372.03V77.6943ZM1250.18 -44.1529V73.7637H1368.1V-44.1529H1250.18Z" fill="#A5CCF7"/>
<path d="M373.667 211.333H-3.6665V588.667H373.667V211.333Z" fill="#A5CCF7"/>
<path d="M373.667 238.848H-3.6665V242.778H373.667V238.848Z" fill="#121619"/>
<path d="M373.667 274.223H-3.6665V278.153H373.667V274.223Z" fill="#121619"/>
<path d="M373.667 309.598H-3.6665V313.528H373.667V309.598Z" fill="#121619"/>
<path d="M373.667 344.973H-3.6665V348.903H373.667V344.973Z" fill="#121619"/>
<path d="M373.667 380.348H-3.6665V384.278H373.667V380.348Z" fill="#121619"/>
<path d="M373.667 415.723H-3.6665V419.653H373.667V415.723Z" fill="#121619"/>
<path d="M373.667 451.098H-3.6665V455.028H373.667V451.098Z" fill="#121619"/>
<path d="M373.667 486.473H-3.6665V490.403H373.667V486.473Z" fill="#121619"/>
<path d="M373.667 521.848H-3.6665V525.778H373.667V521.848Z" fill="#121619"/>
<path d="M373.667 557.223H-3.6665V561.153H373.667V557.223Z" fill="#121619"/>
<path d="M27.7782 211.333H23.8477V588.667H27.7782V211.333Z" fill="#121619"/>
<path d="M63.1532 211.333H59.2227V588.667H63.1532V211.333Z" fill="#121619"/>
<path d="M98.5282 211.333H94.5977V588.667H98.5282V211.333Z" fill="#121619"/>
<path d="M133.903 211.333H129.973V588.667H133.903V211.333Z" fill="#121619"/>
<path d="M169.278 211.333H165.348V588.667H169.278V211.333Z" fill="#121619"/>
<path d="M204.653 211.333H200.723V588.667H204.653V211.333Z" fill="#121619"/>
<path d="M240.028 211.333H236.098V588.667H240.028V211.333Z" fill="#121619"/>
<path d="M275.403 211.333H271.473V588.667H275.403V211.333Z" fill="#121619"/>
<path d="M310.778 211.333H306.847V588.667H310.778V211.333Z" fill="#121619"/>
<path d="M346.153 211.333H342.222V588.667H346.153V211.333Z" fill="#121619"/>
<path d="M751 211.333H373.667V588.667H751V211.333Z" fill="#121619"/>
<path d="M656.667 250.639V282.084H468L711.695 525.778L688.112 549.361L444.417 305.667V494.334H412.973V250.639H656.667Z" fill="#A5CCF7"/>
<path d="M1128.33 211.333H751V588.667H1128.33V211.333Z" fill="#A5CCF7"/>
<path d="M1128.33 211.333H1081.17V541.5H1073.31V211.333H971.111V541.5H963.25V211.333H861.056V541.5H853.194V211.333H751V588.667H798.167V258.5H806.028V588.667H908.222V258.5H916.083V588.667H1018.28V258.5H1026.14V588.667H1128.33V211.333Z" fill="#E5F0FC"/>
<path d="M1505.67 400H1317V588.667C1317 484.47 1401.47 400 1505.67 400Z" fill="#E5F0FC"/>
<path d="M1317 211.333H1128.33V400C1128.33 295.803 1212.8 211.333 1317 211.333Z" fill="#E5F0FC"/>
<path d="M1505.67 211.333H1317V400C1317 295.803 1401.47 211.333 1505.67 211.333Z" fill="#E5F0FC"/>
<path d="M1317 400H1128.33V588.667C1128.33 484.47 1212.8 400 1317 400Z" fill="#E5F0FC"/>
<path d="M1317 588.667H1505.67V400C1401.47 400 1317 484.468 1317 588.667Z" fill="#121619"/>
<path d="M1317 588.667V400C1212.8 400 1128.33 484.468 1128.33 588.667H1317Z" fill="#121619"/>
<path d="M1317 400H1505.67V211.333C1401.47 211.333 1317 295.802 1317 400Z" fill="#121619"/>
<path d="M1317 400V211.333C1212.8 211.333 1128.33 295.802 1128.33 400H1317Z" fill="#121619"/>
<path d="M373.667 588.667H-3.6665V966H373.667V588.667Z" fill="#21272A"/>
<path d="M-3.6665 588.667C73.0848 664.068 129.972 714.444 185 714.444C240.028 714.444 297.187 667.011 373.667 588.667H-3.6665Z" fill="#E5F0FC"/>
<path d="M373.667 588.667C298.266 665.418 247.89 722.305 247.89 777.333C247.89 832.361 295.323 889.52 373.667 966V588.667Z" fill="#E5F0FC"/>
<path d="M-3.6665 966C71.7346 889.249 122.111 832.361 122.111 777.333C122.111 722.305 74.678 665.146 -3.6665 588.667V966Z" fill="#E5F0FC"/>
<path d="M373.667 966C296.916 890.599 240.028 840.222 185 840.222C129.972 840.222 72.8129 887.655 -3.6665 966H373.667Z" fill="#E5F0FC"/>
<path d="M751 588.667H373.667V966H751V588.667Z" fill="#36527C"/>
<path d="M560.381 934.29C527.265 934.298 494.731 925.584 466.053 909.024C437.375 892.464 413.564 868.643 397.017 839.957H723.745C707.197 868.642 683.387 892.464 654.709 909.023C626.03 925.583 593.497 934.298 560.381 934.29Z" fill="#A5CCF7"/>
<path d="M466.048 808.512C500.78 808.512 528.937 780.356 528.937 745.623C528.937 710.891 500.78 682.734 466.048 682.734C431.315 682.734 403.159 710.891 403.159 745.623C403.159 780.356 431.315 808.512 466.048 808.512Z" fill="#A5CCF7"/>
<path d="M1128.33 588.667H751V966H1128.33V588.667Z" fill="#A5CCF7"/>
<path d="M971.112 785.194C975.453 785.194 978.973 781.675 978.973 777.333C978.973 772.992 975.453 769.472 971.112 769.472C966.77 769.472 963.25 772.992 963.25 777.333C963.25 781.675 966.77 785.194 971.112 785.194Z" fill="#121619"/>
<path d="M1002.56 785.194C1006.9 785.194 1010.42 781.675 1010.42 777.333C1010.42 772.992 1006.9 769.472 1002.56 769.472C998.214 769.472 994.695 772.992 994.695 777.333C994.695 781.675 998.214 785.194 1002.56 785.194Z" fill="#121619"/>
<path d="M1034 785.194C1038.34 785.194 1041.86 781.675 1041.86 777.333C1041.86 772.992 1038.34 769.472 1034 769.472C1029.66 769.472 1026.14 772.992 1026.14 777.333C1026.14 781.675 1029.66 785.194 1034 785.194Z" fill="#121619"/>
<path d="M1065.44 785.194C1069.79 785.194 1073.31 781.675 1073.31 777.333C1073.31 772.992 1069.79 769.472 1065.44 769.472C1061.1 769.472 1057.58 772.992 1057.58 777.333C1057.58 781.675 1061.1 785.194 1065.44 785.194Z" fill="#121619"/>
<path d="M1096.89 785.194C1101.23 785.194 1104.75 781.675 1104.75 777.333C1104.75 772.992 1101.23 769.472 1096.89 769.472C1092.55 769.472 1089.03 772.992 1089.03 777.333C1089.03 781.675 1092.55 785.194 1096.89 785.194Z" fill="#121619"/>
<path d="M782.445 785.194C786.786 785.194 790.306 781.675 790.306 777.333C790.306 772.992 786.786 769.472 782.445 769.472C778.103 769.472 774.583 772.992 774.583 777.333C774.583 781.675 778.103 785.194 782.445 785.194Z" fill="#121619"/>
<path d="M813.889 785.194C818.23 785.194 821.75 781.675 821.75 777.333C821.75 772.992 818.23 769.472 813.889 769.472C809.547 769.472 806.028 772.992 806.028 777.333C806.028 781.675 809.547 785.194 813.889 785.194Z" fill="#121619"/>
<path d="M845.334 785.194C849.676 785.194 853.196 781.675 853.196 777.333C853.196 772.992 849.676 769.472 845.334 769.472C840.993 769.472 837.473 772.992 837.473 777.333C837.473 781.675 840.993 785.194 845.334 785.194Z" fill="#121619"/>
<path d="M876.779 785.194C881.12 785.194 884.64 781.675 884.64 777.333C884.64 772.992 881.12 769.472 876.779 769.472C872.437 769.472 868.917 772.992 868.917 777.333C868.917 781.675 872.437 785.194 876.779 785.194Z" fill="#121619"/>
<path d="M908.223 785.194C912.564 785.194 916.084 781.675 916.084 777.333C916.084 772.992 912.564 769.472 908.223 769.472C903.881 769.472 900.362 772.992 900.362 777.333C900.362 781.675 903.881 785.194 908.223 785.194Z" fill="#121619"/>
<path d="M939.668 816.639C944.009 816.639 947.529 813.119 947.529 808.778C947.529 804.436 944.009 800.917 939.668 800.917C935.326 800.917 931.806 804.436 931.806 808.778C931.806 813.119 935.326 816.639 939.668 816.639Z" fill="#121619"/>
<path d="M939.668 785.194C944.009 785.194 947.529 781.675 947.529 777.333C947.529 772.992 944.009 769.472 939.668 769.472C935.326 769.472 931.806 772.992 931.806 777.333C931.806 781.675 935.326 785.194 939.668 785.194Z" fill="#121619"/>
<path d="M978.973 824.5C983.314 824.5 986.834 820.981 986.834 816.639C986.834 812.297 983.314 808.778 978.973 808.778C974.631 808.778 971.112 812.297 971.112 816.639C971.112 820.981 974.631 824.5 978.973 824.5Z" fill="#121619"/>
<path d="M1002.56 848.083C1006.9 848.083 1010.42 844.564 1010.42 840.222C1010.42 835.88 1006.9 832.361 1002.56 832.361C998.214 832.361 994.695 835.88 994.695 840.222C994.695 844.564 998.214 848.083 1002.56 848.083Z" fill="#121619"/>
<path d="M1026.14 871.667C1030.48 871.667 1034 868.147 1034 863.805C1034 859.464 1030.48 855.944 1026.14 855.944C1021.8 855.944 1018.28 859.464 1018.28 863.805C1018.28 868.147 1021.8 871.667 1026.14 871.667Z" fill="#121619"/>
<path d="M1049.72 895.25C1054.06 895.25 1057.58 891.731 1057.58 887.389C1057.58 883.047 1054.06 879.528 1049.72 879.528C1045.38 879.528 1041.86 883.047 1041.86 887.389C1041.86 891.731 1045.38 895.25 1049.72 895.25Z" fill="#121619"/>
<path d="M900.362 824.5C904.703 824.5 908.223 820.981 908.223 816.639C908.223 812.297 904.703 808.778 900.362 808.778C896.02 808.778 892.5 812.297 892.5 816.639C892.5 820.981 896.02 824.5 900.362 824.5Z" fill="#121619"/>
<path d="M876.779 848.083C881.12 848.083 884.64 844.564 884.64 840.222C884.64 835.88 881.12 832.361 876.779 832.361C872.437 832.361 868.917 835.88 868.917 840.222C868.917 844.564 872.437 848.083 876.779 848.083Z" fill="#121619"/>
<path d="M853.195 871.667C857.536 871.667 861.056 868.147 861.056 863.805C861.056 859.464 857.536 855.944 853.195 855.944C848.853 855.944 845.333 859.464 845.333 863.805C845.333 868.147 848.853 871.667 853.195 871.667Z" fill="#121619"/>
<path d="M829.612 895.25C833.953 895.25 837.473 891.731 837.473 887.389C837.473 883.047 833.953 879.528 829.612 879.528C825.27 879.528 821.75 883.047 821.75 887.389C821.75 891.731 825.27 895.25 829.612 895.25Z" fill="#121619"/>
<path d="M900.362 745.889C904.703 745.889 908.223 742.369 908.223 738.028C908.223 733.686 904.703 730.167 900.362 730.167C896.02 730.167 892.5 733.686 892.5 738.028C892.5 742.369 896.02 745.889 900.362 745.889Z" fill="#121619"/>
<path d="M876.779 722.305C881.12 722.305 884.64 718.786 884.64 714.444C884.64 710.103 881.12 706.583 876.779 706.583C872.437 706.583 868.917 710.103 868.917 714.444C868.917 718.786 872.437 722.305 876.779 722.305Z" fill="#121619"/>
<path d="M853.195 698.722C857.536 698.722 861.056 695.203 861.056 690.861C861.056 686.52 857.536 683 853.195 683C848.853 683 845.333 686.52 845.333 690.861C845.333 695.203 848.853 698.722 853.195 698.722Z" fill="#121619"/>
<path d="M829.612 675.139C833.953 675.139 837.473 671.619 837.473 667.278C837.473 662.936 833.953 659.417 829.612 659.417C825.27 659.417 821.75 662.936 821.75 667.278C821.75 671.619 825.27 675.139 829.612 675.139Z" fill="#121619"/>
<path d="M978.973 745.889C983.314 745.889 986.834 742.369 986.834 738.028C986.834 733.686 983.314 730.167 978.973 730.167C974.631 730.167 971.112 733.686 971.112 738.028C971.112 742.369 974.631 745.889 978.973 745.889Z" fill="#121619"/>
<path d="M1002.56 722.305C1006.9 722.305 1010.42 718.786 1010.42 714.444C1010.42 710.103 1006.9 706.583 1002.56 706.583C998.214 706.583 994.695 710.103 994.695 714.444C994.695 718.786 998.214 722.305 1002.56 722.305Z" fill="#121619"/>
<path d="M1026.14 698.722C1030.48 698.722 1034 695.203 1034 690.861C1034 686.52 1030.48 683 1026.14 683C1021.8 683 1018.28 686.52 1018.28 690.861C1018.28 695.203 1021.8 698.722 1026.14 698.722Z" fill="#121619"/>
<path d="M1049.72 675.139C1054.06 675.139 1057.58 671.619 1057.58 667.278C1057.58 662.936 1054.06 659.417 1049.72 659.417C1045.38 659.417 1041.86 662.936 1041.86 667.278C1041.86 671.619 1045.38 675.139 1049.72 675.139Z" fill="#121619"/>
<path d="M939.668 848.083C944.009 848.083 947.529 844.564 947.529 840.222C947.529 835.88 944.009 832.361 939.668 832.361C935.326 832.361 931.806 835.88 931.806 840.222C931.806 844.564 935.326 848.083 939.668 848.083Z" fill="#121619"/>
<path d="M939.668 879.527C944.009 879.527 947.529 876.008 947.529 871.666C947.529 867.325 944.009 863.805 939.668 863.805C935.326 863.805 931.806 867.325 931.806 871.666C931.806 876.008 935.326 879.527 939.668 879.527Z" fill="#121619"/>
<path d="M939.668 910.972C944.009 910.972 947.529 907.453 947.529 903.111C947.529 898.77 944.009 895.25 939.668 895.25C935.326 895.25 931.806 898.77 931.806 903.111C931.806 907.453 935.326 910.972 939.668 910.972Z" fill="#121619"/>
<path d="M939.668 627.972C944.009 627.972 947.529 624.453 947.529 620.111C947.529 615.77 944.009 612.25 939.668 612.25C935.326 612.25 931.806 615.77 931.806 620.111C931.806 624.453 935.326 627.972 939.668 627.972Z" fill="#121619"/>
<path d="M939.668 659.417C944.009 659.417 947.529 655.897 947.529 651.555C947.529 647.214 944.009 643.694 939.668 643.694C935.326 643.694 931.806 647.214 931.806 651.555C931.806 655.897 935.326 659.417 939.668 659.417Z" fill="#121619"/>
<path d="M939.668 690.861C944.009 690.861 947.529 687.341 947.529 683C947.529 678.658 944.009 675.139 939.668 675.139C935.326 675.139 931.806 678.658 931.806 683C931.806 687.341 935.326 690.861 939.668 690.861Z" fill="#121619"/>
<path d="M939.668 722.305C944.009 722.305 947.529 718.786 947.529 714.444C947.529 710.103 944.009 706.583 939.668 706.583C935.326 706.583 931.806 710.103 931.806 714.444C931.806 718.786 935.326 722.305 939.668 722.305Z" fill="#121619"/>
<path d="M939.668 753.75C944.009 753.75 947.529 750.231 947.529 745.889C947.529 741.547 944.009 738.028 939.668 738.028C935.326 738.028 931.806 741.547 931.806 745.889C931.806 750.231 935.326 753.75 939.668 753.75Z" fill="#121619"/>
<path d="M1317 588.667H1128.33L1222.67 683L1317 588.667Z" fill="#E5F0FC"/>
<path d="M1128.33 588.667V777.333L1222.67 683L1128.33 588.667Z" fill="#21272A"/>
<path d="M1317 683V588.667L1222.67 683H1317Z" fill="#21272A"/>
<path d="M1317 730.167V683L1269.83 730.167H1317Z" fill="#21272A"/>
<path d="M1317 683H1222.67L1269.83 730.167L1317 683Z" fill="#E5F0FC"/>
<path d="M1269.83 730.167L1222.67 777.333H1269.83V730.167Z" fill="#E5F0FC"/>
<path d="M1222.67 683L1128.33 777.333H1222.67V683Z" fill="#E5F0FC"/>
<path d="M1222.67 683V777.333L1269.83 730.167L1222.67 683Z" fill="#21272A"/>
<path d="M1128.33 966H1317L1222.67 871.667L1128.33 966Z" fill="#21272A"/>
<path d="M1128.33 777.333V966L1222.67 871.666L1128.33 777.333Z" fill="#E5F0FC"/>
<path d="M1222.67 871.667L1317 966V871.667H1222.67Z" fill="#E5F0FC"/>
<path d="M1269.83 824.5L1317 871.667V824.5H1269.83Z" fill="#E5F0FC"/>
<path d="M1222.67 871.667H1317L1269.83 824.5L1222.67 871.667Z" fill="#21272A"/>
<path d="M1269.83 777.333H1222.67L1269.83 824.5V777.333Z" fill="#21272A"/>
<path d="M1222.67 777.333H1128.33L1222.67 871.666V777.333Z" fill="#21272A"/>
<path d="M1222.67 777.333V871.666L1269.83 824.5L1222.67 777.333Z" fill="#E5F0FC"/>
<path d="M1411.33 871.667L1317 966H1505.67L1411.33 871.667Z" fill="#E5F0FC"/>
<path d="M1505.67 966V777.333L1411.33 871.666L1505.67 966Z" fill="#21272A"/>
<path d="M1317 871.667V966L1411.33 871.667H1317Z" fill="#21272A"/>
<path d="M1317 824.5V871.667L1364.17 824.5H1317Z" fill="#21272A"/>
<path d="M1317 871.667H1411.33L1364.17 824.5L1317 871.667Z" fill="#E5F0FC"/>
<path d="M1364.17 824.5L1411.33 777.333H1364.17V824.5Z" fill="#E5F0FC"/>
<path d="M1411.33 871.666L1505.67 777.333H1411.33V871.666Z" fill="#E5F0FC"/>
<path d="M1364.17 824.5L1411.33 871.666V777.333L1364.17 824.5Z" fill="#21272A"/>
<path d="M1505.67 588.667H1317L1411.33 683L1505.67 588.667Z" fill="#21272A"/>
<path d="M1505.67 777.333V588.667L1411.33 683L1505.67 777.333Z" fill="#E5F0FC"/>
<path d="M1411.33 683L1317 588.667V683H1411.33Z" fill="#E5F0FC"/>
<path d="M1364.17 730.167L1317 683V730.167H1364.17Z" fill="#E5F0FC"/>
<path d="M1411.33 683H1317L1364.17 730.167L1411.33 683Z" fill="#21272A"/>
<path d="M1364.17 777.333H1411.33L1364.17 730.167V777.333Z" fill="#21272A"/>
<path d="M1411.33 777.333H1505.67L1411.33 683V777.333Z" fill="#21272A"/>
<path d="M1411.33 777.333V683L1364.17 730.167L1411.33 777.333Z" fill="#E5F0FC"/>
<path d="M1317 730.167H1269.83L1317 777.333V730.167Z" fill="#E5F0FC"/>
<path d="M1269.83 730.167V777.333H1317L1269.83 730.167Z" fill="#21272A"/>
<path d="M1269.83 824.5H1317V777.333L1269.83 824.5Z" fill="#21272A"/>
<path d="M1269.83 777.333V824.5L1317 777.333H1269.83Z" fill="#E5F0FC"/>
<path d="M1317 824.5H1364.17L1317 777.333V824.5Z" fill="#E5F0FC"/>
<path d="M1317 777.333L1364.17 824.5V777.333H1317Z" fill="#21272A"/>
<path d="M1364.17 730.167H1317V777.333L1364.17 730.167Z" fill="#21272A"/>
<path d="M1364.17 777.333V730.167L1317 777.333H1364.17Z" fill="#E5F0FC"/>
</g>
</g>
<defs>
<clipPath id="clip0_550_21483">
<path d="M0 0H1492V820C1492 875.229 1447.23 920 1392 920H0V0Z" fill="white"/>
</clipPath>
<clipPath id="clip1_550_21483">
<rect width="2309" height="1132" fill="white" transform="translate(-381 -166)"/>
</clipPath>
</defs>
</svg>
