<svg width="2560" height="920" viewBox="0 0 2560 920" fill="none" xmlns="http://www.w3.org/2000/svg">
<g clip-path="url(#clip0_1054_19764)">
<path d="M0 0H1812V820C1812 875.229 1767.23 920 1712 920H0V0Z" fill="#D7E8FB"/>
<path opacity="0.1" d="M-357.547 993.84C-269.473 986.818 -42.3113 944.186 161.746 829.833C416.819 686.893 260.705 423.392 545.786 263.635C830.867 103.878 1042.53 426.303 1379.06 237.718C1715.58 49.133 1597.5 -153.049 1893.3 -318.812" stroke="#0471E9"/>
<path opacity="0.1" d="M1973.46 354.497C1640.18 407.204 1456.33 156.623 1142.69 196.554C788.205 241.685 812.436 607.17 408.53 667.721C112.33 712.126 4.12911 393.43 -391.236 450.327" stroke="#0471E9" stroke-dasharray="3 3"/>
<circle opacity="0.1" cx="1239" cy="193" r="5" fill="#0471E9"/>
<circle opacity="0.1" cx="1650" cy="319" r="5" fill="#0471E9"/>
<circle opacity="0.1" cx="641" cy="226" r="5" fill="#0471E9"/>
<circle opacity="0.1" cx="698" cy="461" r="5" fill="#0471E9"/>
</g>
<defs>
<clipPath id="clip0_1054_19764">
<path d="M0 0H1812V820C1812 875.229 1767.23 920 1712 920H0V0Z" fill="white"/>
</clipPath>
</defs>
</svg>
