<svg width="1492" height="901" viewBox="0 0 1492 901" fill="none" xmlns="http://www.w3.org/2000/svg">
<g clip-path="url(#clip0_550_31564)">
<path d="M0 0H1492V800.204C1492 855.433 1447.23 900.204 1392 900.204H0V0Z" fill="#F3F6FB"/>
<rect opacity="0.4" x="466" y="-594" width="938" height="938" rx="469" fill="#EBEFF5"/>
<rect opacity="0.4" x="-124" y="606" width="938" height="938" rx="469" fill="#EBEFF5"/>
<g opacity="0.4" filter="url(#filter0_d_550_31564)">
<rect x="-174" y="228" width="300" height="300" rx="150" fill="#EBEFF5"/>
</g>
<g opacity="0.73" filter="url(#filter1_d_550_31564)">
<rect x="-174" y="168" width="300" height="300" rx="150" fill="url(#paint0_linear_550_31564)"/>
</g>
<g opacity="0.73" filter="url(#filter2_d_550_31564)">
<path fill-rule="evenodd" clip-rule="evenodd" d="M138.901 583.099C114.103 607.897 114.103 648.103 138.901 672.901C163.7 697.7 203.906 697.7 228.704 672.901C229.058 672.547 229.408 672.189 229.752 671.828L139.974 582.05C139.613 582.395 139.256 582.744 138.901 583.099Z" fill="url(#paint1_linear_550_31564)"/>
</g>
<g opacity="0.73" filter="url(#filter3_d_550_31564)">
<path fill-rule="evenodd" clip-rule="evenodd" d="M1500.86 450.704C1525.66 425.905 1525.66 385.699 1500.86 360.901C1476.07 336.103 1435.86 336.103 1411.06 360.901C1410.71 361.256 1410.36 361.613 1410.01 361.974L1499.79 451.752C1500.15 451.408 1500.51 451.058 1500.86 450.704Z" fill="url(#paint2_linear_550_31564)"/>
</g>
<path opacity="0.73" d="M1240.94 -277.937C1260.85 -297.854 1293.15 -297.854 1313.06 -277.937L1554.94 -36.0623C1574.85 -16.1456 1574.85 16.1458 1554.94 36.0626L1313.06 277.938C1293.15 297.854 1260.85 297.854 1240.94 277.938L999.062 36.0625C979.146 16.1458 979.146 -16.1456 999.062 -36.0623L1240.94 -277.937Z" fill="url(#paint3_linear_550_31564)"/>
<g opacity="0.73" filter="url(#filter4_d_550_31564)">
<path d="M1186.93 669.646L1238.28 861.28L1046.64 809.931L1186.93 669.646Z" fill="url(#paint4_linear_550_31564)"/>
</g>
</g>
<defs>
<filter id="filter0_d_550_31564" x="-218" y="208" width="388" height="388" filterUnits="userSpaceOnUse" color-interpolation-filters="sRGB">
<feFlood flood-opacity="0" result="BackgroundImageFix"/>
<feColorMatrix in="SourceAlpha" type="matrix" values="0 0 0 0 0 0 0 0 0 0 0 0 0 0 0 0 0 0 127 0" result="hardAlpha"/>
<feOffset dy="24"/>
<feGaussianBlur stdDeviation="22"/>
<feComposite in2="hardAlpha" operator="out"/>
<feColorMatrix type="matrix" values="0 0 0 0 1 0 0 0 0 0 0 0 0 0 0 0 0 0 0.15 0"/>
<feBlend mode="normal" in2="BackgroundImageFix" result="effect1_dropShadow_550_31564"/>
<feBlend mode="normal" in="SourceGraphic" in2="effect1_dropShadow_550_31564" result="shape"/>
</filter>
<filter id="filter1_d_550_31564" x="-218" y="148" width="388" height="388" filterUnits="userSpaceOnUse" color-interpolation-filters="sRGB">
<feFlood flood-opacity="0" result="BackgroundImageFix"/>
<feColorMatrix in="SourceAlpha" type="matrix" values="0 0 0 0 0 0 0 0 0 0 0 0 0 0 0 0 0 0 127 0" result="hardAlpha"/>
<feOffset dy="24"/>
<feGaussianBlur stdDeviation="22"/>
<feComposite in2="hardAlpha" operator="out"/>
<feColorMatrix type="matrix" values="0 0 0 0 1 0 0 0 0 0 0 0 0 0 0 0 0 0 0.15 0"/>
<feBlend mode="normal" in2="BackgroundImageFix" result="effect1_dropShadow_550_31564"/>
<feBlend mode="normal" in="SourceGraphic" in2="effect1_dropShadow_550_31564" result="shape"/>
</filter>
<filter id="filter2_d_550_31564" x="96.3008" y="582.05" width="157.453" height="157.45" filterUnits="userSpaceOnUse" color-interpolation-filters="sRGB">
<feFlood flood-opacity="0" result="BackgroundImageFix"/>
<feColorMatrix in="SourceAlpha" type="matrix" values="0 0 0 0 0 0 0 0 0 0 0 0 0 0 0 0 0 0 127 0" result="hardAlpha"/>
<feOffset dy="24"/>
<feGaussianBlur stdDeviation="12"/>
<feComposite in2="hardAlpha" operator="out"/>
<feColorMatrix type="matrix" values="0 0 0 0 1 0 0 0 0 0.36 0 0 0 0 0 0 0 0 0.15 0"/>
<feBlend mode="normal" in2="BackgroundImageFix" result="effect1_dropShadow_550_31564"/>
<feBlend mode="normal" in="SourceGraphic" in2="effect1_dropShadow_550_31564" result="shape"/>
</filter>
<filter id="filter3_d_550_31564" x="1386.01" y="342.302" width="157.453" height="157.45" filterUnits="userSpaceOnUse" color-interpolation-filters="sRGB">
<feFlood flood-opacity="0" result="BackgroundImageFix"/>
<feColorMatrix in="SourceAlpha" type="matrix" values="0 0 0 0 0 0 0 0 0 0 0 0 0 0 0 0 0 0 127 0" result="hardAlpha"/>
<feOffset dy="24"/>
<feGaussianBlur stdDeviation="12"/>
<feComposite in2="hardAlpha" operator="out"/>
<feColorMatrix type="matrix" values="0 0 0 0 0.68 0 0 0 0 0 0 0 0 0 1 0 0 0 0.15 0"/>
<feBlend mode="normal" in2="BackgroundImageFix" result="effect1_dropShadow_550_31564"/>
<feBlend mode="normal" in="SourceGraphic" in2="effect1_dropShadow_550_31564" result="shape"/>
</filter>
<filter id="filter4_d_550_31564" x="1002.64" y="649.646" width="279.633" height="279.634" filterUnits="userSpaceOnUse" color-interpolation-filters="sRGB">
<feFlood flood-opacity="0" result="BackgroundImageFix"/>
<feColorMatrix in="SourceAlpha" type="matrix" values="0 0 0 0 0 0 0 0 0 0 0 0 0 0 0 0 0 0 127 0" result="hardAlpha"/>
<feOffset dy="24"/>
<feGaussianBlur stdDeviation="22"/>
<feComposite in2="hardAlpha" operator="out"/>
<feColorMatrix type="matrix" values="0 0 0 0 0 0 0 0 0 0.22 0 0 0 0 1 0 0 0 0.13 0"/>
<feBlend mode="normal" in2="BackgroundImageFix" result="effect1_dropShadow_550_31564"/>
<feBlend mode="normal" in="SourceGraphic" in2="effect1_dropShadow_550_31564" result="shape"/>
</filter>
<linearGradient id="paint0_linear_550_31564" x1="-24" y1="168" x2="-24" y2="468" gradientUnits="userSpaceOnUse">
<stop stop-color="#FF717E"/>
<stop offset="1" stop-color="#FF7CB0"/>
</linearGradient>
<linearGradient id="paint1_linear_550_31564" x1="138.901" y1="583.099" x2="228.704" y2="672.901" gradientUnits="userSpaceOnUse">
<stop stop-color="#FFF171"/>
<stop offset="1" stop-color="#FFBB7C"/>
</linearGradient>
<linearGradient id="paint2_linear_550_31564" x1="1500.86" y1="450.704" x2="1411.06" y2="360.901" gradientUnits="userSpaceOnUse">
<stop stop-color="#C171FF"/>
<stop offset="1" stop-color="#7F7CFF"/>
</linearGradient>
<linearGradient id="paint3_linear_550_31564" x1="1115.12" y1="62.77" x2="1041.29" y2="318.518" gradientUnits="userSpaceOnUse">
<stop stop-color="#67CAE9"/>
<stop offset="1" stop-color="#7AEEA8"/>
</linearGradient>
<linearGradient id="paint4_linear_550_31564" x1="1116" y1="806" x2="1222.38" y2="842.336" gradientUnits="userSpaceOnUse">
<stop stop-color="#71D4FF"/>
<stop offset="1" stop-color="#7CC0FF"/>
</linearGradient>
<clipPath id="clip0_550_31564">
<path d="M0 0H1492V800.204C1492 855.433 1447.23 900.204 1392 900.204H0V0Z" fill="white"/>
</clipPath>
</defs>
</svg>
