<svg width="2560" height="920" viewBox="0 0 2560 920" fill="none" xmlns="http://www.w3.org/2000/svg">
<g clip-path="url(#clip0_1054_20304)">
<rect width="2560" height="920" fill="white"/>
<g clip-path="url(#clip1_1054_20304)">
<path d="M0 0H1812V821C1812 876.229 1767.23 921 1712 921H0V0Z" fill="#F3F6FB"/>
<rect opacity="0.4" x="777" y="-594" width="938" height="938" rx="469" fill="#EBEFF5"/>
<rect opacity="0.4" x="187" y="606" width="938" height="938" rx="469" fill="#EBEFF5"/>
<g opacity="0.4" filter="url(#filter0_d_1054_20304)">
<rect x="137" y="228" width="300" height="300" rx="150" fill="#EBEFF5"/>
</g>
<g opacity="0.73" filter="url(#filter1_d_1054_20304)">
<rect x="137" y="168" width="300" height="300" rx="150" fill="url(#paint0_linear_1054_20304)"/>
</g>
<g opacity="0.73" filter="url(#filter2_d_1054_20304)">
<path fill-rule="evenodd" clip-rule="evenodd" d="M449.901 583.099C425.103 607.897 425.103 648.103 449.901 672.901C474.7 697.7 514.906 697.7 539.704 672.901C540.058 672.547 540.408 672.189 540.752 671.828L450.974 582.05C450.613 582.395 450.256 582.744 449.901 583.099Z" fill="url(#paint1_linear_1054_20304)"/>
</g>
<g opacity="0.73" filter="url(#filter3_d_1054_20304)">
<path fill-rule="evenodd" clip-rule="evenodd" d="M1811.86 450.704C1836.66 425.906 1836.66 385.7 1811.86 360.901C1787.07 336.103 1746.86 336.103 1722.06 360.901C1721.71 361.256 1721.36 361.614 1721.01 361.974L1810.79 451.752C1811.15 451.408 1811.51 451.059 1811.86 450.704Z" fill="url(#paint2_linear_1054_20304)"/>
</g>
<path opacity="0.73" d="M1551.94 -277.937C1571.85 -297.854 1604.15 -297.854 1624.06 -277.937L1865.94 -36.0623C1885.85 -16.1456 1885.85 16.1458 1865.94 36.0626L1624.06 277.938C1604.15 297.854 1571.85 297.854 1551.94 277.938L1310.06 36.0625C1290.15 16.1458 1290.15 -16.1456 1310.06 -36.0623L1551.94 -277.937Z" fill="url(#paint3_linear_1054_20304)"/>
<g opacity="0.73" filter="url(#filter4_d_1054_20304)">
<path d="M1497.93 669.646L1549.28 861.279L1357.64 809.931L1497.93 669.646Z" fill="url(#paint4_linear_1054_20304)"/>
</g>
</g>
</g>
<defs>
<filter id="filter0_d_1054_20304" x="93" y="208" width="388" height="388" filterUnits="userSpaceOnUse" color-interpolation-filters="sRGB">
<feFlood flood-opacity="0" result="BackgroundImageFix"/>
<feColorMatrix in="SourceAlpha" type="matrix" values="0 0 0 0 0 0 0 0 0 0 0 0 0 0 0 0 0 0 127 0" result="hardAlpha"/>
<feOffset dy="24"/>
<feGaussianBlur stdDeviation="22"/>
<feComposite in2="hardAlpha" operator="out"/>
<feColorMatrix type="matrix" values="0 0 0 0 1 0 0 0 0 0 0 0 0 0 0 0 0 0 0.15 0"/>
<feBlend mode="normal" in2="BackgroundImageFix" result="effect1_dropShadow_1054_20304"/>
<feBlend mode="normal" in="SourceGraphic" in2="effect1_dropShadow_1054_20304" result="shape"/>
</filter>
<filter id="filter1_d_1054_20304" x="93" y="148" width="388" height="388" filterUnits="userSpaceOnUse" color-interpolation-filters="sRGB">
<feFlood flood-opacity="0" result="BackgroundImageFix"/>
<feColorMatrix in="SourceAlpha" type="matrix" values="0 0 0 0 0 0 0 0 0 0 0 0 0 0 0 0 0 0 127 0" result="hardAlpha"/>
<feOffset dy="24"/>
<feGaussianBlur stdDeviation="22"/>
<feComposite in2="hardAlpha" operator="out"/>
<feColorMatrix type="matrix" values="0 0 0 0 1 0 0 0 0 0 0 0 0 0 0 0 0 0 0.15 0"/>
<feBlend mode="normal" in2="BackgroundImageFix" result="effect1_dropShadow_1054_20304"/>
<feBlend mode="normal" in="SourceGraphic" in2="effect1_dropShadow_1054_20304" result="shape"/>
</filter>
<filter id="filter2_d_1054_20304" x="407.303" y="582.051" width="157.449" height="157.449" filterUnits="userSpaceOnUse" color-interpolation-filters="sRGB">
<feFlood flood-opacity="0" result="BackgroundImageFix"/>
<feColorMatrix in="SourceAlpha" type="matrix" values="0 0 0 0 0 0 0 0 0 0 0 0 0 0 0 0 0 0 127 0" result="hardAlpha"/>
<feOffset dy="24"/>
<feGaussianBlur stdDeviation="12"/>
<feComposite in2="hardAlpha" operator="out"/>
<feColorMatrix type="matrix" values="0 0 0 0 1 0 0 0 0 0.36 0 0 0 0 0 0 0 0 0.15 0"/>
<feBlend mode="normal" in2="BackgroundImageFix" result="effect1_dropShadow_1054_20304"/>
<feBlend mode="normal" in="SourceGraphic" in2="effect1_dropShadow_1054_20304" result="shape"/>
</filter>
<filter id="filter3_d_1054_20304" x="1697.01" y="342.303" width="157.449" height="157.449" filterUnits="userSpaceOnUse" color-interpolation-filters="sRGB">
<feFlood flood-opacity="0" result="BackgroundImageFix"/>
<feColorMatrix in="SourceAlpha" type="matrix" values="0 0 0 0 0 0 0 0 0 0 0 0 0 0 0 0 0 0 127 0" result="hardAlpha"/>
<feOffset dy="24"/>
<feGaussianBlur stdDeviation="12"/>
<feComposite in2="hardAlpha" operator="out"/>
<feColorMatrix type="matrix" values="0 0 0 0 0.68 0 0 0 0 0 0 0 0 0 1 0 0 0 0.15 0"/>
<feBlend mode="normal" in2="BackgroundImageFix" result="effect1_dropShadow_1054_20304"/>
<feBlend mode="normal" in="SourceGraphic" in2="effect1_dropShadow_1054_20304" result="shape"/>
</filter>
<filter id="filter4_d_1054_20304" x="1313.64" y="649.646" width="279.634" height="279.634" filterUnits="userSpaceOnUse" color-interpolation-filters="sRGB">
<feFlood flood-opacity="0" result="BackgroundImageFix"/>
<feColorMatrix in="SourceAlpha" type="matrix" values="0 0 0 0 0 0 0 0 0 0 0 0 0 0 0 0 0 0 127 0" result="hardAlpha"/>
<feOffset dy="24"/>
<feGaussianBlur stdDeviation="22"/>
<feComposite in2="hardAlpha" operator="out"/>
<feColorMatrix type="matrix" values="0 0 0 0 0 0 0 0 0 0.22 0 0 0 0 1 0 0 0 0.13 0"/>
<feBlend mode="normal" in2="BackgroundImageFix" result="effect1_dropShadow_1054_20304"/>
<feBlend mode="normal" in="SourceGraphic" in2="effect1_dropShadow_1054_20304" result="shape"/>
</filter>
<linearGradient id="paint0_linear_1054_20304" x1="287" y1="168" x2="287" y2="468" gradientUnits="userSpaceOnUse">
<stop stop-color="#FF717E"/>
<stop offset="1" stop-color="#FF7CB0"/>
</linearGradient>
<linearGradient id="paint1_linear_1054_20304" x1="449.901" y1="583.099" x2="539.704" y2="672.901" gradientUnits="userSpaceOnUse">
<stop stop-color="#FFF171"/>
<stop offset="1" stop-color="#FFBB7C"/>
</linearGradient>
<linearGradient id="paint2_linear_1054_20304" x1="1811.86" y1="450.704" x2="1722.06" y2="360.901" gradientUnits="userSpaceOnUse">
<stop stop-color="#C171FF"/>
<stop offset="1" stop-color="#7F7CFF"/>
</linearGradient>
<linearGradient id="paint3_linear_1054_20304" x1="1437.01" y1="58.547" x2="1368.15" y2="297.089" gradientUnits="userSpaceOnUse">
<stop stop-color="#67CAE9"/>
<stop offset="1" stop-color="#7AEEA8"/>
</linearGradient>
<linearGradient id="paint4_linear_1054_20304" x1="1413.94" y1="812.531" x2="1501.68" y2="840.116" gradientUnits="userSpaceOnUse">
<stop stop-color="#71D4FF"/>
<stop offset="1" stop-color="#7CC0FF"/>
</linearGradient>
<clipPath id="clip0_1054_20304">
<rect width="2560" height="920" fill="white"/>
</clipPath>
<clipPath id="clip1_1054_20304">
<path d="M0 0H1812V821C1812 876.229 1767.23 921 1712 921H0V0Z" fill="white"/>
</clipPath>
</defs>
</svg>
