<svg width="1920" height="718" viewBox="0 0 1920 718" fill="none" xmlns="http://www.w3.org/2000/svg">
<g clip-path="url(#clip0_5218_13257)">
<rect width="1920" height="718" fill="url(#paint0_linear_5218_13257)" fill-opacity="0.8"/>
<path opacity="0.05" d="M675.855 277.703C666.289 272.18 654.022 275.443 648.847 285.201C597.201 382.595 575.655 493.321 587.21 603.257C599.462 719.834 648.306 829.539 726.741 916.65C805.176 1003.76 909.174 1063.8 1023.83 1088.18C1131.96 1111.16 1244.33 1101.3 1346.59 1060.12C1356.83 1055.99 1361.36 1044.14 1356.87 1034.05L1141.88 551.174C1140.16 547.315 1137.27 544.1 1133.61 541.988L675.855 277.703Z" fill="#3322FF"/>
<path opacity="0.1" d="M1552 164.844C1547.22 167.605 1545.57 173.733 1548.5 178.412C1581.13 230.42 1630.42 269.989 1688.47 290.547C1749.68 312.221 1816.61 311.345 1877.22 288.077C1937.84 264.808 1988.16 220.675 2019.14 163.615C2050.12 106.555 2059.73 40.3135 2046.23 -23.1957C2032.73 -86.705 1997.01 -143.313 1945.5 -182.839C1893.99 -222.365 1830.07 -242.214 1765.23 -238.816C1700.39 -235.418 1638.89 -208.996 1591.79 -164.302C1547.12 -121.907 1518.18 -65.7109 1509.53 -4.92953C1508.75 0.538203 1512.76 5.46373 1518.25 6.04102L1748.89 30.2824C1758.53 31.295 1761.24 44.0443 1752.85 48.8879L1552 164.844Z" fill="white"/>
</g>
<defs>
<linearGradient id="paint0_linear_5218_13257" x1="11.5" y1="-184.895" x2="1387.33" y2="1320.85" gradientUnits="userSpaceOnUse">
<stop stop-color="#F5E4FF"/>
<stop offset="0.627771" stop-color="#C7BCF9"/>
<stop offset="1" stop-color="#A0A7F1"/>
</linearGradient>
<clipPath id="clip0_5218_13257">
<rect width="1920" height="718" fill="white"/>
</clipPath>
</defs>
</svg>
