<svg width="2560" height="920" viewBox="0 0 2560 920" fill="none" xmlns="http://www.w3.org/2000/svg">
<rect width="2560" height="920" fill="white"/>
<g clip-path="url(#clip0_1054_19891)">
<path d="M0 0H1812V820C1812 875.229 1767.23 920 1712 920H0V0Z" fill="#E4DFFF"/>
<g style="mix-blend-mode:color-burn" opacity="0.03" clip-path="url(#clip1_1054_19891)">
<path d="M316.333 -166H-61V211.333H316.333V-166Z" fill="#A5CCF7"/>
<path d="M222 22.6663C222 47.6851 231.939 71.6791 249.63 89.3701C267.321 107.061 291.315 117 316.333 117V-71.667C291.315 -71.667 267.321 -61.7283 249.63 -44.0374C231.939 -26.3465 222 -2.35242 222 22.6663Z" fill="#E5F0FC"/>
<path d="M127.666 117C179.765 117 222 74.7652 222 22.6663C222 -29.4325 179.765 -71.667 127.666 -71.667C75.5675 -71.667 33.333 -29.4325 33.333 22.6663C33.333 74.7652 75.5675 117 127.666 117Z" fill="#E5F0FC"/>
<path d="M33.3333 22.6663C33.3333 -2.35242 23.3947 -26.3465 5.70374 -44.0374C-11.9872 -61.7283 -35.9812 -71.667 -61 -71.667V117C-35.9812 117 -11.9872 107.061 5.70374 89.3701C23.3947 71.6791 33.3333 47.6851 33.3333 22.6663Z" fill="#E5F0FC"/>
<path d="M222 211.333H316.333V117C291.315 117 267.321 126.939 249.63 144.63C231.939 162.321 222 186.315 222 211.333Z" fill="#E5F0FC"/>
<path d="M127.666 117C102.648 117 78.6535 126.939 60.9626 144.63C43.2717 162.321 33.333 186.315 33.333 211.333H222C222 186.315 212.061 162.321 194.37 144.63C176.679 126.939 152.685 117 127.666 117Z" fill="#E5F0FC"/>
<path d="M-61 117V211.333H33.3333C33.3333 186.315 23.3947 162.321 5.70374 144.63C-11.9872 126.939 -35.9812 117 -61 117Z" fill="#E5F0FC"/>
<path d="M693.667 -166H316.333V211.333H693.667V-166Z" fill="#121619"/>
<path d="M648.466 28.5625H644.535V158.271H648.466V28.5625Z" fill="#E5F0FC"/>
<path d="M640.604 162.201H510.896V166.132H640.604V162.201Z" fill="#E5F0FC"/>
<path d="M499.104 162.201H369.396V166.132H499.104V162.201Z" fill="#E5F0FC"/>
<path d="M365.466 28.5625H361.535V158.271H365.466V28.5625Z" fill="#E5F0FC"/>
<path d="M365.466 -112.938H361.535V16.7708H365.466V-112.938Z" fill="#E5F0FC"/>
<path d="M648.466 -112.938H644.535V16.7708H648.466V-112.938Z" fill="#E5F0FC"/>
<path d="M499.104 20.7012H369.396V24.6317H499.104V20.7012Z" fill="#E5F0FC"/>
<path d="M640.604 20.7012H510.896V24.6317H640.604V20.7012Z" fill="#E5F0FC"/>
<path d="M506.966 -112.938H503.035V16.7708H506.966V-112.938Z" fill="#E5F0FC"/>
<path d="M506.966 28.5625H503.035V158.271H506.966V28.5625Z" fill="#E5F0FC"/>
<path d="M637.249 -112.362L511.472 13.416L514.251 16.1949L640.028 -109.583L637.249 -112.362Z" fill="#E5F0FC"/>
<path d="M637.249 -112.362L511.472 13.416L514.251 16.1949L640.028 -109.583L637.249 -112.362Z" fill="#E5F0FC"/>
<path d="M495.749 -112.362L369.972 13.416L372.751 16.1949L498.528 -109.583L495.749 -112.362Z" fill="#E5F0FC"/>
<path d="M637.249 29.1382L511.472 154.916L514.251 157.695L640.028 31.9171L637.249 29.1382Z" fill="#E5F0FC"/>
<path d="M495.749 29.1382L369.972 154.916L372.751 157.695L498.528 31.9171L495.749 29.1382Z" fill="#E5F0FC"/>
<path d="M1071 -166H693.667V211.333H1071V-166Z" fill="#E5F0FC"/>
<path d="M1071 -166H693.667V211.333H1071V-166Z" fill="#A5CCF7"/>
<path d="M740.833 156.305C740.833 157.86 741.295 159.38 742.158 160.673C743.022 161.966 744.25 162.973 745.686 163.568C747.123 164.163 748.703 164.319 750.228 164.016C751.753 163.712 753.154 162.963 754.253 161.864C755.353 160.765 756.101 159.364 756.405 157.839C756.708 156.314 756.552 154.734 755.957 153.297C755.362 151.861 754.355 150.633 753.062 149.769C751.769 148.905 750.249 148.444 748.695 148.444C746.61 148.444 744.61 149.273 743.136 150.747C741.662 152.221 740.833 154.221 740.833 156.305ZM752.625 156.305C752.625 157.083 752.395 157.843 751.963 158.489C751.531 159.136 750.917 159.639 750.199 159.937C749.481 160.234 748.69 160.312 747.928 160.16C747.165 160.009 746.465 159.634 745.915 159.085C745.366 158.535 744.991 157.835 744.84 157.072C744.688 156.31 744.766 155.52 745.063 154.801C745.361 154.083 745.865 153.469 746.511 153.037C747.157 152.605 747.917 152.375 748.695 152.375C749.737 152.375 750.737 152.789 751.474 153.526C752.211 154.263 752.625 155.263 752.625 156.305Z" fill="#E5F0FC"/>
<path d="M740.833 109.138C740.833 110.693 741.295 112.213 742.158 113.506C743.022 114.799 744.25 115.806 745.686 116.401C747.123 116.996 748.703 117.152 750.228 116.849C751.753 116.545 753.154 115.797 754.253 114.697C755.353 113.598 756.101 112.197 756.405 110.672C756.708 109.147 756.552 107.567 755.957 106.13C755.362 104.694 754.355 103.466 753.062 102.602C751.769 101.738 750.249 101.277 748.695 101.277C746.61 101.277 744.61 102.106 743.136 103.58C741.662 105.054 740.833 107.054 740.833 109.138ZM752.625 109.138C752.625 109.916 752.395 110.676 751.963 111.322C751.531 111.969 750.917 112.472 750.199 112.77C749.481 113.067 748.69 113.145 747.928 112.993C747.165 112.842 746.465 112.467 745.915 111.918C745.366 111.368 744.991 110.668 744.84 109.905C744.688 109.143 744.766 108.353 745.063 107.634C745.361 106.916 745.865 106.302 746.511 105.87C747.157 105.438 747.917 105.208 748.695 105.208C749.737 105.208 750.737 105.622 751.474 106.359C752.211 107.096 752.625 108.096 752.625 109.138Z" fill="#E5F0FC"/>
<path d="M788 156.305C788 157.86 788.461 159.38 789.324 160.673C790.188 161.966 791.416 162.973 792.852 163.568C794.289 164.163 795.869 164.319 797.394 164.016C798.919 163.712 800.32 162.963 801.419 161.864C802.519 160.765 803.267 159.364 803.571 157.839C803.874 156.314 803.718 154.734 803.123 153.297C802.528 151.861 801.521 150.633 800.228 149.769C798.935 148.905 797.415 148.444 795.861 148.444C793.776 148.444 791.776 149.273 790.302 150.747C788.828 152.221 788 154.221 788 156.305ZM799.791 156.305C799.791 157.083 799.561 157.843 799.129 158.489C798.697 159.136 798.083 159.639 797.365 159.937C796.647 160.234 795.856 160.312 795.094 160.16C794.331 160.009 793.631 159.634 793.081 159.085C792.532 158.535 792.157 157.835 792.006 157.072C791.854 156.31 791.932 155.52 792.229 154.801C792.527 154.083 793.03 153.469 793.677 153.037C794.323 152.605 795.083 152.375 795.861 152.375C796.903 152.375 797.903 152.789 798.64 153.526C799.377 154.263 799.791 155.263 799.791 156.305Z" fill="#E5F0FC"/>
<path d="M1448.33 -166H1071V211.333H1448.33V-166Z" fill="#121619"/>
<path d="M1448.33 22.6667C1448.33 -81.5311 1363.86 -166 1259.67 -166C1155.47 -166 1071 -81.5311 1071 22.6667V211.333H1448.33V22.6667Z" fill="#E5F0FC"/>
<path d="M1448.33 117C1448.33 12.802 1363.86 -71.667 1259.67 -71.667C1155.47 -71.667 1071 12.802 1071 117V211.333H1448.33V117Z" fill="#36527C"/>
<path d="M1448.33 211.334C1448.33 107.136 1363.86 22.667 1259.67 22.667C1155.47 22.667 1071 107.136 1071 211.334H1448.33Z" fill="#121619"/>
<path d="M1825.67 -166H1448.33V211.333H1825.67V-166Z" fill="#121619"/>
<path d="M1707.75 -32.3613H1581.97V93.4164H1707.75V-32.3613Z" fill="#A5CCF7"/>
<path d="M1692.03 77.6948H1566.25V-48.083H1692.03V77.6948ZM1570.18 -44.1525V73.7642H1688.1V-44.1525H1570.18Z" fill="#A5CCF7"/>
<path d="M316.334 400H127.667V588.667C127.667 484.47 212.135 400 316.334 400Z" fill="#E5F0FC"/>
<path d="M127.667 211.333H-61V400C-61 295.803 23.4683 211.333 127.667 211.333Z" fill="#E5F0FC"/>
<path d="M316.334 211.333H127.667V400C127.667 295.803 212.135 211.333 316.334 211.333Z" fill="#E5F0FC"/>
<path d="M127.667 400H-61V588.667C-61 484.47 23.4683 400 127.667 400Z" fill="#E5F0FC"/>
<path d="M127.667 588.667H316.334V400C212.136 400 127.667 484.468 127.667 588.667Z" fill="#121619"/>
<path d="M127.667 588.667V400C23.4689 400 -61 484.468 -61 588.667H127.667Z" fill="#121619"/>
<path d="M127.667 400H316.334V211.333C212.136 211.333 127.667 295.801 127.667 400Z" fill="#121619"/>
<path d="M127.667 400V211.333C23.4689 211.333 -61 295.801 -61 400H127.667Z" fill="#121619"/>
<path d="M693.667 211.333H316.333V588.666H693.667V211.333Z" fill="#A5CCF7"/>
<path d="M693.667 238.847H316.333V242.777H693.667V238.847Z" fill="#121619"/>
<path d="M693.667 274.222H316.333V278.152H693.667V274.222Z" fill="#121619"/>
<path d="M693.667 309.597H316.333V313.527H693.667V309.597Z" fill="#121619"/>
<path d="M693.667 344.972H316.333V348.902H693.667V344.972Z" fill="#121619"/>
<path d="M693.667 380.347H316.333V384.277H693.667V380.347Z" fill="#121619"/>
<path d="M693.667 415.722H316.333V419.652H693.667V415.722Z" fill="#121619"/>
<path d="M693.667 451.097H316.333V455.027H693.667V451.097Z" fill="#121619"/>
<path d="M693.667 486.472H316.333V490.402H693.667V486.472Z" fill="#121619"/>
<path d="M693.667 521.847H316.333V525.777H693.667V521.847Z" fill="#121619"/>
<path d="M693.667 557.222H316.333V561.152H693.667V557.222Z" fill="#121619"/>
<path d="M347.778 211.333H343.848V588.666H347.778V211.333Z" fill="#121619"/>
<path d="M383.153 211.333H379.223V588.666H383.153V211.333Z" fill="#121619"/>
<path d="M418.528 211.333H414.598V588.666H418.528V211.333Z" fill="#121619"/>
<path d="M453.903 211.333H449.973V588.666H453.903V211.333Z" fill="#121619"/>
<path d="M489.278 211.333H485.348V588.666H489.278V211.333Z" fill="#121619"/>
<path d="M524.653 211.333H520.723V588.666H524.653V211.333Z" fill="#121619"/>
<path d="M560.028 211.333H556.098V588.666H560.028V211.333Z" fill="#121619"/>
<path d="M595.403 211.333H591.473V588.666H595.403V211.333Z" fill="#121619"/>
<path d="M630.778 211.333H626.848V588.666H630.778V211.333Z" fill="#121619"/>
<path d="M666.153 211.333H662.223V588.666H666.153V211.333Z" fill="#121619"/>
<path d="M1071 211.333H693.667V588.666H1071V211.333Z" fill="#121619"/>
<path d="M976.668 250.639V282.083H788.001L1031.7 525.778L1008.11 549.361L764.418 305.666V494.333H732.973V250.639H976.668Z" fill="#A5CCF7"/>
<path d="M1448.33 211.333H1071V588.666H1448.33V211.333Z" fill="#A5CCF7"/>
<path d="M1448.33 211.333H1401.17V541.5H1393.31V211.333H1291.11V541.5H1283.25V211.333H1181.06V541.5H1173.19V211.333H1071V588.666H1118.17V258.5H1126.03V588.666H1228.22V258.5H1236.08V588.666H1338.28V258.5H1346.14V588.666H1448.33V211.333Z" fill="#E5F0FC"/>
<path d="M1825.67 400H1637V588.667C1637 484.47 1721.47 400 1825.67 400Z" fill="#E5F0FC"/>
<path d="M1637 211.333H1448.33V400C1448.33 295.803 1532.8 211.333 1637 211.333Z" fill="#E5F0FC"/>
<path d="M1825.67 211.333H1637V400C1637 295.803 1721.47 211.333 1825.67 211.333Z" fill="#E5F0FC"/>
<path d="M1637 400H1448.33V588.667C1448.33 484.47 1532.8 400 1637 400Z" fill="#E5F0FC"/>
<path d="M1637 588.667H1825.67V400C1721.47 400 1637 484.468 1637 588.667Z" fill="#121619"/>
<path d="M1637 588.667V400C1532.8 400 1448.33 484.468 1448.33 588.667H1637Z" fill="#121619"/>
<path d="M1637 400H1825.67V211.333C1721.47 211.333 1637 295.801 1637 400Z" fill="#121619"/>
<path d="M1637 400V211.333C1532.8 211.333 1448.33 295.801 1448.33 400H1637Z" fill="#121619"/>
<path d="M127.667 588.667H-61L33.3333 683L127.667 588.667Z" fill="#E5F0FC"/>
<path d="M-61 588.667V777.334L33.3333 683L-61 588.667Z" fill="#21272A"/>
<path d="M127.666 683V588.667L33.333 683H127.666Z" fill="#21272A"/>
<path d="M127.667 730.167V683L80.5 730.167H127.667Z" fill="#21272A"/>
<path d="M127.666 683H33.333L80.4997 730.167L127.666 683Z" fill="#E5F0FC"/>
<path d="M80.4997 730.167L33.333 777.334H80.4997V730.167Z" fill="#E5F0FC"/>
<path d="M33.3333 683L-61 777.333H33.3333V683Z" fill="#E5F0FC"/>
<path d="M33.333 683V777.333L80.4997 730.167L33.333 683Z" fill="#21272A"/>
<path d="M-61 966H127.667L33.3333 871.667L-61 966Z" fill="#21272A"/>
<path d="M-61 777.334V966.001L33.3333 871.667L-61 777.334Z" fill="#E5F0FC"/>
<path d="M33.333 871.667L127.666 966V871.667H33.333Z" fill="#E5F0FC"/>
<path d="M80.5 824.5L127.667 871.667V824.5H80.5Z" fill="#E5F0FC"/>
<path d="M33.333 871.667H127.666L80.4997 824.5L33.333 871.667Z" fill="#21272A"/>
<path d="M80.4997 777.334H33.333L80.4997 824.501V777.334Z" fill="#21272A"/>
<path d="M33.3333 777.334H-61L33.3333 871.667V777.334Z" fill="#21272A"/>
<path d="M33.333 777.334V871.667L80.4997 824.501L33.333 777.334Z" fill="#E5F0FC"/>
<path d="M222 871.667L127.667 966H316.334L222 871.667Z" fill="#E5F0FC"/>
<path d="M316.333 966.001V777.334L222 871.667L316.333 966.001Z" fill="#21272A"/>
<path d="M127.667 871.667V966L222 871.667H127.667Z" fill="#21272A"/>
<path d="M127.667 824.5V871.667L174.834 824.5H127.667Z" fill="#21272A"/>
<path d="M127.667 871.667H222L174.834 824.5L127.667 871.667Z" fill="#E5F0FC"/>
<path d="M174.833 824.501L222 777.334H174.833V824.501Z" fill="#E5F0FC"/>
<path d="M222 871.667L316.333 777.334H222V871.667Z" fill="#E5F0FC"/>
<path d="M174.833 824.501L222 871.667V777.334L174.833 824.501Z" fill="#21272A"/>
<path d="M316.334 588.667H127.667L222 683L316.334 588.667Z" fill="#21272A"/>
<path d="M316.333 777.334V588.667L222 683L316.333 777.334Z" fill="#E5F0FC"/>
<path d="M222 683L127.667 588.667V683H222Z" fill="#E5F0FC"/>
<path d="M174.834 730.167L127.667 683V730.167H174.834Z" fill="#E5F0FC"/>
<path d="M222 683H127.667L174.834 730.167L222 683Z" fill="#21272A"/>
<path d="M174.833 777.334H222L174.833 730.167V777.334Z" fill="#21272A"/>
<path d="M222 777.333H316.333L222 683V777.333Z" fill="#21272A"/>
<path d="M222 777.333V683L174.833 730.167L222 777.333Z" fill="#E5F0FC"/>
<path d="M127.667 730.167H80.5L127.667 777.334V730.167Z" fill="#E5F0FC"/>
<path d="M80.5 730.167V777.334H127.667L80.5 730.167Z" fill="#21272A"/>
<path d="M80.5 824.501H127.667V777.334L80.5 824.501Z" fill="#21272A"/>
<path d="M80.5 777.334V824.501L127.667 777.334H80.5Z" fill="#E5F0FC"/>
<path d="M127.667 824.501H174.834L127.667 777.334V824.501Z" fill="#E5F0FC"/>
<path d="M127.667 777.334L174.834 824.501V777.334H127.667Z" fill="#21272A"/>
<path d="M174.834 730.167H127.667V777.334L174.834 730.167Z" fill="#21272A"/>
<path d="M174.834 777.334V730.167L127.667 777.334H174.834Z" fill="#E5F0FC"/>
<path d="M693.667 588.667H316.333V966H693.667V588.667Z" fill="#21272A"/>
<path d="M316.333 588.667C393.085 664.068 449.972 714.445 505 714.445C560.028 714.445 617.187 667.011 693.667 588.667H316.333Z" fill="#E5F0FC"/>
<path d="M693.667 588.667C618.266 665.418 567.89 722.306 567.89 777.334C567.89 832.361 615.323 889.521 693.667 966V588.667Z" fill="#E5F0FC"/>
<path d="M316.333 966C391.735 889.249 442.111 832.361 442.111 777.334C442.111 722.306 394.678 665.146 316.333 588.667V966Z" fill="#E5F0FC"/>
<path d="M693.667 966C616.916 890.599 560.028 840.223 505 840.223C449.972 840.223 392.813 887.656 316.333 966H693.667Z" fill="#E5F0FC"/>
<path d="M1071 588.667H693.667V966H1071V588.667Z" fill="#36527C"/>
<path d="M880.381 934.29C847.265 934.298 814.731 925.584 786.053 909.024C757.375 892.464 733.565 868.643 717.018 839.957H1043.74C1027.2 868.642 1003.39 892.464 974.709 909.023C946.031 925.583 913.497 934.298 880.381 934.29Z" fill="#A5CCF7"/>
<path d="M786.049 808.513C820.781 808.513 848.937 780.357 848.937 745.624C848.937 710.892 820.781 682.735 786.049 682.735C751.316 682.735 723.16 710.892 723.16 745.624C723.16 780.357 751.316 808.513 786.049 808.513Z" fill="#A5CCF7"/>
<path d="M1448.33 588.667H1071V966H1448.33V588.667Z" fill="#A5CCF7"/>
<path d="M1291.11 785.195C1295.45 785.195 1298.97 781.675 1298.97 777.334C1298.97 772.992 1295.45 769.473 1291.11 769.473C1286.77 769.473 1283.25 772.992 1283.25 777.334C1283.25 781.675 1286.77 785.195 1291.11 785.195Z" fill="#121619"/>
<path d="M1322.56 785.195C1326.9 785.195 1330.42 781.675 1330.42 777.334C1330.42 772.992 1326.9 769.473 1322.56 769.473C1318.21 769.473 1314.7 772.992 1314.7 777.334C1314.7 781.675 1318.21 785.195 1322.56 785.195Z" fill="#121619"/>
<path d="M1354 785.195C1358.34 785.195 1361.86 781.675 1361.86 777.334C1361.86 772.992 1358.34 769.473 1354 769.473C1349.66 769.473 1346.14 772.992 1346.14 777.334C1346.14 781.675 1349.66 785.195 1354 785.195Z" fill="#121619"/>
<path d="M1385.45 785.195C1389.79 785.195 1393.31 781.675 1393.31 777.334C1393.31 772.992 1389.79 769.473 1385.45 769.473C1381.1 769.473 1377.58 772.992 1377.58 777.334C1377.58 781.675 1381.1 785.195 1385.45 785.195Z" fill="#121619"/>
<path d="M1416.89 785.195C1421.23 785.195 1424.75 781.675 1424.75 777.334C1424.75 772.992 1421.23 769.473 1416.89 769.473C1412.55 769.473 1409.03 772.992 1409.03 777.334C1409.03 781.675 1412.55 785.195 1416.89 785.195Z" fill="#121619"/>
<path d="M1102.45 785.195C1106.79 785.195 1110.31 781.675 1110.31 777.334C1110.31 772.992 1106.79 769.473 1102.45 769.473C1098.1 769.473 1094.58 772.992 1094.58 777.334C1094.58 781.675 1098.1 785.195 1102.45 785.195Z" fill="#121619"/>
<path d="M1133.89 785.195C1138.23 785.195 1141.75 781.675 1141.75 777.334C1141.75 772.992 1138.23 769.473 1133.89 769.473C1129.55 769.473 1126.03 772.992 1126.03 777.334C1126.03 781.675 1129.55 785.195 1133.89 785.195Z" fill="#121619"/>
<path d="M1165.33 785.195C1169.68 785.195 1173.2 781.675 1173.2 777.334C1173.2 772.992 1169.68 769.473 1165.33 769.473C1160.99 769.473 1157.47 772.992 1157.47 777.334C1157.47 781.675 1160.99 785.195 1165.33 785.195Z" fill="#121619"/>
<path d="M1196.78 785.195C1201.12 785.195 1204.64 781.675 1204.64 777.334C1204.64 772.992 1201.12 769.473 1196.78 769.473C1192.44 769.473 1188.92 772.992 1188.92 777.334C1188.92 781.675 1192.44 785.195 1196.78 785.195Z" fill="#121619"/>
<path d="M1228.22 785.195C1232.56 785.195 1236.08 781.675 1236.08 777.334C1236.08 772.992 1232.56 769.473 1228.22 769.473C1223.88 769.473 1220.36 772.992 1220.36 777.334C1220.36 781.675 1223.88 785.195 1228.22 785.195Z" fill="#121619"/>
<path d="M1259.67 816.639C1264.01 816.639 1267.53 813.12 1267.53 808.778C1267.53 804.437 1264.01 800.917 1259.67 800.917C1255.33 800.917 1251.81 804.437 1251.81 808.778C1251.81 813.12 1255.33 816.639 1259.67 816.639Z" fill="#121619"/>
<path d="M1259.67 785.195C1264.01 785.195 1267.53 781.675 1267.53 777.334C1267.53 772.992 1264.01 769.473 1259.67 769.473C1255.33 769.473 1251.81 772.992 1251.81 777.334C1251.81 781.675 1255.33 785.195 1259.67 785.195Z" fill="#121619"/>
<path d="M1298.97 824.501C1303.31 824.501 1306.83 820.981 1306.83 816.639C1306.83 812.298 1303.31 808.778 1298.97 808.778C1294.63 808.778 1291.11 812.298 1291.11 816.639C1291.11 820.981 1294.63 824.501 1298.97 824.501Z" fill="#121619"/>
<path d="M1322.56 848.084C1326.9 848.084 1330.42 844.564 1330.42 840.222C1330.42 835.881 1326.9 832.361 1322.56 832.361C1318.21 832.361 1314.7 835.881 1314.7 840.222C1314.7 844.564 1318.21 848.084 1322.56 848.084Z" fill="#121619"/>
<path d="M1346.14 871.667C1350.48 871.667 1354 868.147 1354 863.805C1354 859.464 1350.48 855.944 1346.14 855.944C1341.8 855.944 1338.28 859.464 1338.28 863.805C1338.28 868.147 1341.8 871.667 1346.14 871.667Z" fill="#121619"/>
<path d="M1369.72 895.251C1374.06 895.251 1377.58 891.731 1377.58 887.389C1377.58 883.048 1374.06 879.528 1369.72 879.528C1365.38 879.528 1361.86 883.048 1361.86 887.389C1361.86 891.731 1365.38 895.251 1369.72 895.251Z" fill="#121619"/>
<path d="M1220.36 824.501C1224.7 824.501 1228.22 820.981 1228.22 816.639C1228.22 812.298 1224.7 808.778 1220.36 808.778C1216.02 808.778 1212.5 812.298 1212.5 816.639C1212.5 820.981 1216.02 824.501 1220.36 824.501Z" fill="#121619"/>
<path d="M1196.78 848.084C1201.12 848.084 1204.64 844.564 1204.64 840.222C1204.64 835.881 1201.12 832.361 1196.78 832.361C1192.44 832.361 1188.92 835.881 1188.92 840.222C1188.92 844.564 1192.44 848.084 1196.78 848.084Z" fill="#121619"/>
<path d="M1173.2 871.667C1177.54 871.667 1181.06 868.147 1181.06 863.805C1181.06 859.464 1177.54 855.944 1173.2 855.944C1168.85 855.944 1165.33 859.464 1165.33 863.805C1165.33 868.147 1168.85 871.667 1173.2 871.667Z" fill="#121619"/>
<path d="M1149.61 895.251C1153.95 895.251 1157.47 891.731 1157.47 887.389C1157.47 883.048 1153.95 879.528 1149.61 879.528C1145.27 879.528 1141.75 883.048 1141.75 887.389C1141.75 891.731 1145.27 895.251 1149.61 895.251Z" fill="#121619"/>
<path d="M1220.36 745.889C1224.7 745.889 1228.22 742.37 1228.22 738.028C1228.22 733.687 1224.7 730.167 1220.36 730.167C1216.02 730.167 1212.5 733.687 1212.5 738.028C1212.5 742.37 1216.02 745.889 1220.36 745.889Z" fill="#121619"/>
<path d="M1196.78 722.306C1201.12 722.306 1204.64 718.787 1204.64 714.445C1204.64 710.104 1201.12 706.584 1196.78 706.584C1192.44 706.584 1188.92 710.104 1188.92 714.445C1188.92 718.787 1192.44 722.306 1196.78 722.306Z" fill="#121619"/>
<path d="M1173.2 698.722C1177.54 698.722 1181.06 695.203 1181.06 690.861C1181.06 686.52 1177.54 683 1173.2 683C1168.85 683 1165.33 686.52 1165.33 690.861C1165.33 695.203 1168.85 698.722 1173.2 698.722Z" fill="#121619"/>
<path d="M1149.61 675.139C1153.95 675.139 1157.47 671.62 1157.47 667.278C1157.47 662.937 1153.95 659.417 1149.61 659.417C1145.27 659.417 1141.75 662.937 1141.75 667.278C1141.75 671.62 1145.27 675.139 1149.61 675.139Z" fill="#121619"/>
<path d="M1298.97 745.889C1303.31 745.889 1306.83 742.37 1306.83 738.028C1306.83 733.687 1303.31 730.167 1298.97 730.167C1294.63 730.167 1291.11 733.687 1291.11 738.028C1291.11 742.37 1294.63 745.889 1298.97 745.889Z" fill="#121619"/>
<path d="M1322.56 722.306C1326.9 722.306 1330.42 718.787 1330.42 714.445C1330.42 710.104 1326.9 706.584 1322.56 706.584C1318.21 706.584 1314.7 710.104 1314.7 714.445C1314.7 718.787 1318.21 722.306 1322.56 722.306Z" fill="#121619"/>
<path d="M1346.14 698.722C1350.48 698.722 1354 695.203 1354 690.861C1354 686.52 1350.48 683 1346.14 683C1341.8 683 1338.28 686.52 1338.28 690.861C1338.28 695.203 1341.8 698.722 1346.14 698.722Z" fill="#121619"/>
<path d="M1369.72 675.139C1374.06 675.139 1377.58 671.62 1377.58 667.278C1377.58 662.937 1374.06 659.417 1369.72 659.417C1365.38 659.417 1361.86 662.937 1361.86 667.278C1361.86 671.62 1365.38 675.139 1369.72 675.139Z" fill="#121619"/>
<path d="M1259.67 848.084C1264.01 848.084 1267.53 844.564 1267.53 840.222C1267.53 835.881 1264.01 832.361 1259.67 832.361C1255.33 832.361 1251.81 835.881 1251.81 840.222C1251.81 844.564 1255.33 848.084 1259.67 848.084Z" fill="#121619"/>
<path d="M1259.67 879.528C1264.01 879.528 1267.53 876.008 1267.53 871.667C1267.53 867.325 1264.01 863.806 1259.67 863.806C1255.33 863.806 1251.81 867.325 1251.81 871.667C1251.81 876.008 1255.33 879.528 1259.67 879.528Z" fill="#121619"/>
<path d="M1259.67 910.972C1264.01 910.972 1267.53 907.453 1267.53 903.111C1267.53 898.77 1264.01 895.25 1259.67 895.25C1255.33 895.25 1251.81 898.77 1251.81 903.111C1251.81 907.453 1255.33 910.972 1259.67 910.972Z" fill="#121619"/>
<path d="M1259.67 627.972C1264.01 627.972 1267.53 624.453 1267.53 620.111C1267.53 615.77 1264.01 612.25 1259.67 612.25C1255.33 612.25 1251.81 615.77 1251.81 620.111C1251.81 624.453 1255.33 627.972 1259.67 627.972Z" fill="#121619"/>
<path d="M1259.67 659.417C1264.01 659.417 1267.53 655.897 1267.53 651.555C1267.53 647.214 1264.01 643.694 1259.67 643.694C1255.33 643.694 1251.81 647.214 1251.81 651.555C1251.81 655.897 1255.33 659.417 1259.67 659.417Z" fill="#121619"/>
<path d="M1259.67 690.862C1264.01 690.862 1267.53 687.342 1267.53 683.001C1267.53 678.659 1264.01 675.14 1259.67 675.14C1255.33 675.14 1251.81 678.659 1251.81 683.001C1251.81 687.342 1255.33 690.862 1259.67 690.862Z" fill="#121619"/>
<path d="M1259.67 722.306C1264.01 722.306 1267.53 718.787 1267.53 714.445C1267.53 710.104 1264.01 706.584 1259.67 706.584C1255.33 706.584 1251.81 710.104 1251.81 714.445C1251.81 718.787 1255.33 722.306 1259.67 722.306Z" fill="#121619"/>
<path d="M1259.67 753.751C1264.01 753.751 1267.53 750.231 1267.53 745.889C1267.53 741.548 1264.01 738.028 1259.67 738.028C1255.33 738.028 1251.81 741.548 1251.81 745.889C1251.81 750.231 1255.33 753.751 1259.67 753.751Z" fill="#121619"/>
<path d="M1637 588.667H1448.33L1542.67 683L1637 588.667Z" fill="#E5F0FC"/>
<path d="M1448.33 588.667V777.334L1542.67 683L1448.33 588.667Z" fill="#21272A"/>
<path d="M1637 683V588.667L1542.67 683H1637Z" fill="#21272A"/>
<path d="M1637 730.167V683L1589.83 730.167H1637Z" fill="#21272A"/>
<path d="M1637 683H1542.67L1589.83 730.167L1637 683Z" fill="#E5F0FC"/>
<path d="M1589.83 730.167L1542.67 777.334H1589.83V730.167Z" fill="#E5F0FC"/>
<path d="M1542.67 683L1448.33 777.333H1542.67V683Z" fill="#E5F0FC"/>
<path d="M1542.67 683V777.333L1589.83 730.167L1542.67 683Z" fill="#21272A"/>
<path d="M1448.33 966H1637L1542.67 871.667L1448.33 966Z" fill="#21272A"/>
<path d="M1448.33 777.334V966.001L1542.67 871.667L1448.33 777.334Z" fill="#E5F0FC"/>
<path d="M1542.67 871.667L1637 966V871.667H1542.67Z" fill="#E5F0FC"/>
<path d="M1589.83 824.5L1637 871.667V824.5H1589.83Z" fill="#E5F0FC"/>
<path d="M1542.67 871.667H1637L1589.83 824.5L1542.67 871.667Z" fill="#21272A"/>
<path d="M1589.83 777.334H1542.67L1589.83 824.501V777.334Z" fill="#21272A"/>
<path d="M1542.67 777.334H1448.33L1542.67 871.667V777.334Z" fill="#21272A"/>
<path d="M1542.67 777.334V871.667L1589.83 824.501L1542.67 777.334Z" fill="#E5F0FC"/>
<path d="M1731.33 871.667L1637 966H1825.67L1731.33 871.667Z" fill="#E5F0FC"/>
<path d="M1825.67 966.001V777.334L1731.33 871.667L1825.67 966.001Z" fill="#21272A"/>
<path d="M1637 871.667V966L1731.33 871.667H1637Z" fill="#21272A"/>
<path d="M1637 824.5V871.667L1684.17 824.5H1637Z" fill="#21272A"/>
<path d="M1637 871.667H1731.33L1684.17 824.5L1637 871.667Z" fill="#E5F0FC"/>
<path d="M1684.17 824.501L1731.33 777.334H1684.17V824.501Z" fill="#E5F0FC"/>
<path d="M1731.33 871.667L1825.67 777.334H1731.33V871.667Z" fill="#E5F0FC"/>
<path d="M1684.17 824.501L1731.33 871.667V777.334L1684.17 824.501Z" fill="#21272A"/>
<path d="M1825.67 588.667H1637L1731.33 683L1825.67 588.667Z" fill="#21272A"/>
<path d="M1825.67 777.334V588.667L1731.33 683L1825.67 777.334Z" fill="#E5F0FC"/>
<path d="M1731.33 683L1637 588.667V683H1731.33Z" fill="#E5F0FC"/>
<path d="M1684.17 730.167L1637 683V730.167H1684.17Z" fill="#E5F0FC"/>
<path d="M1731.33 683H1637L1684.17 730.167L1731.33 683Z" fill="#21272A"/>
<path d="M1684.17 777.334H1731.33L1684.17 730.167V777.334Z" fill="#21272A"/>
<path d="M1731.33 777.333H1825.67L1731.33 683V777.333Z" fill="#21272A"/>
<path d="M1731.33 777.333V683L1684.17 730.167L1731.33 777.333Z" fill="#E5F0FC"/>
<path d="M1637 730.167H1589.83L1637 777.334V730.167Z" fill="#E5F0FC"/>
<path d="M1589.83 730.167V777.334H1637L1589.83 730.167Z" fill="#21272A"/>
<path d="M1589.83 824.501H1637V777.334L1589.83 824.501Z" fill="#21272A"/>
<path d="M1589.83 777.334V824.501L1637 777.334H1589.83Z" fill="#E5F0FC"/>
<path d="M1637 824.501H1684.17L1637 777.334V824.501Z" fill="#E5F0FC"/>
<path d="M1637 777.334L1684.17 824.501V777.334H1637Z" fill="#21272A"/>
<path d="M1684.17 730.167H1637V777.334L1684.17 730.167Z" fill="#21272A"/>
<path d="M1684.17 777.334V730.167L1637 777.334H1684.17Z" fill="#E5F0FC"/>
</g>
</g>
<defs>
<clipPath id="clip0_1054_19891">
<path d="M0 0H1812V820C1812 875.229 1767.23 920 1712 920H0V0Z" fill="white"/>
</clipPath>
<clipPath id="clip1_1054_19891">
<rect width="2309" height="1132" fill="white" transform="translate(-61 -166)"/>
</clipPath>
</defs>
</svg>
