<svg width="223" height="188" viewBox="0 0 223 188" fill="none" xmlns="http://www.w3.org/2000/svg">
<g opacity="0.3" filter="url(#filter0_f_849_12801)">
<ellipse cx="111.5" cy="156" rx="87.5" ry="8" fill="#1150C5"/>
</g>
<path d="M168.583 23.1084H54.4167C48.1114 23.1084 43 27.4636 43 32.8361V109.036C43 114.409 48.1114 118.764 54.4167 118.764H168.583C174.889 118.764 180 114.409 180 109.036V32.8361C180 27.4636 174.889 23.1084 168.583 23.1084Z" fill="url(#paint0_linear_849_12801)"/>
<path d="M165.726 108.448H57.2672C56.2579 108.448 55.29 108.118 54.5763 107.532C53.8626 106.946 53.4617 106.151 53.4617 105.322V36.5498C53.4617 35.7208 53.8626 34.9256 54.5763 34.3394C55.29 33.7532 56.2579 33.4238 57.2672 33.4238H165.726C166.735 33.4238 167.703 33.7532 168.416 34.3394C169.13 34.9256 169.531 35.7208 169.531 36.5498V105.322C169.531 106.151 169.13 106.946 168.416 107.532C167.703 108.118 166.735 108.448 165.726 108.448Z" fill="white"/>
<path d="M157.233 133.769H65.7637C63.174 133.769 61.0747 135.868 61.0747 138.458C61.0747 141.047 63.174 143.147 65.7637 143.147H157.233C159.823 143.147 161.922 141.047 161.922 138.458C161.922 135.868 159.823 133.769 157.233 133.769Z" fill="url(#paint1_linear_849_12801)"/>
<path d="M140.038 118.765H82.9556V133.769H140.038V118.765Z" fill="#AAB1BB"/>
<circle cx="112.014" cy="48.1729" r="40.1729" fill="url(#paint2_linear_849_12801)"/>
<path d="M112.191 70.4818C108.927 70.4812 105.705 69.7662 102.755 68.3884C99.8064 67.0106 97.2047 65.0044 95.1384 62.5148L98.0181 60.5916C98.0733 60.5547 98.1177 60.5041 98.1468 60.445C98.1759 60.3859 98.1887 60.3202 98.1839 60.2546C98.1791 60.1891 98.1569 60.1259 98.1196 60.0715C98.0822 60.017 98.0309 59.9732 97.9709 59.9445L86.7393 54.5771C86.6793 54.5484 86.6126 54.5358 86.5461 54.5405C86.4795 54.5452 86.4154 54.5671 86.3601 54.604C86.3049 54.6408 86.2605 54.6914 86.2313 54.7505C86.2022 54.8097 86.1893 54.8754 86.1941 54.9409L87.091 67.21C87.0958 67.2757 87.1181 67.3388 87.1556 67.3933C87.193 67.4477 87.2444 67.4915 87.3045 67.5201C87.3646 67.5488 87.4312 67.5614 87.4978 67.5566C87.5644 67.5518 87.6285 67.5299 87.6837 67.4929L90.7109 65.4696C94.236 69.8668 99.0631 73.073 104.522 74.6429C109.98 76.2129 115.8 76.0687 121.171 74.2303C126.543 72.3919 131.2 68.9507 134.497 64.3845C137.793 59.8183 139.565 54.3538 139.566 48.75H134.243C134.236 54.5116 131.911 60.0354 127.777 64.1095C123.643 68.1836 118.037 70.4753 112.191 70.4818Z" fill="white"/>
<path d="M112.413 21.2012C105.155 21.2094 98.1973 24.1143 93.0653 29.2786C87.9332 34.4429 85.0465 41.4449 85.0383 48.7483H90.3612C90.3596 44.1719 91.7646 39.707 94.3836 35.9656C97.0026 32.2242 100.707 29.3896 104.99 27.8502C109.273 26.3108 113.924 26.1421 118.306 27.3671C122.688 28.5921 126.586 31.1509 129.466 34.6928L126.586 36.6563C126.531 36.6939 126.486 36.7456 126.457 36.806C126.428 36.8664 126.415 36.9335 126.42 37.0005C126.425 37.0675 126.447 37.1321 126.485 37.1877C126.522 37.2434 126.573 37.2881 126.633 37.3174L137.865 42.7985C137.925 42.8278 137.992 42.8406 138.058 42.8357C138.125 42.8308 138.189 42.8084 138.244 42.7708C138.299 42.7331 138.344 42.6814 138.373 42.621C138.402 42.5606 138.415 42.4936 138.41 42.4266L137.513 29.8984C137.509 29.8314 137.486 29.7668 137.449 29.7112C137.412 29.6555 137.36 29.6108 137.3 29.5815C137.24 29.5522 137.173 29.5393 137.107 29.5442C137.04 29.549 136.976 29.5714 136.921 29.6092L133.893 31.6752C131.332 28.4098 128.069 25.7709 124.348 23.9568C120.628 22.1427 116.547 21.2005 112.413 21.2012Z" fill="white"/>
<defs>
<filter id="filter0_f_849_12801" x="0" y="124" width="223" height="64" filterUnits="userSpaceOnUse" color-interpolation-filters="sRGB">
<feFlood flood-opacity="0" result="BackgroundImageFix"/>
<feBlend mode="normal" in="SourceGraphic" in2="BackgroundImageFix" result="shape"/>
<feGaussianBlur stdDeviation="12" result="effect1_foregroundBlur_849_12801"/>
</filter>
<linearGradient id="paint0_linear_849_12801" x1="111.5" y1="23.1084" x2="111.5" y2="118.764" gradientUnits="userSpaceOnUse">
<stop stop-color="#AAB1BB"/>
<stop offset="1" stop-color="#CAD3DD"/>
</linearGradient>
<linearGradient id="paint1_linear_849_12801" x1="191.415" y1="143.147" x2="43.9307" y2="143.147" gradientUnits="userSpaceOnUse">
<stop stop-color="#AAB1BB"/>
<stop stop-color="#C8D1DB"/>
<stop offset="1" stop-color="#AAB1BB"/>
</linearGradient>
<linearGradient id="paint2_linear_849_12801" x1="71.8406" y1="-6.46235" x2="172.266" y2="-0.61355" gradientUnits="userSpaceOnUse">
<stop stop-color="#006DE6"/>
<stop offset="0.481986" stop-color="#5350F7"/>
<stop offset="1" stop-color="#22FFAF"/>
</linearGradient>
</defs>
</svg>
