<svg width="223" height="188" viewBox="0 0 223 188" fill="none" xmlns="http://www.w3.org/2000/svg">
<g opacity="0.3" filter="url(#filter0_f_849_12769)">
<ellipse cx="111.5" cy="156" rx="87.5" ry="8" fill="#1150C5"/>
</g>
<path d="M128.249 62.1367C121.615 62.1367 115.129 64.0994 109.613 67.7766C104.097 71.4537 99.7975 76.6802 97.2587 82.7951C94.7199 88.91 94.0556 95.6387 95.3499 102.13C96.6442 108.622 99.8388 114.585 104.53 119.265C109.221 123.945 115.198 127.132 121.705 128.423C128.212 129.715 134.956 129.052 141.085 126.519C147.215 123.986 152.453 119.697 156.139 114.194C159.825 108.69 161.792 102.22 161.792 95.6016C161.792 86.7262 158.258 78.2145 151.967 71.9386C145.677 65.6628 137.145 62.137 128.249 62.1367Z" fill="#A5CCF7"/>
<path d="M128.248 52.293C119.663 52.293 111.27 54.8328 104.132 59.5915C96.9932 64.3501 91.4294 71.1137 88.1439 79.0269C84.8584 86.9402 83.9988 95.6478 85.6737 104.048C87.3486 112.449 91.4829 120.166 97.5537 126.222C103.625 132.279 111.359 136.403 119.78 138.074C128.2 139.745 136.928 138.888 144.86 135.61C152.792 132.332 159.571 126.781 164.341 119.66C169.111 112.538 171.657 104.165 171.657 95.5997C171.657 84.1141 167.083 73.0988 158.943 64.9772C150.802 56.8556 139.761 52.293 128.248 52.293ZM128.248 129.064C121.614 129.064 115.129 127.101 109.612 123.424C104.096 119.746 99.7967 114.52 97.2579 108.405C94.7191 102.29 94.055 95.5613 95.3493 89.0698C96.6437 82.5782 99.8385 76.6153 104.53 71.9352C109.221 67.2551 115.198 64.068 121.705 62.7768C128.212 61.4857 134.956 62.1486 141.085 64.6816C147.215 67.2146 152.453 71.504 156.139 77.0074C159.825 82.5108 161.792 88.981 161.792 95.5997C161.791 104.475 158.257 112.987 151.967 119.262C145.676 125.538 137.144 129.064 128.248 129.064Z" fill="url(#paint0_linear_849_12769)"/>
<path d="M135.745 113.383H120.752C119.084 113.381 117.485 112.72 116.305 111.543C115.126 110.367 114.462 108.772 114.46 107.108C114.46 106.359 114.759 105.64 115.289 105.111C115.82 104.581 116.54 104.283 117.291 104.283C118.042 104.283 118.762 104.581 119.293 105.111C119.824 105.64 120.122 106.359 120.122 107.108C120.122 107.274 120.189 107.434 120.307 107.551C120.425 107.669 120.585 107.735 120.752 107.735H135.745C135.911 107.735 136.071 107.669 136.189 107.551C136.307 107.434 136.374 107.274 136.374 107.108V99.0527C136.374 98.9703 136.358 98.8886 136.326 98.8124C136.294 98.7362 136.248 98.667 136.19 98.6087C136.131 98.5504 136.062 98.5041 135.985 98.4726C135.909 98.441 135.827 98.4248 135.745 98.4248H120.752C119.084 98.4228 117.485 97.7608 116.305 96.5842C115.126 95.4075 114.462 93.8122 114.46 92.1481V84.0931C114.462 82.4292 115.126 80.8341 116.305 79.6576C117.485 78.4811 119.084 77.8194 120.752 77.8174H135.745C137.412 77.8194 139.011 78.4811 140.191 79.6576C141.37 80.8341 142.034 82.4292 142.036 84.0931C142.036 84.8421 141.738 85.5605 141.207 86.0902C140.676 86.6199 139.956 86.9174 139.205 86.9174C138.454 86.9174 137.734 86.6199 137.203 86.0902C136.672 85.5605 136.374 84.8421 136.374 84.0931C136.374 83.9267 136.307 83.7672 136.189 83.6497C136.071 83.5321 135.911 83.4661 135.745 83.4661H120.752C120.585 83.4661 120.425 83.5321 120.307 83.6497C120.189 83.7672 120.122 83.9267 120.122 84.0931V92.1481C120.122 92.2306 120.138 92.3123 120.17 92.3884C120.202 92.4646 120.248 92.5338 120.307 92.5921C120.365 92.6505 120.434 92.6967 120.511 92.7283C120.587 92.7598 120.669 92.7761 120.752 92.7761H135.745C137.413 92.7781 139.012 93.44 140.191 94.6167C141.371 95.7934 142.034 97.3887 142.036 99.0527V107.108C142.034 108.772 141.37 110.367 140.191 111.543C139.011 112.72 137.412 113.381 135.745 113.383Z" fill="white"/>
<path d="M128.249 83.4644C127.498 83.4644 126.778 83.1668 126.247 82.6372C125.716 82.1075 125.418 81.3891 125.418 80.6401V74.8869C125.418 74.1378 125.716 73.4194 126.247 72.8897C126.778 72.36 127.498 72.0625 128.249 72.0625C129 72.0625 129.72 72.36 130.251 72.8897C130.782 73.4194 131.08 74.1378 131.08 74.8869V80.6401C131.08 81.3891 130.782 82.1075 130.251 82.6372C129.72 83.1668 129 83.4644 128.249 83.4644Z" fill="white"/>
<path d="M128.249 119.136C127.498 119.136 126.778 118.839 126.247 118.309C125.716 117.779 125.418 117.061 125.418 116.312V110.559C125.418 109.81 125.716 109.091 126.247 108.562C126.778 108.032 127.498 107.734 128.249 107.734C129 107.734 129.72 108.032 130.251 108.562C130.782 109.091 131.08 109.81 131.08 110.559V116.312C131.08 117.061 130.782 117.779 130.251 118.309C129.72 118.839 129 119.136 128.249 119.136Z" fill="white"/>
<g filter="url(#filter1_b_849_12769)">
<path d="M90.8668 15C82.2814 15 73.8889 17.5399 66.7504 22.2985C59.6119 27.0571 54.048 33.8207 50.7626 41.734C47.4771 49.6472 46.6174 58.3548 48.2924 66.7555C49.9673 75.1562 54.1016 82.8727 60.1724 88.9293C66.2432 94.9858 73.9778 99.1104 82.3982 100.781C90.8187 102.452 99.5467 101.595 107.479 98.317C115.41 95.0392 122.19 89.4884 126.96 82.3667C131.73 75.2449 134.275 66.872 134.275 58.3067C134.275 46.8211 129.702 35.8058 121.561 27.6842C113.421 19.5627 102.38 15 90.8668 15Z" fill="url(#paint1_linear_849_12769)" fill-opacity="0.7"/>
</g>
<path d="M63.4769 124.462C58.9139 121.565 55.1301 117.599 52.455 112.909C49.7798 108.219 48.2944 102.948 48.1282 97.5545C48.123 97.3094 48.0222 97.0759 47.8473 96.9038C47.6723 96.7317 47.4368 96.6345 47.1911 96.6328H39.6418C39.5158 96.6328 39.3911 96.6578 39.2749 96.7063C39.1586 96.7548 39.0532 96.8259 38.9648 96.9155C38.8764 97.005 38.8067 97.1112 38.7598 97.2278C38.7128 97.3445 38.6896 97.4693 38.6915 97.5949C38.881 105.082 41.0478 112.386 44.9729 118.77C48.898 125.154 54.4424 130.392 61.046 133.954L59.807 138.792C59.7659 138.952 59.7678 139.12 59.8125 139.279C59.8571 139.438 59.9429 139.583 60.0613 139.698C60.1797 139.814 60.3265 139.896 60.4869 139.937C60.6473 139.978 60.8157 139.977 60.9752 139.932L79.571 134.731C79.7308 134.687 79.876 134.601 79.992 134.483C80.108 134.365 80.1908 134.218 80.2319 134.058C80.2731 133.898 80.2712 133.73 80.2264 133.57C80.1816 133.411 80.0955 133.266 79.9768 133.151L66.1654 119.682C66.0469 119.567 65.9001 119.484 65.7396 119.443C65.5791 119.402 65.4107 119.404 65.2511 119.449C65.0916 119.493 64.9467 119.579 64.8308 119.697C64.715 119.815 64.6324 119.962 64.5914 120.122L63.4769 124.462Z" fill="url(#paint2_linear_849_12769)"/>
<path d="M161.648 25.386L162.888 20.5479C162.929 20.3878 162.927 20.2198 162.883 20.0607C162.838 19.9016 162.752 19.757 162.634 19.6415C162.515 19.526 162.369 19.4435 162.208 19.4025C162.048 19.3615 161.879 19.3633 161.72 19.4078L143.124 24.6084C142.964 24.6528 142.819 24.7384 142.703 24.8566C142.587 24.9748 142.504 25.1214 142.463 25.2817C142.422 25.442 142.424 25.6103 142.469 25.7696C142.513 25.9288 142.599 26.0735 142.718 26.1891L156.53 39.6575C156.648 39.7731 156.795 39.8554 156.955 39.8964C157.116 39.9374 157.284 39.9356 157.444 39.891C157.603 39.8465 157.748 39.7608 157.864 39.6426C157.98 39.5245 158.063 39.3779 158.104 39.2178L159.216 34.8777C163.779 37.775 167.563 41.7412 170.238 46.431C172.913 51.1207 174.399 56.3919 174.565 61.7853C174.57 62.0303 174.671 62.2636 174.846 62.4357C175.02 62.6078 175.255 62.7051 175.501 62.707H183.05C183.176 62.7072 183.301 62.6823 183.418 62.6338C183.534 62.5854 183.64 62.5143 183.728 62.4247C183.817 62.3352 183.886 62.229 183.933 62.1122C183.98 61.9955 184.004 61.8707 184.002 61.7449C183.812 54.258 181.646 46.9536 177.721 40.5696C173.796 34.1856 168.252 28.948 161.648 25.386Z" fill="url(#paint3_linear_849_12769)"/>
<path d="M90.8017 29.2695H90.9348C93.8043 29.2698 96.5561 30.4072 98.5851 32.4316C100.614 34.4559 101.754 37.2014 101.754 40.0642V43.1597C101.754 44.5773 101.474 45.981 100.93 47.2906C100.386 48.6003 99.5895 49.7903 98.5848 50.7927C97.58 51.7951 96.3872 52.5902 95.0745 53.1327C93.7617 53.6752 92.3547 53.9544 90.9338 53.9544H90.8008C87.931 53.9541 85.1789 52.8166 83.1498 50.7921C81.1206 48.7675 79.9807 46.0218 79.9807 43.1588V40.0651C79.9807 37.202 81.1208 34.4561 83.1501 32.4315C85.1794 30.4069 87.9318 29.2695 90.8017 29.2695Z" fill="white"/>
<path d="M100.529 61.0098H81.2049C77.6394 61.0098 74.2199 62.4228 71.6986 64.938C69.1774 67.4532 67.7608 70.8646 67.7605 74.4217V75.7595C67.7578 76.2541 67.9409 76.7318 68.2739 77.0983C71.142 80.2284 74.6322 82.7283 78.5221 84.4386C82.4119 86.149 86.6162 87.0323 90.8671 87.0323C95.118 87.0323 99.3223 86.149 103.212 84.4386C107.102 82.7283 110.592 80.2284 113.46 77.0983C113.793 76.7318 113.976 76.2541 113.974 75.7595V74.4217C113.973 70.8646 112.557 67.4532 110.036 64.938C107.514 62.4228 104.095 61.0098 100.529 61.0098Z" fill="white"/>
<defs>
<filter id="filter0_f_849_12769" x="0" y="124" width="223" height="64" filterUnits="userSpaceOnUse" color-interpolation-filters="sRGB">
<feFlood flood-opacity="0" result="BackgroundImageFix"/>
<feBlend mode="normal" in="SourceGraphic" in2="BackgroundImageFix" result="shape"/>
<feGaussianBlur stdDeviation="12" result="effect1_foregroundBlur_849_12769"/>
</filter>
<filter id="filter1_b_849_12769" x="43.4583" y="11" width="94.8171" height="94.6133" filterUnits="userSpaceOnUse" color-interpolation-filters="sRGB">
<feFlood flood-opacity="0" result="BackgroundImageFix"/>
<feGaussianBlur in="BackgroundImageFix" stdDeviation="2"/>
<feComposite in2="SourceAlpha" operator="in" result="effect1_backgroundBlur_849_12769"/>
<feBlend mode="normal" in="SourceGraphic" in2="effect1_backgroundBlur_849_12769" result="shape"/>
</filter>
<linearGradient id="paint0_linear_849_12769" x1="82.217" y1="52.293" x2="204.115" y2="59.2534" gradientUnits="userSpaceOnUse">
<stop stop-color="#006DE6"/>
<stop offset="0.481986" stop-color="#5350F7"/>
<stop offset="1" stop-color="#22FFAF"/>
</linearGradient>
<linearGradient id="paint1_linear_849_12769" x1="37.4584" y1="-4.42243" x2="85.8248" y2="14.3007" gradientUnits="userSpaceOnUse">
<stop stop-color="#C1D2E4"/>
<stop offset="0.99267" stop-color="#76879F"/>
</linearGradient>
<linearGradient id="paint2_linear_849_12769" x1="38.6914" y1="118.3" x2="80.2614" y2="118.3" gradientUnits="userSpaceOnUse">
<stop stop-color="#BBCDDF"/>
<stop offset="1" stop-color="#7C8DA5"/>
</linearGradient>
<linearGradient id="paint3_linear_849_12769" x1="141.178" y1="19.3731" x2="187.38" y2="17.0784" gradientUnits="userSpaceOnUse">
<stop stop-color="#006DE6"/>
<stop offset="0.481986" stop-color="#5350F7"/>
<stop offset="1" stop-color="#22FFAF"/>
</linearGradient>
</defs>
</svg>
