<svg width="223" height="188" viewBox="0 0 223 188" fill="none" xmlns="http://www.w3.org/2000/svg">
<g opacity="0.3" filter="url(#filter0_f_849_12756)">
<ellipse cx="111.5" cy="156" rx="87.5" ry="8" fill="#1150C5"/>
</g>
<g filter="url(#filter1_b_849_12756)">
<path d="M168.076 28.0042H50.3032C49.1466 27.9539 48.0169 28.3591 47.1616 29.131C46.3064 29.903 45.7952 30.9787 45.74 32.1228V111.397H172.638V32.1228C172.583 30.979 172.072 29.9035 171.217 29.1316C170.362 28.3597 169.233 27.9543 168.076 28.0042Z" fill="url(#paint0_linear_849_12756)" fill-opacity="0.7"/>
</g>
<path d="M126.865 116.891L132.653 108.445H84.7795L90.3344 116.891H126.865Z" fill="#1150C5"/>
<path d="M132.649 108.445L126.861 116.891H90.3268L84.772 108.445H32.7852V110.386C32.7852 114.475 34.4271 118.396 37.3498 121.287C40.2725 124.179 44.2365 125.803 48.3698 125.803H170.018C174.151 125.803 178.115 124.179 181.038 121.287C183.961 118.396 185.603 114.475 185.603 110.386V108.445H132.649Z" fill="url(#paint1_linear_849_12756)"/>
<path d="M152.914 73.2375L117.606 60.1748L128.714 93.6001L134.731 83.2262L144.491 93.4674L150.789 87.0683L141.134 77.8382L152.914 73.2375Z" fill="white"/>
<path d="M107.997 54.957C107.387 54.9564 106.8 54.7297 106.35 54.3216L100.81 49.3213C100.351 48.8843 100.083 48.2876 100.062 47.658C100.041 47.0284 100.27 46.4156 100.698 45.9499C101.127 45.4842 101.723 45.2025 102.359 45.1645C102.994 45.1266 103.62 45.3355 104.102 45.7468L109.643 50.7471C110.008 51.0758 110.264 51.5063 110.378 51.982C110.491 52.4577 110.457 52.9561 110.278 53.4118C110.099 53.8675 109.786 54.259 109.378 54.5349C108.97 54.8107 108.487 54.9579 107.993 54.957" fill="white"/>
<path d="M103.067 65.7048C102.864 65.7048 102.662 65.6803 102.466 65.6317L98.1758 64.5617C97.8595 64.4886 97.5611 64.3539 97.298 64.1655C97.0349 63.9771 96.8123 63.7387 96.6434 63.4643C96.4744 63.1899 96.3624 62.8849 96.3138 62.5672C96.2653 62.2494 96.2812 61.9253 96.3607 61.6138C96.4401 61.3022 96.5815 61.0094 96.7766 60.7525C96.9717 60.4956 97.2166 60.2797 97.4969 60.1174C97.7772 59.9551 98.0875 59.8497 98.4094 59.8073C98.7314 59.7649 99.0587 59.7864 99.3722 59.8704L103.662 60.9404C104.241 61.0843 104.746 61.4325 105.084 61.9193C105.421 62.4062 105.566 62.9981 105.493 63.5838C105.42 64.1695 105.133 64.7085 104.686 65.0994C104.239 65.4903 103.663 65.7062 103.067 65.7063" fill="white"/>
<path d="M118.398 49.1324C117.89 49.132 117.395 48.9756 116.982 48.6849C116.568 48.3942 116.256 47.9835 116.088 47.5096L114.63 43.3791C114.416 42.7729 114.454 42.1074 114.736 41.5289C115.018 40.9505 115.521 40.5065 116.133 40.2947C116.746 40.0829 117.419 40.1205 118.004 40.3994C118.588 40.6783 119.037 41.1755 119.251 41.7817L120.709 45.9122C120.838 46.2769 120.876 46.6668 120.821 47.0492C120.767 47.4316 120.62 47.7955 120.394 48.1105C120.168 48.4254 119.869 48.6823 119.522 48.8597C119.175 49.037 118.791 49.1297 118.4 49.13" fill="white"/>
<defs>
<filter id="filter0_f_849_12756" x="0" y="124" width="223" height="64" filterUnits="userSpaceOnUse" color-interpolation-filters="sRGB">
<feFlood flood-opacity="0" result="BackgroundImageFix"/>
<feBlend mode="normal" in="SourceGraphic" in2="BackgroundImageFix" result="shape"/>
<feGaussianBlur stdDeviation="12" result="effect1_foregroundBlur_849_12756"/>
</filter>
<filter id="filter1_b_849_12756" x="41.74" y="24" width="134.898" height="91.3965" filterUnits="userSpaceOnUse" color-interpolation-filters="sRGB">
<feFlood flood-opacity="0" result="BackgroundImageFix"/>
<feGaussianBlur in="BackgroundImageFix" stdDeviation="2"/>
<feComposite in2="SourceAlpha" operator="in" result="effect1_backgroundBlur_849_12756"/>
<feBlend mode="normal" in="SourceGraphic" in2="effect1_backgroundBlur_849_12756" result="shape"/>
</filter>
<linearGradient id="paint0_linear_849_12756" x1="31.1235" y1="9.29896" x2="91.5468" y2="44.807" gradientUnits="userSpaceOnUse">
<stop stop-color="#C1D2E4"/>
<stop offset="0.99267" stop-color="#76879F"/>
</linearGradient>
<linearGradient id="paint1_linear_849_12756" x1="20.5597" y1="101.352" x2="177.119" y2="186.374" gradientUnits="userSpaceOnUse">
<stop stop-color="#006DE6"/>
<stop offset="0.481986" stop-color="#5350F7"/>
<stop offset="1" stop-color="#22FFAF"/>
</linearGradient>
</defs>
</svg>
