<svg width="223" height="188" viewBox="0 0 223 188" fill="none" xmlns="http://www.w3.org/2000/svg">
<g opacity="0.3" filter="url(#filter0_f_849_12786)">
<ellipse cx="111.5" cy="156" rx="87.5" ry="8" fill="#1150C5"/>
</g>
<path d="M169.921 51.1366C169.291 50.4309 168.943 49.5203 168.943 48.577C168.943 47.6337 169.291 46.7232 169.921 46.0174L177.035 38.0503C177.576 37.4447 177.911 36.6854 177.993 35.88C178.076 35.0747 177.901 34.264 177.493 33.5628L172.523 25.0142C172.115 24.3131 171.496 23.7572 170.752 23.4253C170.009 23.0933 169.179 23.002 168.38 23.1644L157.879 25.2987C156.948 25.4886 155.979 25.333 155.156 24.8613C154.333 24.3897 153.712 23.6346 153.412 22.7391L150.021 12.6377C149.764 11.87 149.269 11.2023 148.609 10.7289C147.948 10.2555 147.154 10.0005 146.339 10H136.4C135.585 9.99994 134.79 10.2547 134.128 10.7281C133.467 11.2015 132.972 11.8696 132.714 12.6377L129.327 22.7391C129.027 23.6346 128.406 24.3897 127.583 24.8613C126.76 25.333 125.791 25.4886 124.86 25.2987L114.356 23.1644C113.557 23.0018 112.727 23.093 111.983 23.425C111.239 23.7569 110.62 24.3129 110.212 25.0142L105.243 33.5628C104.835 34.264 104.66 35.0747 104.742 35.88C104.825 36.6854 105.16 37.4447 105.701 38.0503L112.815 46.0174C113.445 46.7232 113.793 47.6337 113.793 48.577C113.793 49.5203 113.445 50.4309 112.815 51.1366L105.701 59.1037C105.16 59.7094 104.825 60.4686 104.742 61.274C104.66 62.0794 104.835 62.89 105.243 63.5912L110.212 72.1399C110.62 72.8411 111.239 73.3971 111.983 73.7291C112.727 74.0611 113.557 74.1522 114.356 73.9896L124.86 71.8553C125.791 71.6654 126.76 71.821 127.583 72.2927C128.406 72.7644 129.027 73.5194 129.327 74.4149L132.717 84.5163C132.975 85.284 133.469 85.9518 134.13 86.4251C134.791 86.8985 135.585 87.1535 136.4 87.154H146.339C147.154 87.1541 147.949 86.8994 148.61 86.426C149.272 85.9526 149.766 85.2845 150.024 84.5163L153.415 74.4149C153.715 73.5194 154.335 72.7644 155.159 72.2927C155.982 71.821 156.951 71.6654 157.882 71.8553L168.386 73.9896C169.184 74.152 170.014 74.0607 170.758 73.7288C171.501 73.3968 172.121 72.8409 172.529 72.1399L177.499 63.5912C177.906 62.89 178.081 62.0794 177.999 61.274C177.917 60.4686 177.582 59.7094 177.041 59.1037L169.921 51.1366ZM141.369 61.4357C138.808 61.4357 136.305 60.6815 134.176 59.2686C132.046 57.8557 130.387 55.8474 129.407 53.4978C128.427 51.1482 128.17 48.5628 128.67 46.0684C129.169 43.5741 130.403 41.2829 132.213 39.4845C134.024 37.6862 136.332 36.4616 138.843 35.9654C141.355 35.4692 143.958 35.7239 146.324 36.6971C148.69 37.6704 150.713 39.3185 152.136 41.4331C153.558 43.5477 154.318 46.0338 154.318 48.577C154.318 51.9874 152.954 55.258 150.525 57.6695C148.097 60.0809 144.803 61.4357 141.369 61.4357Z" fill="url(#paint0_linear_849_12786)"/>
<g filter="url(#filter1_b_849_12786)">
<path d="M130.39 49.7421C124.414 42.9727 116.378 38.3604 107.522 36.6175C101.793 35.4113 95.8746 35.4193 90.1484 36.6409C84.4223 37.8626 79.0152 40.2708 74.2752 43.7105C69.5352 47.1503 65.5673 51.5454 62.627 56.6128C59.6867 61.6803 57.8392 67.3078 57.2033 73.1332C56.8949 76.3238 55.9624 79.4224 54.4589 82.2527L43 103.281L53.1707 107.352C53.6026 107.525 53.9727 107.823 54.2335 108.209C54.4942 108.594 54.6336 109.049 54.6336 109.515V122.124C54.6336 123.303 55.1016 124.434 55.9346 125.267C56.7677 126.101 57.8975 126.57 59.0756 126.57H71.1326C72.3107 126.57 73.4406 127.038 74.2736 127.872C75.1066 128.706 75.5746 129.836 75.5746 131.016V138.002C75.5746 139.182 76.0426 140.312 76.8757 141.146C77.7087 141.98 78.8385 142.448 80.0166 142.448H124.648C125.826 142.448 126.956 141.98 127.789 141.146C128.622 140.312 129.09 139.182 129.09 138.002V129.563C129.09 118.628 131.228 107.693 136.175 97.9411C139.265 91.6349 140.824 84.6871 140.724 77.6637C140.847 67.3977 137.165 57.4502 130.39 49.7421Z" fill="url(#paint1_linear_849_12786)" fill-opacity="0.7"/>
</g>
<path d="M124.387 71.208C124.791 69.7226 123.436 68.3563 121.948 68.7484L109.887 71.9253C108.387 72.3203 107.888 74.1981 108.994 75.2854L109.047 75.3381C109.844 76.1218 109.844 77.4066 109.047 78.1903L100.145 86.9433C99.3672 87.7085 98.1192 87.7085 97.341 86.9433L89.5218 79.255C88.7436 78.4898 87.4958 78.4898 86.7175 79.2548L68.8821 96.7873C68.0849 97.5709 68.0849 98.8559 68.882 99.6397L71.7835 102.493C72.5617 103.258 73.8098 103.258 74.588 102.493L86.7146 90.5685C87.4928 89.8032 88.7409 89.8032 89.5191 90.5684L97.3381 98.2565C98.1163 99.0218 99.3643 99.0218 100.143 98.2565L114.846 83.7987C115.625 83.0335 116.873 83.0335 117.651 83.7987L117.825 83.9695C118.914 85.0412 120.755 84.5437 121.156 83.069L124.387 71.208Z" fill="white"/>
<defs>
<filter id="filter0_f_849_12786" x="0" y="124" width="223" height="64" filterUnits="userSpaceOnUse" color-interpolation-filters="sRGB">
<feFlood flood-opacity="0" result="BackgroundImageFix"/>
<feBlend mode="normal" in="SourceGraphic" in2="BackgroundImageFix" result="shape"/>
<feGaussianBlur stdDeviation="12" result="effect1_foregroundBlur_849_12786"/>
</filter>
<filter id="filter1_b_849_12786" x="37" y="29.7188" width="109.729" height="118.729" filterUnits="userSpaceOnUse" color-interpolation-filters="sRGB">
<feFlood flood-opacity="0" result="BackgroundImageFix"/>
<feGaussianBlur in="BackgroundImageFix" stdDeviation="3"/>
<feComposite in2="SourceAlpha" operator="in" result="effect1_backgroundBlur_849_12786"/>
<feBlend mode="normal" in="SourceGraphic" in2="effect1_backgroundBlur_849_12786" result="shape"/>
</filter>
<linearGradient id="paint0_linear_849_12786" x1="94.4491" y1="9.99999" x2="187.429" y2="2.05938" gradientUnits="userSpaceOnUse">
<stop stop-color="#006DE6"/>
<stop offset="0.481986" stop-color="#5350F7"/>
<stop offset="1" stop-color="#22FFAF"/>
</linearGradient>
<linearGradient id="paint1_linear_849_12786" x1="43" y1="89.0836" x2="140.728" y2="89.0836" gradientUnits="userSpaceOnUse">
<stop stop-color="#76879F"/>
<stop offset="1" stop-color="#C1D2E4"/>
</linearGradient>
</defs>
</svg>
