<svg width="130" height="30" viewBox="0 0 130 30" fill="none" xmlns="http://www.w3.org/2000/svg">
<path d="M36.0487 20.2928C36.3921 20.5801 36.7802 20.8372 37.228 21.064C37.6758 21.2908 38.1235 21.4873 38.5863 21.6386C39.049 21.7898 39.4969 21.9259 39.9447 22.0015C40.3925 22.0922 40.8104 22.1375 41.1985 22.1375C42.1538 22.1375 42.8854 21.941 43.4228 21.5327C43.9602 21.1245 44.2287 20.5347 44.2287 19.7182C44.2287 19.0982 44.0796 18.5841 43.796 18.1607C43.5124 17.7374 42.9749 17.3291 42.1987 16.9359C41.7509 16.694 41.318 16.4823 40.915 16.3009C40.5119 16.1043 40.1238 15.9077 39.7506 15.7111C39.3774 15.4994 39.0192 15.2878 38.661 15.0609C38.3176 14.8341 37.9595 14.5771 37.6161 14.2898C37.0041 13.7454 36.5115 13.1255 36.1234 12.4299C35.7353 11.7495 35.5413 10.9027 35.5413 9.91981C35.5413 9.23937 35.6756 8.61942 35.9443 8.04482C36.213 7.47023 36.6159 6.97124 37.1234 6.56298C37.631 6.15471 38.2579 5.83716 39.0043 5.61035C39.7506 5.38353 40.5866 5.26257 41.5121 5.26257C43.5272 5.26257 45.3334 5.61034 46.9007 6.3059V9.20914C46.9007 9.43596 46.826 9.57203 46.6619 9.61739C46.5126 9.67788 46.3484 9.6174 46.1693 9.48131C44.9005 8.3926 43.4973 7.84824 41.9747 7.84824C41.1388 7.84824 40.4971 8.0297 40.0493 8.3926C39.6015 8.7555 39.3774 9.25449 39.3774 9.9047C39.3774 10.3583 39.4521 10.7515 39.6163 11.0841C39.7656 11.4168 40.0044 11.7041 40.3178 11.9611C40.9149 12.445 41.5419 12.8684 42.2136 13.2313C42.8853 13.5942 43.557 13.9269 44.2138 14.2444C44.8258 14.5317 45.3633 14.8341 45.841 15.1668C46.3186 15.4994 46.7216 15.8775 47.05 16.3009C47.3784 16.7242 47.6321 17.2081 47.8113 17.7525C47.9755 18.2968 48.0651 18.9319 48.0651 19.6577C48.0651 20.5498 47.8858 21.321 47.5425 21.9561C47.1992 22.5912 46.7066 23.1204 46.0797 23.5438C45.4527 23.9672 44.7363 24.2696 43.9004 24.4511C43.0645 24.6325 42.1837 24.7384 41.2284 24.7384C40.5268 24.7384 39.7954 24.6627 39.0491 24.4964C38.2878 24.3452 37.6161 24.1335 37.034 23.8916C36.4369 23.6496 35.9741 23.3775 35.6307 23.0751C35.2874 22.7726 35.183 22.4702 35.3024 22.1829L36.0188 20.2626L36.0487 20.2928Z" fill="#0046FF"/>
<path d="M50.1701 5.50427H54.1555V12.097C54.6481 11.6736 55.2006 11.341 55.8126 11.099C56.4246 10.8571 57.0961 10.7361 57.8425 10.7361C58.5888 10.7361 59.2458 10.842 59.8428 11.0385C60.4399 11.2502 60.9624 11.5376 61.3804 11.9005C61.8133 12.2785 62.1415 12.717 62.3654 13.2311C62.5893 13.7452 62.7087 14.3198 62.7087 14.9549V24.4508H59.0517V15.4388C59.0517 14.1232 58.3502 13.473 56.9321 13.473C56.4545 13.473 55.9765 13.5638 55.5287 13.7603C55.0809 13.9569 54.6183 14.214 54.1555 14.5617V24.4357H50.4985V7.84803C50.4985 7.43976 50.4536 7.12222 50.379 6.88029C50.3043 6.63835 50.14 6.39642 49.9161 6.15449C49.7818 5.98816 49.7373 5.82182 49.8119 5.70085C49.8865 5.56476 50.0059 5.50427 50.1701 5.50427Z" fill="#0046FF"/>
<path d="M69.6051 11.1752V24.4665H65.9477V13.5189C65.9477 13.1409 65.9031 12.8385 65.8136 12.5965C65.724 12.3546 65.5747 12.1127 65.3657 11.8707C65.2313 11.7044 65.1864 11.5381 65.2461 11.402C65.3058 11.2659 65.4252 11.1903 65.5894 11.1903H69.6051V11.1752ZM69.7392 6.97154C69.7392 7.62174 69.5304 8.15097 69.1273 8.57436C68.7243 8.99774 68.1868 9.20946 67.53 9.20946C66.8732 9.20946 66.3507 8.99774 65.9327 8.57436C65.5148 8.15097 65.3208 7.60662 65.3208 6.97154C65.3208 6.33646 65.5297 5.79211 65.9327 5.36872C66.3507 4.94533 66.8732 4.73364 67.53 4.73364C68.1868 4.73364 68.7094 4.94533 69.1273 5.36872C69.5453 5.79211 69.7392 6.33646 69.7392 6.97154Z" fill="#0046FF"/>
<path d="M72.6056 11.1734H76.5013V12.4738C76.979 12.005 77.5314 11.5968 78.1285 11.249C78.7256 10.9012 79.442 10.7349 80.263 10.7349C80.9645 10.7349 81.6065 10.8256 82.2036 11.0373C82.8006 11.2339 83.3082 11.5212 83.756 11.8992C84.2038 12.2772 84.5471 12.7459 84.8008 13.3054C85.0546 13.8649 85.174 14.5 85.174 15.2258V24.4647H81.517V15.5585C81.517 14.8024 81.3526 14.258 81.0093 13.9103C80.6809 13.5776 80.1285 13.3961 79.3821 13.3961C78.8746 13.3961 78.3821 13.502 77.9342 13.6986C77.4864 13.9103 77.0537 14.1976 76.6208 14.5756V24.4496H72.9638V13.5474C72.9638 13.1391 72.9189 12.8216 72.8293 12.5796C72.7397 12.3377 72.5904 12.0958 72.3814 11.8538C72.2322 11.6875 72.1876 11.5211 72.2473 11.3851C72.307 11.249 72.4414 11.1734 72.6056 11.1734Z" fill="#0046FF"/>
<path d="M87.9352 5.50427H91.921V12.097C92.4135 11.6736 92.9656 11.341 93.5777 11.099C94.1897 10.8571 94.8615 10.7361 95.6079 10.7361C96.3542 10.7361 97.0112 10.842 97.6083 11.0385C98.2053 11.2502 98.7275 11.5376 99.1454 11.9005C99.5783 12.2785 99.9069 12.717 100.131 13.2311C100.355 13.7452 100.474 14.3198 100.474 14.9549V24.4508H96.8171V15.4388C96.8171 14.1232 96.1153 13.473 94.6972 13.473C94.2195 13.473 93.7419 13.5638 93.2941 13.7603C92.8463 13.9569 92.3837 14.214 91.921 14.5617V24.4357H88.2639V7.84803C88.2639 7.43976 88.219 7.12222 88.1444 6.88029C88.0697 6.63835 87.9054 6.39642 87.6815 6.15449C87.5472 5.98816 87.5023 5.82182 87.5769 5.70085C87.6516 5.56476 87.771 5.50427 87.9352 5.50427Z" fill="#0046FF"/>
<path d="M108.788 13.2147C108.072 13.2147 107.37 13.3508 106.668 13.623C105.967 13.8951 105.355 14.2127 104.817 14.5605C104.549 14.7268 104.355 14.7873 104.206 14.6965C104.071 14.6209 103.996 14.4395 103.996 14.1824V11.7177C104.698 11.4002 105.504 11.1582 106.43 10.9919C107.355 10.8256 108.221 10.7349 109.012 10.7349C110.833 10.7349 112.236 11.0826 113.222 11.7933C114.207 12.504 114.699 13.5927 114.699 15.0746V24.4647H111.102V23.0282C110.594 23.6784 109.982 24.1471 109.281 24.4496C108.579 24.752 107.833 24.9032 107.042 24.9032C106.385 24.9032 105.788 24.7974 105.25 24.6008C104.713 24.3891 104.235 24.1018 103.862 23.7389C103.474 23.376 103.176 22.9224 102.967 22.4082C102.743 21.8941 102.638 21.3195 102.638 20.6996C102.638 19.2782 103.131 18.1593 104.116 17.3276C105.101 16.496 106.624 16.0877 108.684 16.0877H111.042V15.0897C111.042 14.4244 110.848 13.9405 110.46 13.6532C110.072 13.3659 109.505 13.2298 108.773 13.2298L108.788 13.2147ZM111.057 18.5524H108.684C107.788 18.5524 107.146 18.7338 106.758 19.1119C106.37 19.4899 106.191 19.9889 106.191 20.6088C106.191 21.123 106.34 21.5464 106.624 21.8639C106.907 22.1814 107.325 22.3477 107.878 22.3477C108.519 22.3477 109.102 22.2117 109.654 21.9395C110.191 21.6673 110.669 21.2893 111.072 20.8205V18.5524H111.057Z" fill="#0046FF"/>
<path d="M117.431 11.1734H121.327V12.4738C121.805 12.005 122.357 11.5968 122.954 11.249C123.552 10.9012 124.268 10.7349 125.089 10.7349C125.791 10.7349 126.432 10.8256 127.03 11.0373C127.627 11.2339 128.134 11.5212 128.582 11.8992C129.03 12.2772 129.373 12.7459 129.627 13.3054C129.881 13.8649 130 14.5 130 15.2258V24.4647H126.343V15.5585C126.343 14.8024 126.179 14.258 125.835 13.9103C125.507 13.5776 124.954 13.3961 124.208 13.3961C123.701 13.3961 123.208 13.502 122.76 13.6986C122.312 13.9103 121.88 14.1976 121.447 14.5756V24.4496H117.789V13.5474C117.789 13.1391 117.745 12.8216 117.655 12.5796C117.566 12.3377 117.416 12.0958 117.207 11.8538C117.058 11.6875 117.013 11.5211 117.073 11.3851C117.148 11.249 117.267 11.1734 117.431 11.1734Z" fill="#0046FF"/>
<path d="M14.8077 0C6.62768 0 0 6.7137 0 15C0 23.2863 6.62768 30 14.8077 30C22.9877 30 29.6154 23.2863 29.6154 15C29.6154 6.7137 22.9877 0 14.8077 0ZM15.1211 27.248C13.3448 27.505 10.464 27.0514 8.50854 25.7964C6.79192 24.7076 5.77685 23.3317 5.12006 21.9405C4.44835 20.5192 4.11987 18.7954 4.8513 18.8861C5.19462 18.9314 5.47821 19.5665 6.135 20.4133C6.58281 20.9879 6.98589 21.4718 7.29936 21.5474C7.4337 21.5776 7.55309 21.5171 7.64265 21.3206C7.82177 20.9577 8.07567 20.2923 8.52348 19.7329C8.88173 19.3095 9.31454 19.1129 9.5683 20.1411C9.68772 20.6552 9.79229 21.1845 9.83707 21.6381C9.9117 22.2883 9.95645 22.6814 10.1804 22.7873C10.3893 22.8931 10.7475 22.7571 11.3445 22.5302C11.7625 22.379 12.3 22.1673 12.9867 21.9708C13.6136 21.7893 14.0165 21.88 13.6135 22.8629C13.4194 23.3317 13.2254 23.7248 12.5537 24.7077C12.4343 24.874 12.4642 25.0554 12.5985 25.2066C12.8224 25.4335 13.3449 25.7056 13.9121 25.9627C14.3599 26.1593 14.8972 26.3407 15.2554 26.4315C15.8077 26.5978 15.7033 27.1572 15.1361 27.248H15.1211ZM22.719 24.0272C22.1666 24.9345 21.0173 25.9173 19.6142 26.5675C19.4052 26.6583 19.1814 26.628 19.1217 26.4617C19.0769 26.3105 19.1963 26.129 19.3307 25.9627C21.1518 23.5585 19.7933 21.3659 16.8527 19.6572C14.6734 18.4022 13.2852 17.6764 11.688 16.7087C6.98598 13.8962 6.07541 11.4466 5.88136 10.0101C5.41862 6.35082 8.40402 3.6139 11.4641 2.94858C11.5536 2.93346 11.8074 2.88811 11.8821 3.0998C11.9567 3.31149 11.7776 3.4627 11.6731 3.52319C10.2998 4.29436 8.9562 5.9123 9.10547 7.7117C9.19504 8.7248 9.61303 10.1764 12.3148 12.1119C13.9419 13.2913 15.9272 14.244 19.9425 16.6936C24.1818 19.2641 23.7042 22.4093 22.7339 24.0121L22.719 24.0272ZM23.3758 10.3125C22.4056 11.5071 21.4352 11.0685 20.6889 9.37499C20.2262 8.31652 19.6141 8.05948 19.1812 8.34678C18.7036 8.64919 18.8977 9.37499 19.4201 10.2066C19.7634 10.751 19.6142 11.3861 19.256 11.7641C18.8828 12.1572 18.2708 12.3236 17.5991 12.1724C16.4049 11.9002 15.2257 10.2823 16.0914 6.74396C16.4347 5.32259 15.763 4.70262 15.3301 4.15826C15.1211 3.88609 15.0913 3.71976 15.1659 3.61391C15.2555 3.49294 15.4496 3.47783 15.793 3.55343C16.2557 3.64416 16.9272 3.88609 17.4945 3.97682C17.8677 4.0373 18.2857 4.05241 18.7186 4.03729C19.9128 3.99193 20.7934 4.17338 21.6891 4.62701C23.2116 5.39818 23.361 6.71372 22.5251 6.60787C22.2265 6.57763 21.8533 6.35081 21.5398 6.1996C21.3309 6.09376 21.1518 6.06352 21.0174 6.15424C20.898 6.24497 20.8382 6.44154 20.9278 6.62299C21.1218 7.03125 21.7637 7.22781 22.6295 7.48487C24.152 7.90826 24.1819 9.32963 23.3908 10.3276L23.3758 10.3125Z" fill="#0046FF"/>
<path d="M15.1209 27.264C13.3446 27.5211 10.4638 27.0674 8.50835 25.8124C6.79174 24.7237 5.77667 23.3477 5.11987 21.9566C4.44816 20.5352 4.11968 18.8114 4.85111 18.9021C5.19443 18.9475 5.47802 19.5826 6.13481 20.4294C6.58262 21.0039 6.9857 21.4878 7.29917 21.5634C7.43351 21.5937 7.5529 21.5332 7.64246 21.3366C7.82159 20.9737 8.07548 20.3084 8.52329 19.7489C8.88154 19.3255 9.31435 19.1289 9.56811 20.1572C9.68753 20.6713 9.7921 21.2005 9.83688 21.6541C9.91151 22.3043 9.95627 22.6975 10.1802 22.8033C10.3892 22.9092 10.7473 22.7731 11.3443 22.5463C11.7623 22.3951 12.2998 22.1834 12.9865 21.9868C13.6134 21.8054 14.0163 21.8961 13.6133 22.8789C13.4192 23.3477 13.2252 23.7408 12.5535 24.7237C12.4341 24.89 12.464 25.0715 12.5983 25.2227C12.8223 25.4495 13.3447 25.7217 13.9119 25.9787C14.3597 26.1753 14.897 26.3568 15.2552 26.4475C15.8075 26.6138 15.7031 27.1733 15.1359 27.264H15.1209ZM22.7188 24.0433C22.1665 24.9505 21.0171 25.9334 19.614 26.5836C19.405 26.6743 19.1812 26.6441 19.1215 26.4777C19.0767 26.3265 19.1961 26.1451 19.3305 25.9787C21.1516 23.5745 19.7932 21.382 16.8525 19.6733C14.6732 18.4183 13.285 17.6924 11.6878 16.7247C6.98579 13.9122 6.07522 11.4626 5.88117 10.0261C5.41843 6.36685 8.40383 3.62996 11.4639 2.96464C11.5534 2.94952 11.8072 2.90414 11.8819 3.11584C11.9565 3.32753 11.7774 3.47876 11.6729 3.53924C10.2996 4.31041 8.95601 5.92834 9.10528 7.72773C9.19485 8.74084 9.61284 10.1925 12.3146 12.1279C13.9417 13.3074 15.927 14.26 19.9423 16.7096C24.1816 19.2801 23.704 22.4253 22.7337 24.0281L22.7188 24.0433ZM23.3756 10.3285C22.4054 11.5231 21.4351 11.0846 20.6887 9.39105C20.226 8.33258 19.6139 8.07551 19.1811 8.36281C18.7034 8.66523 18.8975 9.39105 19.4199 10.2227C19.7633 10.7671 19.614 11.4021 19.2558 11.7802C18.8826 12.1733 18.2706 12.3396 17.5989 12.1884C16.4047 11.9162 15.2255 10.2983 16.0912 6.75999C16.4346 5.33862 15.7628 4.71868 15.3299 4.17432C15.121 3.90214 15.0911 3.73581 15.1658 3.62997C15.2553 3.509 15.4494 3.49387 15.7928 3.56947C16.2555 3.6602 16.9271 3.90213 17.4943 3.99286C17.8675 4.05334 18.2855 4.06847 18.7184 4.05335C19.9126 4.00799 20.7933 4.18944 21.6889 4.64307C23.2114 5.41424 23.3608 6.72976 22.5249 6.62391C22.2263 6.59367 21.8531 6.36685 21.5396 6.21564C21.3307 6.10979 21.1516 6.07955 21.0172 6.17028C20.8978 6.261 20.838 6.45757 20.9276 6.63902C21.1216 7.04729 21.7635 7.24387 22.6293 7.50093C24.1519 7.92431 24.1817 9.34569 23.3906 10.3437L23.3756 10.3285Z" fill="white"/>
</svg>
