<svg width="150" height="46" viewBox="0 0 150 46" fill="none" xmlns="http://www.w3.org/2000/svg">
<path d="M11.3009 18.7001C12.9609 15.8301 16.6309 14.8501 19.5009 16.5001C22.3709 18.1601 23.3509 21.8301 21.7009 24.7001L11.7009 42.0201C10.0409 44.8901 6.37088 45.8701 3.50088 44.2201C0.630881 42.5601 -0.349119 38.8901 1.30088 36.0201L11.3009 18.7001Z" fill="#0471E9"/>
<path d="M41.5 15.5C44.81 15.5 47.5 18.19 47.5 21.5V39.5C47.5 42.81 44.81 45.5 41.5 45.5C38.19 45.5 35.5 42.81 35.5 39.5V21.5C35.5 18.19 38.19 15.5 41.5 15.5Z" fill="#0471E9"/>
<path d="M41.5 12.5C44.8137 12.5 47.5 9.81371 47.5 6.5C47.5 3.18629 44.8137 0.5 41.5 0.5C38.1863 0.5 35.5 3.18629 35.5 6.5C35.5 9.81371 38.1863 12.5 41.5 12.5Z" fill="#0471E9"/>
<path d="M11.3004 18.7001C12.9604 15.8301 16.6304 14.8501 19.5004 16.5001C22.3704 18.1601 23.3504 21.8301 21.7004 24.7001L11.7204 42.0401C10.0604 44.9101 6.39041 45.8901 3.52041 44.2401C0.650412 42.5801 -0.329588 38.9101 1.32041 36.0401L11.3004 18.7001Z" fill="url(#paint0_linear_2189_18161)" fill-opacity="0.5"/>
<path fill-rule="evenodd" clip-rule="evenodd" d="M13.5025 16.5006C16.3725 14.8406 20.0425 15.8306 21.7025 18.7006L31.7025 36.0206C33.3625 38.8906 32.3725 42.5606 29.5025 44.2206C26.6325 45.8806 22.9625 44.8906 21.3025 42.0206L13.3025 28.1606V28.2006C11.3125 25.2006 9.8125 24.2006 7.3125 25.7006L11.1725 18.9506C11.6825 17.9606 12.4725 17.1006 13.5025 16.5106V16.5006Z" fill="#0471E9"/>
<path d="M145.226 23.9568C143.221 23.9568 141.654 21.9975 139.812 21.2278C139.222 20.9778 138.479 20.8479 137.593 20.8479C135.039 20.8479 133.91 21.8176 133.869 23.1871C133.828 24.6766 135.202 25.5263 137.919 26.0961L140.351 26.6659C146.671 27.9955 149.469 31.0645 149.5 35.543C149.459 41.2711 145.043 44.5 137.634 44.5C131.498 44.5 127.112 42.3207 125.626 37.6723C125.005 35.7129 126.776 34.0035 128.862 34.0035C130.867 34.0035 132.342 35.8629 133.899 37.1025C134.764 37.8022 136.006 38.1621 137.512 38.1621C140.148 38.1621 141.562 37.0725 141.603 35.543C141.562 34.1335 140.392 33.3237 137.105 32.594L134.144 31.9442C129.004 30.8146 125.84 28.2754 125.84 23.7469C125.799 18.2188 130.704 14.5 137.583 14.5C142.956 14.5 146.803 16.6793 148.34 20.2381C149.174 22.1674 147.353 23.9369 145.216 23.9369L145.226 23.9568Z" fill="#011B6A"/>
<path d="M118.537 17.469C116.558 15.4997 113.856 14.5 110.511 14.5C108.783 14.5 107.136 14.9099 105.619 15.7196C104.866 16.1395 103.51 17.2591 103.51 17.2591C103.51 17.2591 102.164 16.1295 101.401 15.7196C99.8839 14.9099 98.2466 14.5 96.5089 14.5C93.1641 14.5 90.4621 15.4997 88.4833 17.469C86.5045 19.4384 85.5 22.1275 85.5 25.4563V40.3314C85.5 41.551 85.9721 42.6206 86.856 43.4104C87.6696 44.1301 88.7042 44.5 89.9397 44.5C91.1752 44.5 92.1998 44.1401 93.0134 43.4204C93.8772 42.6506 94.3393 41.591 94.3393 40.3414V25.4663C94.3393 23.6569 94.721 23.0172 94.8817 22.8272C95.2433 22.3974 96.0569 22.3074 96.6897 22.3074C97.7444 22.3074 98.1864 22.6773 98.4275 22.9472C98.8493 23.447 99.0703 24.3067 99.0703 25.4663V40.3414C99.0703 41.591 99.5324 42.6606 100.396 43.4204C101.2 44.1301 102.154 44.5 103.47 44.5C104.786 44.5 105.81 44.1201 106.604 43.4204C107.478 42.6506 107.93 41.591 107.93 40.3414V25.4663C107.93 24.2967 108.151 23.447 108.573 22.9472C108.814 22.6673 109.256 22.3074 110.31 22.3074C110.933 22.3074 111.757 22.3974 112.118 22.8272C112.279 23.0172 112.661 23.6569 112.661 25.4663V40.3414C112.661 41.591 113.123 42.6606 113.987 43.4204C114.8 44.1401 115.835 44.5 117.06 44.5C118.286 44.5 119.32 44.1301 120.144 43.4104C121.028 42.6206 121.5 41.551 121.5 40.3314V25.4563C121.5 22.1275 120.496 19.4384 118.517 17.469H118.537Z" fill="#011B6A"/>
<path d="M68.4457 44.5C65.4762 44.5 62.8399 43.9002 60.6054 42.7206C58.3022 41.501 56.5087 39.7216 55.2935 37.4224C54.0978 35.1831 53.5 32.534 53.5 29.535C53.5 26.536 54.1076 23.8869 55.2935 21.6476C56.5087 19.3284 58.2826 17.539 60.5662 16.3194C62.8007 15.1098 65.4272 14.5 68.3771 14.5C70.8175 14.5 73.1108 14.9399 75.1983 15.7996C77.4034 16.7093 79.0793 17.9688 80.1867 19.5483C80.716 20.2681 80.9806 21.0678 80.9806 21.9175C80.9806 23.1671 80.3729 24.2867 79.2361 25.1465C78.6089 25.6263 77.864 25.8662 77.0016 25.8662C76.4037 25.8662 75.7961 25.7463 75.2081 25.5063L75.1199 25.4663C74.5025 25.1664 73.9732 24.7666 73.5616 24.2567C72.9834 23.587 72.3267 23.1071 71.5721 22.8172C70.7097 22.4673 69.6512 22.2974 68.3673 22.2974C66.3582 22.2974 64.8686 22.8872 63.8101 24.0868C62.7027 25.3264 62.1538 27.1558 62.1538 29.535C62.1538 31.9142 62.7027 33.7136 63.8003 34.9332C64.8784 36.1228 66.3974 36.7026 68.436 36.7026C70.8959 36.7026 72.7678 36.0128 74.1692 34.6033C75.3061 33.5137 76.4331 32.9838 77.5602 32.9838C78.4226 32.9838 79.2557 33.2837 79.9515 33.8535C80.9904 34.7732 81.5 35.8429 81.5 37.0025C81.5 37.8822 81.206 38.7119 80.6376 39.4817C79.3929 41.1011 77.6484 42.3607 75.4335 43.2304C73.3558 44.0601 70.9939 44.49 68.4261 44.49L68.4457 44.5Z" fill="#011B6A"/>
<defs>
<linearGradient id="paint0_linear_2189_18161" x1="16.6104" y1="21.5501" x2="3.52041" y2="44.2101" gradientUnits="userSpaceOnUse">
<stop/>
<stop offset="1" stop-opacity="0"/>
</linearGradient>
</defs>
</svg>
