<svg width="29" height="29" viewBox="0 0 29 29" fill="none" xmlns="http://www.w3.org/2000/svg">
<path d="M14.7816 0C6.98293 0 0.651855 6.32201 0.651855 14.1299C0.651855 21.9379 6.9737 28.2599 14.7816 28.2599C22.5895 28.2599 28.9116 21.9379 28.9116 14.1299C28.9116 6.32201 22.5895 0 14.7816 0ZM15.077 25.6665C13.3881 25.9064 10.6377 25.4727 8.77339 24.3005C7.13982 23.2669 6.17074 21.984 5.53392 20.6735C4.88788 19.3352 4.58351 17.7109 5.2757 17.7939C5.59873 17.8309 5.87544 18.44 6.4938 19.2337C6.91834 19.7782 7.30593 20.2304 7.60126 20.295C7.73047 20.3227 7.84132 20.2674 7.93361 20.0828C8.10897 19.7505 8.34885 19.1045 8.77339 18.5877C9.11487 18.1908 9.53026 18.0062 9.77022 18.9753C9.8902 19.4552 9.98252 19.9536 10.0287 20.3873C10.1025 20.9965 10.1395 21.3656 10.3518 21.4672C10.5548 21.5687 10.8963 21.4395 11.4592 21.2272C11.8561 21.0795 12.3729 20.8857 13.0189 20.7011C13.6188 20.5258 13.9971 20.6181 13.6095 21.5502C13.4249 21.984 13.2497 22.3532 12.5944 23.2853C12.4837 23.4514 12.5022 23.6083 12.6406 23.756C12.8529 23.9683 13.3511 24.2267 13.8864 24.4667C14.3202 24.6512 14.8279 24.8174 15.1694 24.9097C15.7047 25.0573 15.5938 25.6019 15.0585 25.6757L15.077 25.6665ZM22.3221 22.63C21.796 23.4884 20.6975 24.4113 19.3593 25.0296C19.1562 25.1219 18.9442 25.0942 18.8888 24.9281C18.8427 24.7805 18.9534 24.6236 19.0918 24.4667C20.8361 22.2055 19.544 20.1382 16.7291 18.523C14.6525 17.3325 13.3327 16.6495 11.8006 15.7451C7.30597 13.0963 6.43842 10.7982 6.26307 9.43227C5.82007 5.98977 8.67192 3.40557 11.5976 2.78721C11.6899 2.76876 11.9205 2.73185 11.9944 2.92566C12.0682 3.11948 11.8929 3.25791 11.7914 3.32251C10.4808 4.04239 9.19803 5.57444 9.33647 7.27262C9.41031 8.22323 9.82567 9.58916 12.3914 11.4165C13.9419 12.524 15.843 13.4285 19.6732 15.7266C23.7248 18.1539 23.2634 21.1165 22.3313 22.6208L22.3221 22.63ZM22.9588 9.70913C22.0359 10.8443 21.1129 10.4198 20.4023 8.82313C19.9593 7.82638 19.3778 7.58642 18.9625 7.85406C18.5103 8.14017 18.6948 8.82313 19.1932 9.59838C19.5255 10.1152 19.3779 10.7151 19.0364 11.0751C18.6765 11.4535 18.0858 11.6011 17.449 11.4535C16.3138 11.2043 15.1878 9.67221 16.0092 6.3497C16.3414 5.00223 15.6954 4.43002 15.2893 3.91318C15.0862 3.65476 15.0586 3.49787 15.1325 3.39635C15.2155 3.2856 15.4 3.27637 15.7415 3.34097C16.1845 3.43327 16.8305 3.65476 17.3566 3.73782C17.7073 3.7932 18.1042 3.81167 18.5287 3.79321C19.6639 3.74706 20.5039 3.92241 21.3622 4.34696C22.8204 5.06683 22.9679 6.30355 22.1558 6.21126C21.8789 6.17435 21.5189 5.96208 21.2144 5.82364C21.0113 5.73134 20.8454 5.69442 20.7162 5.78671C20.5962 5.86977 20.55 6.05437 20.633 6.22972C20.8176 6.60812 21.4267 6.80193 22.2481 7.03266C23.6971 7.42952 23.7248 8.77699 22.9681 9.69991L22.9588 9.70913Z" fill="#0046FF"/>
<path d="M15.0771 25.6574C13.3882 25.8974 10.6378 25.4636 8.77347 24.2915C7.1399 23.2578 6.17082 21.975 5.53401 20.6644C4.88796 19.3262 4.58359 17.7018 5.27579 17.7849C5.59881 17.8218 5.87552 18.431 6.49388 19.2247C6.91843 19.7692 7.30601 20.2214 7.60134 20.286C7.73055 20.3137 7.8414 20.2583 7.93369 20.0738C8.10905 19.7415 8.34893 19.0954 8.77347 18.5786C9.11495 18.1818 9.53034 17.9972 9.7703 18.9662C9.89028 19.4462 9.9826 19.9445 10.0287 20.3783C10.1026 20.9874 10.1396 21.3566 10.3519 21.4581C10.5549 21.5597 10.8963 21.4304 11.4593 21.2182C11.8562 21.0705 12.373 20.8767 13.019 20.6921C13.6189 20.5168 13.9972 20.609 13.6096 21.5412C13.425 21.975 13.2498 22.3441 12.5945 23.2763C12.4837 23.4424 12.5022 23.5993 12.6407 23.747C12.853 23.9593 13.3512 24.2177 13.8865 24.4576C14.3203 24.6422 14.828 24.8083 15.1695 24.9006C15.7048 25.0483 15.5939 25.5928 15.0586 25.6667L15.0771 25.6574ZM22.3221 22.621C21.7961 23.4793 20.6976 24.4023 19.3594 25.0206C19.1563 25.1129 18.9443 25.0852 18.8889 24.9191C18.8427 24.7714 18.9535 24.6145 19.0919 24.4576C20.8362 22.1965 19.5441 20.1291 16.7292 18.514C14.6526 17.3234 13.3327 16.6405 11.8007 15.736C7.30605 13.0872 6.43851 10.7891 6.26315 9.42322C5.82015 5.98072 8.672 3.39654 11.5977 2.77819C11.69 2.75973 11.9206 2.7228 11.9945 2.91662C12.0683 3.11043 11.893 3.24888 11.7914 3.31348C10.4809 4.03336 9.19812 5.56541 9.33655 7.26359C9.41039 8.2142 9.82576 9.58013 12.3915 11.4075C13.942 12.515 15.8431 13.4195 19.6732 15.7176C23.7249 18.1448 23.2635 21.1074 22.3314 22.6118L22.3221 22.621ZM22.9589 9.7001C22.036 10.8353 21.113 10.4107 20.4024 8.81409C19.9594 7.81733 19.3779 7.57739 18.9626 7.84503C18.5103 8.13114 18.6949 8.8141 19.1933 9.58936C19.5256 10.1062 19.378 10.7061 19.0365 11.066C18.6765 11.4444 18.0859 11.5921 17.4491 11.4444C16.3139 11.1952 15.1879 9.66319 16.0093 6.34067C16.3415 4.9932 15.6954 4.42099 15.2894 3.90415C15.0863 3.64573 15.0587 3.48884 15.1325 3.38732C15.2156 3.27657 15.4001 3.26734 15.7416 3.33194C16.1846 3.42424 16.8306 3.64573 17.3567 3.72879C17.7074 3.78417 18.1043 3.80263 18.5288 3.78417C19.664 3.73802 20.5039 3.91338 21.3623 4.33793C22.8205 5.05781 22.968 6.29453 22.1558 6.20223C21.879 6.16532 21.519 5.95303 21.2144 5.81459C21.0114 5.7223 20.8455 5.68539 20.7163 5.77768C20.5963 5.86075 20.55 6.04533 20.6331 6.22068C20.8177 6.59908 21.4268 6.7929 22.2482 7.02363C23.6972 7.42049 23.7249 8.76796 22.9681 9.69088L22.9589 9.7001Z" fill="white"/>
</svg>
