<svg width="72" height="59" viewBox="0 0 72 59" fill="none" xmlns="http://www.w3.org/2000/svg">
<path d="M0.602854 55.1859C0.856778 55.3975 1.15312 55.588 1.49168 55.7573C1.83025 55.9265 2.16879 56.0746 2.52852 56.2016C2.86708 56.3285 3.22679 56.4132 3.56535 56.4766C3.90392 56.5401 4.22148 56.5826 4.51772 56.5826C5.23717 56.5826 5.80835 56.4345 6.2104 56.1383C6.61244 55.842 6.82413 55.3765 6.82413 54.784C6.82413 54.3184 6.71825 53.9375 6.48549 53.6201C6.27389 53.3026 5.87195 52.9854 5.27946 52.6891C4.9409 52.5198 4.60216 52.3506 4.30591 52.2025C3.98851 52.0544 3.71359 51.9061 3.41734 51.7579C3.14226 51.6098 2.86714 51.4406 2.59206 51.2713C2.31698 51.102 2.06306 50.9115 1.80914 50.6999C1.34361 50.2767 0.962642 49.8325 0.666397 49.3035C0.370153 48.7957 0.222113 48.1608 0.222113 47.4202C0.222113 46.9124 0.327966 46.4467 0.53957 46.0024C0.751173 45.5792 1.04725 45.1982 1.42814 44.902C1.80902 44.6058 2.29581 44.3519 2.84597 44.1826C3.4173 44.0133 4.05217 43.9287 4.75046 43.9287C6.29516 43.9287 7.6493 44.1826 8.85544 44.7116V46.8912C8.85544 47.0605 8.79205 47.1661 8.68625 47.2084C8.55929 47.2507 8.45337 47.2086 8.30525 47.1028C7.33187 46.2775 6.27384 45.8753 5.11002 45.8753C4.47521 45.8753 3.98864 46.0024 3.65008 46.2775C3.31151 46.5526 3.14225 46.9335 3.14225 47.4202C3.14225 47.7588 3.20564 48.0549 3.31144 48.3088C3.41724 48.5627 3.60768 48.7744 3.84045 48.9649C4.28482 49.3246 4.77162 49.6419 5.27946 49.917C5.78731 50.1921 6.2951 50.446 6.80295 50.6787C7.26847 50.8903 7.67043 51.1233 8.03015 51.3772C8.38988 51.6311 8.70742 51.906 8.96134 52.2234C9.21527 52.5408 9.40575 52.9006 9.53271 53.3238C9.65968 53.7258 9.72308 54.2126 9.72308 54.7416C9.72308 55.4187 9.59625 55.99 9.32116 56.4766C9.04608 56.9633 8.68631 57.3443 8.22078 57.6617C7.75526 57.9792 7.20502 58.2118 6.57021 58.3388C5.9354 58.4869 5.25836 58.5506 4.5389 58.5506C4.0099 58.5506 3.45967 58.4869 2.88834 58.3811C2.31701 58.2542 1.8092 58.1061 1.34367 57.9368C0.899306 57.7464 0.53958 57.5559 0.285656 57.3231C0.0317318 57.0903 -0.0528992 56.8789 0.0317421 56.6461L0.581932 55.2071L0.602854 55.1859Z" fill="white"/>
<path d="M11.3307 44.0771H14.3565V49.0289C14.7373 48.7114 15.1607 48.4573 15.6051 48.2669C16.0706 48.0764 16.5784 47.9918 17.1498 47.9918C17.7211 47.9918 18.2077 48.0766 18.6732 48.2247C19.1176 48.3729 19.5198 48.5843 19.8372 48.8806C20.1546 49.1557 20.4085 49.4942 20.5989 49.8751C20.7682 50.2559 20.874 50.7003 20.874 51.1658V58.2971H18.0807V51.5468C18.0807 50.5734 17.5517 50.0657 16.4725 50.0657C16.1128 50.0657 15.753 50.1291 15.4145 50.2772C15.0759 50.4254 14.7162 50.6159 14.3776 50.8698V58.2759H11.5846V45.8336C11.5846 45.5162 11.5633 45.2833 11.4999 45.114C11.4364 44.9447 11.3307 44.7542 11.1403 44.5638C11.0345 44.4368 11.0133 44.3101 11.0556 44.2254C11.0979 44.1196 11.2037 44.0771 11.3307 44.0771Z" fill="white"/>
<path d="M26.1003 48.3299V58.2966H23.3073V50.0864C23.3073 49.8113 23.2649 49.5784 23.2014 49.3879C23.1379 49.2187 23.0109 49.0282 22.8628 48.8377C22.757 48.7108 22.736 48.584 22.7783 48.4782C22.8206 48.3724 22.9053 48.3087 23.0534 48.3087H26.1003V48.3299ZM26.2063 45.177C26.2063 45.6637 26.0579 46.0659 25.7405 46.3833C25.4231 46.7007 25.0212 46.87 24.5345 46.87C24.0478 46.87 23.6247 46.7007 23.3285 46.3833C23.0111 46.0659 22.8628 45.6637 22.8628 45.177C22.8628 44.6904 23.0111 44.2884 23.3285 43.971C23.6459 43.6536 24.0478 43.4844 24.5345 43.4844C25.0212 43.4844 25.4443 43.6536 25.7405 43.971C26.0579 44.2884 26.2063 44.6904 26.2063 45.177Z" fill="white"/>
<path d="M28.3862 48.3298H31.3487V49.3034C31.7084 48.9437 32.1318 48.6473 32.5761 48.3722C33.0205 48.1183 33.5705 47.9912 34.2053 47.9912C34.7343 47.9912 35.2211 48.0549 35.6866 48.203C36.131 48.3511 36.5329 48.5626 36.8715 48.8589C37.2101 49.1339 37.464 49.4937 37.6544 49.9169C37.8449 50.3401 37.9295 50.8269 37.9295 51.3559V58.2965H35.1365V51.6098C35.1365 51.0385 35.0094 50.6363 34.7555 50.3823C34.5015 50.1284 34.0996 50.0016 33.5282 50.0016C33.1474 50.0016 32.7664 50.0862 32.4279 50.2343C32.0893 50.3825 31.7508 50.6153 31.4334 50.8904V58.2965H28.6401V50.1284C28.6401 49.811 28.5979 49.5783 28.5344 49.409C28.471 49.2398 28.3439 49.0493 28.1958 48.8589C28.0688 48.7319 28.0478 48.6051 28.0902 48.4993C28.1536 48.3935 28.2383 48.3298 28.3652 48.3298H28.3862Z" fill="white"/>
<path d="M40.0221 44.0771H43.0481V49.0289C43.429 48.7114 43.8521 48.4573 44.2965 48.2669C44.762 48.0764 45.2698 47.9918 45.8412 47.9918C46.4125 47.9918 46.8994 48.0766 47.3649 48.2247C47.8093 48.3729 48.2112 48.5843 48.5286 48.8806C48.846 49.1557 49.0999 49.4942 49.2903 49.8751C49.4596 50.2559 49.5654 50.7003 49.5654 51.1658V58.2971H46.7724V51.5468C46.7724 50.5734 46.2433 50.0657 45.1641 50.0657C44.8044 50.0657 44.4447 50.1291 44.1061 50.2772C43.7676 50.4254 43.4079 50.6159 43.0693 50.8698V58.2759H40.276V45.8336C40.276 45.5162 40.255 45.2833 40.1915 45.114C40.128 44.9447 40.0221 44.7542 39.8317 44.5638C39.7259 44.4368 39.7047 44.3101 39.747 44.2254C39.7893 44.1196 39.8951 44.0771 40.0221 44.0771Z" fill="white"/>
<path d="M55.8935 49.8533C55.3433 49.8533 54.8145 49.9592 54.2855 50.1708C53.7565 50.3824 53.2909 50.6153 52.8888 50.8692C52.6984 50.9962 52.5292 51.0384 52.4234 50.9749C52.3176 50.9114 52.2539 50.7846 52.2539 50.5941V48.732C52.7829 48.4993 53.3966 48.3088 54.1161 48.1818C54.8143 48.0549 55.4704 47.9912 56.0841 47.9912C57.4595 47.9912 58.5387 48.2663 59.2793 48.7953C60.0199 49.3243 60.4006 50.1497 60.4006 51.2712V58.3175H57.6711V57.2385C57.2902 57.7252 56.8246 58.0849 56.2956 58.2965C55.7666 58.5293 55.1952 58.6349 54.6027 58.6349C54.116 58.6349 53.6507 58.5503 53.2275 58.4022C52.8043 58.2541 52.4657 58.0426 52.1695 57.7463C51.8732 57.4713 51.6615 57.1325 51.4922 56.7516C51.3229 56.3707 51.2383 55.9476 51.2383 55.4609C51.2383 54.4029 51.6192 53.5566 52.3598 52.9429C53.1005 52.3293 54.2643 52.0117 55.8302 52.0117H57.6287V51.2712C57.6287 50.7633 57.4807 50.4036 57.1845 50.192C56.8882 49.9804 56.4648 49.8745 55.9146 49.8745L55.8935 49.8533ZM57.6076 53.8527H55.809C55.1319 53.8527 54.645 54.0009 54.3488 54.276C54.0525 54.5511 53.9045 54.9318 53.9045 55.3973C53.9045 55.7782 54.0104 56.0958 54.222 56.3497C54.4336 56.5825 54.7509 56.7095 55.1741 56.7095C55.6608 56.7095 56.1052 56.6037 56.5284 56.3921C56.9516 56.1805 57.3113 55.9053 57.6076 55.5456V53.8527Z" fill="white"/>
<path d="M62.4567 48.3298H65.419V49.3034C65.7787 48.9437 66.2021 48.6473 66.6464 48.3722C67.0908 48.1183 67.641 47.9912 68.2758 47.9912C68.8048 47.9912 69.2914 48.0549 69.757 48.203C70.2013 48.3511 70.6035 48.5626 70.9421 48.8589C71.2806 49.1339 71.5345 49.4937 71.725 49.9169C71.9154 50.3401 72.0001 50.8269 72.0001 51.3559V58.2965H69.2068V51.6098C69.2068 51.0385 69.0799 50.6363 68.826 50.3823C68.5721 50.1284 68.1699 50.0016 67.5986 50.0016C67.2177 50.0016 66.8367 50.0862 66.4982 50.2343C66.1596 50.3825 65.8211 50.6153 65.5037 50.8904V58.2965H62.7107V50.1284C62.7107 49.811 62.6682 49.5783 62.6048 49.409C62.5413 49.2398 62.4142 49.0493 62.2661 48.8589C62.1392 48.7319 62.1181 48.6051 62.1605 48.4993C62.2239 48.3935 62.3086 48.3298 62.4356 48.3298H62.4567Z" fill="white"/>
<path fill-rule="evenodd" clip-rule="evenodd" d="M17.7188 18.2826C17.7188 8.18908 25.9078 0 36.0013 0C46.0948 0 54.2839 8.18908 54.2839 18.2826C54.2839 28.376 46.0948 36.5651 36.0013 36.5651C25.9078 36.5651 17.7188 28.376 17.7188 18.2826ZM36.3614 33.2422C36.3613 33.2423 36.3612 33.2423 36.361 33.2423L36.3817 33.2217C34.2021 33.539 30.6263 32.9677 28.2142 31.4442C26.0982 30.1111 24.8497 28.4395 24.0245 26.7467C23.4095 25.4536 23.0295 23.9608 23.2436 23.3278C23.3167 23.1111 23.4594 22.995 23.686 23.0219C23.9676 23.0501 24.2211 23.4156 24.5962 23.9562C24.7847 24.2281 25.004 24.5442 25.273 24.8841C25.8232 25.5824 26.3312 26.1749 26.7121 26.2595C26.8813 26.3019 27.0294 26.2172 27.1352 25.9844C27.1938 25.8724 27.2566 25.7362 27.3264 25.5845C27.5334 25.1347 27.8029 24.5494 28.2144 24.0588C28.6587 23.5509 29.1877 23.297 29.5051 24.5666C29.6532 25.1803 29.7803 25.8362 29.8438 26.3864C29.8522 26.4488 29.8602 26.5093 29.868 26.5679C29.9578 27.2446 30.0137 27.6662 30.2669 27.783C30.5152 27.9072 30.9659 27.748 31.6585 27.5035L31.7059 27.4867C32.2137 27.2963 32.8907 27.0425 33.716 26.8097C34.4394 26.6142 34.9098 26.6895 34.5767 27.6533C34.5492 27.7328 34.5163 27.8184 34.4776 27.9104C34.2448 28.4817 34.0121 28.9473 33.1656 30.1535C33.1327 30.2005 33.1082 30.2475 33.092 30.2943C33.0356 30.458 33.0814 30.6187 33.2294 30.7667C33.5044 31.0418 34.1393 31.3802 34.8376 31.6765C35.3877 31.9092 36.0649 32.1209 36.5093 32.2478C36.8927 32.3524 37.0209 32.61 36.943 32.8386C36.8792 33.0266 36.6761 33.195 36.3609 33.2428L36.3614 33.2422ZM41.926 32.3963C43.6612 31.5922 45.1002 30.3862 45.7774 29.2858L45.777 29.2862C45.7772 29.2859 45.7774 29.2856 45.7775 29.2853L45.7567 29.3062C45.9405 29.004 46.1106 28.656 46.2471 28.272C46.9906 26.1814 46.7403 23.0225 42.3072 20.3769C40.1773 19.099 38.5094 18.1549 37.1404 17.38C35.3133 16.3458 34.0188 15.6131 32.8695 14.7906C29.5474 12.4206 29.0184 10.643 28.9126 9.41574C28.8603 8.81194 28.9482 8.22408 29.1383 7.66963C29.6411 6.20352 30.8582 4.97113 32.0864 4.29561C32.1713 4.25318 32.294 4.14459 32.3407 4.00774C32.3641 3.9397 32.3687 3.86466 32.3405 3.78728C32.2559 3.55452 31.9385 3.59667 31.8327 3.61783C29.0029 4.23439 26.2321 6.24476 25.2499 9.08406C25.2351 9.12685 25.2207 9.16984 25.2067 9.21301C24.9065 10.1394 24.7962 11.1517 24.9342 12.2307C25.167 13.987 26.2885 16.9706 32.1076 20.3986C33.1823 21.0388 34.1768 21.5864 35.2878 22.1982C36.2331 22.7187 37.2627 23.2857 38.4981 23.9957C41.4979 25.7049 43.1753 27.831 42.4046 30.1607C42.3863 30.2159 42.3667 30.2712 42.3456 30.3266C42.1774 30.7699 41.9203 31.2204 41.5667 31.6765C41.4621 31.7941 41.3656 31.9198 41.3221 32.0436C41.295 32.1204 41.2882 32.1965 41.3126 32.2695C41.3761 32.4811 41.6721 32.5233 41.926 32.3963ZM43.5716 7.62934C43.532 7.74132 43.5348 7.88034 43.598 8.01935C43.8307 8.50604 44.6136 8.75994 45.6928 9.05618C47.5761 9.56403 47.5971 11.3203 46.6238 12.5053L46.6028 12.5474C45.3967 14.0075 44.2116 13.4575 43.2805 11.4049C42.7092 10.1142 41.9474 9.818 41.4184 10.1566C41.2843 10.241 41.1934 10.3545 41.1412 10.492C41.1377 10.5011 41.1344 10.5104 41.1312 10.5197C40.9808 10.9691 41.2229 11.6591 41.7147 12.4206C41.99 12.8473 42.0056 13.3278 41.8606 13.7397C41.7827 13.9609 41.6584 14.1624 41.5031 14.3251C41.0376 14.8118 40.2759 15.0022 39.4506 14.8117C37.9694 14.4943 36.5305 12.5052 37.5885 8.18854C37.9669 6.63711 37.3471 5.88078 36.8335 5.254C36.7727 5.17977 36.7133 5.10737 36.6573 5.03567C36.4307 4.75679 36.3765 4.57831 36.4235 4.44127C36.4336 4.41194 36.4483 4.38451 36.4669 4.35839C36.5728 4.21027 36.8267 4.21047 37.2499 4.29511C37.4634 4.34257 37.7154 4.41072 37.9826 4.48299C38.4303 4.60406 38.9207 4.73668 39.3447 4.80294C39.8103 4.86642 40.318 4.88764 40.8682 4.86648C42.3283 4.803 43.4286 5.03569 44.5289 5.58586C45.8298 6.22898 46.3229 7.1952 46.1618 7.68946C46.1589 7.69849 46.1557 7.70736 46.1523 7.71607C46.073 7.92112 45.8734 8.03636 45.5656 7.99867C45.2728 7.96423 44.9101 7.77564 44.5798 7.60396C44.5043 7.56469 44.4305 7.5263 44.3595 7.49084C44.1056 7.36388 43.873 7.32152 43.7037 7.44848C43.6442 7.491 43.5983 7.55404 43.5716 7.62934Z" fill="white"/>
</svg>
