<svg width="60" height="48" viewBox="0 0 60 48" fill="none" xmlns="http://www.w3.org/2000/svg">
<path d="M3.44481 43.6113C3.64785 43.7775 3.87858 43.9251 4.137 44.0543C4.39542 44.1835 4.66294 44.2943 4.93059 44.3866C5.19824 44.4789 5.46599 44.5527 5.73364 44.5989C6.00129 44.645 6.24129 44.6727 6.47202 44.6727C7.02577 44.6727 7.46871 44.5527 7.7825 44.322C8.09629 44.0913 8.2532 43.7405 8.2532 43.2699C8.2532 42.9099 8.17012 42.6146 8.00399 42.3654C7.83787 42.1162 7.52405 41.8855 7.06259 41.6547C6.79495 41.5163 6.54569 41.3963 6.30573 41.2856C6.06577 41.1748 5.84428 41.0641 5.62278 40.9441C5.40128 40.8241 5.18906 40.7041 4.98602 40.5657C4.78297 40.4365 4.58001 40.2888 4.37697 40.1227C4.01703 39.7997 3.73097 39.449 3.50024 39.0429C3.26951 38.646 3.15865 38.1569 3.15865 37.5847C3.15865 37.1878 3.24172 36.8279 3.39862 36.4956C3.55552 36.1634 3.78625 35.8773 4.09081 35.6373C4.39537 35.3973 4.75526 35.2127 5.18903 35.0835C5.62281 34.9543 6.11205 34.8805 6.6658 34.8805C7.85637 34.8805 8.90844 35.0835 9.83136 35.4804V37.1693C9.83136 37.2985 9.7853 37.3816 9.69301 37.4093C9.60072 37.437 9.50837 37.4093 9.40685 37.3355C8.65928 36.7079 7.83796 36.3941 6.94272 36.3941C6.45357 36.3941 6.0752 36.4956 5.81678 36.7079C5.55836 36.9201 5.429 37.2063 5.429 37.5847C5.429 37.8523 5.47528 38.0738 5.56758 38.2676C5.65987 38.4614 5.79826 38.6276 5.98285 38.7752C6.33356 39.0613 6.70269 39.3013 7.09955 39.5136C7.4964 39.7258 7.88405 39.9197 8.27167 40.1042C8.63161 40.2704 8.94544 40.4457 9.22231 40.6395C9.49919 40.8333 9.73917 41.0548 9.93298 41.2948C10.1268 41.544 10.2744 41.8209 10.376 42.1347C10.4775 42.4485 10.5236 42.8176 10.5236 43.2422C10.5236 43.759 10.422 44.2112 10.2189 44.5804C10.0159 44.9496 9.72983 45.2541 9.36066 45.4941C8.99149 45.7341 8.56705 45.9094 8.0779 46.0202C7.58875 46.1309 7.06273 46.1863 6.50897 46.1863C6.09366 46.1863 5.66899 46.1401 5.22599 46.0479C4.78298 45.9556 4.3861 45.8356 4.04462 45.6971C3.69391 45.5587 3.42636 45.4018 3.22332 45.2265C3.02027 45.0511 2.95571 44.8757 3.02954 44.7096L3.45405 43.6021L3.44481 43.6113Z" fill="#0046FF"/>
<path d="M11.7326 35.0465H14.0769V38.8674C14.3722 38.6182 14.6953 38.4244 15.046 38.286C15.406 38.1476 15.8026 38.0737 16.2364 38.0737C16.6702 38.0737 17.0578 38.1291 17.4085 38.2491C17.7592 38.3691 18.0638 38.5352 18.313 38.7475C18.5622 38.9597 18.7561 39.2181 18.8945 39.5227C19.033 39.8273 19.0975 40.1595 19.0975 40.5195V46.0293H16.9471V40.8056C16.9471 40.0488 16.5319 39.6704 15.7013 39.6704C15.4152 39.6704 15.1474 39.7258 14.8797 39.8365C14.6121 39.9473 14.3445 40.1042 14.0677 40.298V46.0201H11.9172V36.4032C11.9172 36.1633 11.8987 35.9787 11.8525 35.8403C11.8064 35.7018 11.7143 35.5634 11.5758 35.4157C11.4928 35.3142 11.4742 35.2219 11.5112 35.1481C11.5481 35.0742 11.6219 35.0281 11.7234 35.0281L11.7326 35.0465Z" fill="#0046FF"/>
<path d="M23.1396 38.3321V46.0292H20.9894V39.6888C20.9894 39.4673 20.9616 39.2919 20.9155 39.1535C20.8693 39.015 20.777 38.8766 20.6478 38.7289C20.5647 38.6274 20.5464 38.5351 20.5834 38.4521C20.6203 38.369 20.6849 38.3321 20.7864 38.3321H23.1396ZM23.2228 35.8956C23.2228 36.274 23.1029 36.5785 22.8629 36.8277C22.623 37.0769 22.3092 37.1969 21.9215 37.1969C21.5339 37.1969 21.2293 37.0769 20.9801 36.8277C20.7402 36.5785 20.6201 36.274 20.6201 35.8956C20.6201 35.5172 20.7402 35.2126 20.9801 34.9634C21.2201 34.7142 21.5339 34.5942 21.9215 34.5942C22.3092 34.5942 22.6138 34.7142 22.8629 34.9634C23.1029 35.2126 23.2228 35.5172 23.2228 35.8956Z" fill="#0046FF"/>
<path d="M24.8936 38.332H27.1824V39.0888C27.4685 38.8119 27.7823 38.5812 28.133 38.3782C28.4837 38.1751 28.8989 38.0736 29.3881 38.0736C29.8034 38.0736 30.1818 38.129 30.5232 38.249C30.874 38.3597 31.1693 38.5258 31.4369 38.7473C31.6953 38.9688 31.8985 39.2365 32.0462 39.5595C32.1939 39.8825 32.2677 40.2517 32.2677 40.6762V46.0292H30.1172V40.8608C30.1172 40.4178 30.0156 40.104 29.8218 39.9102C29.628 39.7164 29.3052 39.6149 28.8714 39.6149C28.5668 39.6149 28.2898 39.6703 28.0222 39.7902C27.7545 39.9102 27.5055 40.0764 27.2563 40.2979V46.02H25.1058V39.7072C25.1058 39.4672 25.078 39.2826 25.0319 39.1442C24.9858 39.0058 24.8934 38.8673 24.7642 38.7197C24.6719 38.6181 24.6444 38.5258 24.6905 38.4428C24.7367 38.3597 24.8013 38.3228 24.9028 38.3228L24.8936 38.332Z" fill="#0046FF"/>
<path d="M33.892 35.0465H36.2362V38.8674C36.5315 38.6182 36.8544 38.4244 37.2051 38.286C37.565 38.1476 37.9619 38.0737 38.3957 38.0737C38.8295 38.0737 39.2171 38.1291 39.5678 38.2491C39.9185 38.3691 40.2231 38.5352 40.4723 38.7475C40.7215 38.9597 40.9154 39.2181 41.0538 39.5227C41.1923 39.8273 41.2569 40.1595 41.2569 40.5195V46.0293H39.1064V40.8056C39.1064 40.0488 38.6912 39.6704 37.8606 39.6704C37.5745 39.6704 37.3067 39.7258 37.039 39.8365C36.7714 39.9473 36.5038 40.1042 36.227 40.298V46.0201H34.0765V36.4032C34.0765 36.1633 34.058 35.9787 34.0118 35.8403C33.9657 35.7018 33.8736 35.5634 33.7351 35.4157C33.6521 35.3142 33.6335 35.2219 33.6705 35.1481C33.7074 35.0742 33.7812 35.0281 33.8827 35.0281L33.892 35.0465Z" fill="#0046FF"/>
<path d="M46.1392 39.5042C45.7147 39.5042 45.2993 39.5873 44.8932 39.7442C44.4779 39.9011 44.118 40.0857 43.8134 40.2887C43.6565 40.3902 43.5364 40.4179 43.4534 40.3718C43.3703 40.3256 43.3335 40.2241 43.3335 40.0672V38.6367C43.7488 38.4521 44.2195 38.3136 44.7641 38.2121C45.3086 38.1106 45.8161 38.0645 46.2776 38.0645C47.3481 38.0645 48.1695 38.2675 48.7509 38.6828C49.3324 39.0981 49.6186 39.7257 49.6186 40.584V46.0201H47.5051V45.1802C47.2005 45.5586 46.8497 45.8262 46.4344 46.0016C46.0191 46.1769 45.5854 46.26 45.1239 46.26C44.7363 46.26 44.3857 46.2046 44.0719 46.0846C43.7488 45.9647 43.4811 45.7985 43.2596 45.5863C43.0381 45.374 42.8629 45.1156 42.7337 44.8203C42.6045 44.5249 42.5397 44.1927 42.5397 43.8235C42.5397 43.0021 42.8259 42.3468 43.4074 41.8761C43.9888 41.3962 44.884 41.1562 46.0838 41.1562H47.4682V40.5748C47.4682 40.1872 47.3573 39.9103 47.1266 39.7442C46.8958 39.5781 46.573 39.495 46.1392 39.495V39.5042ZM47.4682 42.596H46.0745C45.5485 42.596 45.1701 42.7068 44.9394 42.919C44.7179 43.1405 44.607 43.4266 44.607 43.7866C44.607 44.0819 44.6901 44.3311 44.8562 44.5157C45.0223 44.7003 45.2716 44.7926 45.5854 44.7926C45.9638 44.7926 46.3054 44.7095 46.6284 44.5526C46.9514 44.3957 47.2282 44.1742 47.4682 43.9066V42.596Z" fill="#0046FF"/>
<path d="M51.2061 38.332H53.4949V39.0888C53.781 38.8119 54.0948 38.5812 54.4455 38.3782C54.7962 38.1751 55.2114 38.0736 55.7006 38.0736C56.1159 38.0736 56.4943 38.129 56.8357 38.249C57.1865 38.3597 57.4818 38.5258 57.7494 38.7473C58.0078 38.9688 58.211 39.2365 58.3587 39.5595C58.5064 39.8825 58.5802 40.2517 58.5802 40.6762V46.0292H56.4297V40.8608C56.4297 40.4178 56.3281 40.104 56.1343 39.9102C55.9405 39.7164 55.6177 39.6149 55.1839 39.6149C54.8793 39.6149 54.6023 39.6703 54.3347 39.7902C54.067 39.9102 53.818 40.0764 53.5688 40.2979V46.02H51.4183V39.7072C51.4183 39.4672 51.3905 39.2826 51.3444 39.1442C51.2983 39.0058 51.2059 38.8673 51.0767 38.7197C50.9844 38.6181 50.9569 38.5258 51.003 38.4428C51.0492 38.3597 51.1138 38.3228 51.2153 38.3228L51.2061 38.332Z" fill="#0046FF"/>
<path d="M30.7817 0.999878C22.9831 0.999878 16.652 7.32189 16.652 15.1298C16.652 22.9377 22.9738 29.2598 30.7817 29.2598C38.5897 29.2598 44.9117 22.9377 44.9117 15.1298C44.9117 7.32189 38.5897 0.999878 30.7817 0.999878ZM31.0771 26.6663C29.3882 26.9063 26.6378 26.4725 24.7735 25.3004C23.1399 24.2667 22.1709 22.9839 21.534 21.6733C20.888 20.3351 20.5836 18.7108 21.2758 18.7938C21.5988 18.8307 21.8756 19.4399 22.4939 20.2336C22.9185 20.7781 23.306 21.2303 23.6014 21.2949C23.7306 21.3226 23.8414 21.2672 23.9337 21.0827C24.1091 20.7504 24.349 20.1044 24.7735 19.5875C25.115 19.1907 25.5304 19.0061 25.7703 19.9752C25.8903 20.4551 25.9826 20.9535 26.0288 21.3872C26.1026 21.9964 26.1396 22.3655 26.3519 22.467C26.5549 22.5686 26.8964 22.4394 27.4594 22.2271C27.8562 22.0794 28.373 21.8856 29.019 21.701C29.6189 21.5257 29.9972 21.618 29.6096 22.5501C29.425 22.9839 29.2498 23.3531 28.5945 24.2852C28.4838 24.4513 28.5023 24.6082 28.6407 24.7559C28.853 24.9682 29.3512 25.2266 29.8865 25.4665C30.3203 25.6511 30.828 25.8172 31.1695 25.9095C31.7048 26.0572 31.594 26.6017 31.0587 26.6756L31.0771 26.6663ZM38.3222 23.6299C37.7961 24.4882 36.6976 25.4112 35.3594 26.0295C35.1564 26.1218 34.9443 26.0941 34.8889 25.928C34.8428 25.7803 34.9535 25.6234 35.0919 25.4665C36.8363 23.2054 35.5441 21.138 32.7292 19.5229C30.6526 18.3323 29.3328 17.6494 27.8007 16.7449C23.3061 14.0961 22.4385 11.7981 22.2632 10.4321C21.8202 6.98964 24.672 4.40545 27.5977 3.78709C27.69 3.76863 27.9207 3.73173 27.9945 3.92554C28.0683 4.11935 27.893 4.25778 27.7915 4.32239C26.4809 5.04227 25.1982 6.57432 25.3366 8.2725C25.4104 9.22311 25.8258 10.589 28.3915 12.4164C29.942 13.5239 31.8431 14.4284 35.6733 16.7265C39.7249 19.1538 39.2636 22.1163 38.3314 23.6207L38.3222 23.6299ZM38.9589 10.709C38.036 11.8442 37.1131 11.4197 36.4024 9.82301C35.9594 8.82626 35.3779 8.58629 34.9626 8.85394C34.5104 9.14005 34.695 9.82301 35.1933 10.5983C35.5256 11.1151 35.378 11.715 35.0365 12.0749C34.6766 12.4533 34.0859 12.601 33.4491 12.4533C32.3139 12.2041 31.1879 10.6721 32.0093 7.34957C32.3416 6.00211 31.6955 5.4299 31.2894 4.91306C31.0864 4.65464 31.0587 4.49775 31.1326 4.39622C31.2156 4.28547 31.4001 4.27625 31.7416 4.34085C32.1846 4.43314 32.8307 4.65464 33.3567 4.7377C33.7074 4.79308 34.1043 4.81155 34.5289 4.79309C35.6641 4.74694 36.504 4.92229 37.3623 5.34683C38.8205 6.06671 38.9681 7.30343 38.1559 7.21114C37.879 7.17422 37.519 6.96195 37.2145 6.82351C37.0114 6.73122 36.8455 6.6943 36.7163 6.78659C36.5963 6.86965 36.5501 7.05425 36.6332 7.2296C36.8177 7.608 37.4269 7.80181 38.2483 8.03254C39.6973 8.4294 39.725 9.77686 38.9682 10.6998L38.9589 10.709Z" fill="#0046FF"/>
<path d="M31.0773 26.6571C29.3884 26.897 26.638 26.4632 24.7737 25.2911C23.1401 24.2575 22.1711 22.9746 21.5343 21.6641C20.8882 20.3258 20.5838 18.7015 21.276 18.7845C21.5991 18.8214 21.8758 19.4306 22.4941 20.2243C22.9187 20.7688 23.3063 21.2211 23.6016 21.2857C23.7308 21.3133 23.8416 21.258 23.9339 21.0734C24.1093 20.7411 24.3492 20.0951 24.7737 19.5782C25.1152 19.1814 25.5306 18.9968 25.7705 19.9659C25.8905 20.4458 25.9828 20.9442 26.029 21.378C26.1028 21.9871 26.1398 22.3562 26.3521 22.4578C26.5551 22.5593 26.8966 22.4301 27.4596 22.2178C27.8564 22.0701 28.3732 21.8763 29.0192 21.6917C29.6191 21.5164 29.9974 21.6087 29.6098 22.5408C29.4252 22.9746 29.25 23.3438 28.5947 24.2759C28.484 24.4421 28.5025 24.5989 28.6409 24.7466C28.8532 24.9589 29.3514 25.2173 29.8867 25.4573C30.3205 25.6419 30.8282 25.808 31.1697 25.9003C31.705 26.0479 31.5942 26.5925 31.0589 26.6663L31.0773 26.6571ZM38.3224 23.6206C37.7963 24.479 36.6978 25.4019 35.3596 26.0203C35.1566 26.1125 34.9445 26.0849 34.8891 25.9187C34.843 25.7711 34.9537 25.6142 35.0921 25.4573C36.8365 23.1961 35.5443 21.1288 32.7294 19.5136C30.6528 18.3231 29.333 17.6401 27.8009 16.7356C23.3063 14.0869 22.4388 11.7888 22.2634 10.4229C21.8204 6.98036 24.6722 4.39618 27.5979 3.77782C27.6902 3.75936 27.9209 3.72244 27.9947 3.91625C28.0685 4.11007 27.8932 4.24851 27.7917 4.31312C26.4811 5.033 25.1984 6.56505 25.3368 8.26322C25.4106 9.21383 25.826 10.5798 28.3917 12.4071C29.9422 13.5147 31.8434 14.4191 35.6735 16.7172C39.7251 19.1445 39.2638 22.1071 38.3316 23.6114L38.3224 23.6206ZM38.9591 10.6997C38.0362 11.8349 37.1133 11.4104 36.4026 9.81372C35.9596 8.81697 35.3781 8.57702 34.9628 8.84467C34.5106 9.13077 34.6952 9.81374 35.1935 10.589C35.5258 11.1058 35.3782 11.7057 35.0367 12.0657C34.6768 12.4441 34.0861 12.5917 33.4493 12.4441C32.3141 12.1949 31.1881 10.6628 32.0095 7.3403C32.3418 5.99283 31.6957 5.42062 31.2896 4.90379C31.0866 4.64537 31.0589 4.48847 31.1328 4.38695C31.2158 4.2762 31.4003 4.26697 31.7418 4.33158C32.1848 4.42387 32.8309 4.64537 33.3569 4.72843C33.7076 4.7838 34.1045 4.80226 34.5291 4.7838C35.6643 4.73766 36.5042 4.91302 37.3625 5.33756C38.8207 6.05744 38.9683 7.29416 38.1561 7.20187C37.8792 7.16495 37.5193 6.95267 37.2147 6.81423C37.0116 6.72194 36.8457 6.68502 36.7165 6.77732C36.5965 6.86038 36.5503 7.04496 36.6334 7.22032C36.8179 7.59871 37.4271 7.79254 38.2485 8.02327C39.6975 8.42012 39.7252 9.76759 38.9684 10.6905L38.9591 10.6997Z" fill="white"/>
</svg>
