<svg width="24" height="24" viewBox="0 0 24 24" fill="none" xmlns="http://www.w3.org/2000/svg">
<path fill-rule="evenodd" clip-rule="evenodd" d="M0 12C0 5.37258 5.37258 0 12 0C18.6274 0 24 5.37258 24 12C24 18.6274 18.6274 24 12 24C5.37258 24 0 18.6274 0 12Z" fill="#03B89F"/>
<path fill-rule="evenodd" clip-rule="evenodd" d="M20.6938 8.27987C19.9721 8.76756 19.2079 9.18907 18.4104 9.53927C15.9532 10.4928 13.2129 10.81 10.5988 11.1896C9.06505 11.4056 7.52693 11.4878 6.00457 11.5842C5.4148 11.5654 4.84317 11.3758 4.35899 11.0385C3.85228 10.7567 3.42539 10.3509 3.1183 9.85907C2.9716 9.43512 2.90375 8.79552 3.265 8.45554C3.60205 8.23255 4.02343 8.17837 4.40594 8.30885C4.84331 8.30128 5.28009 8.34448 5.70751 8.43757C6.40176 8.54466 7.10114 8.68072 7.79245 8.77938C11.8285 9.35077 16.1494 9.07974 20.0549 7.64761C20.2276 7.57426 20.4356 7.51375 20.5918 7.45653C20.6938 7.44753 20.7951 7.48057 20.8721 7.54801C20.9492 7.61545 20.9954 7.71144 21 7.81374C20.9741 8.00761 20.8614 8.17917 20.6938 8.27987ZM11.5212 8.00186C10.6962 8.00857 10.0219 7.34525 10.015 6.52021V6.4861C10.0141 6.22688 10.0983 5.97452 10.2545 5.76765C10.3855 5.51871 10.5926 5.31813 10.8457 5.19516C11.156 5.05659 11.4937 4.99025 11.8333 5.00116C12.1384 5.00116 12.7065 5.00666 12.6867 5.44308C12.6724 5.76508 12.8177 5.89638 12.9467 6.16594C12.9933 6.27869 13.0207 6.39843 13.0278 6.52021C13.0245 6.91648 12.8639 7.29521 12.5814 7.57307C12.2988 7.85094 11.9175 8.00518 11.5212 8.00186ZM8.76091 13.403C9.17558 12.6567 9.8761 12.1113 10.7013 11.8923C11.5265 11.6732 12.4052 11.7995 13.1354 12.2419C13.787 12.6287 14.2875 13.2257 14.5547 13.9348C14.6664 14.1285 14.7382 14.3426 14.766 14.5645C14.864 15.2079 14.8413 15.864 14.6989 16.499C14.6134 16.9412 14.4973 17.3768 14.3512 17.8028C14.0154 18.9759 13.3932 20.0472 12.5406 20.9201C12.4169 21.0934 12.1977 21.1701 11.993 21.1119C11.9403 21.0924 11.8944 21.0579 11.861 21.0126C11.7876 20.9025 11.8467 20.7632 11.9028 20.6517C11.9253 20.5056 11.9579 20.3612 12.0004 20.2197C12.4589 18.8065 12.6827 17.3278 12.6631 15.8422C12.6541 15.5064 12.5839 15.175 12.4559 14.8645C12.3136 14.5509 12.0309 14.3235 11.6941 14.2516C11.4919 14.2155 11.284 14.2698 11.1253 14.4002C11.0428 14.3815 10.9643 14.4816 10.8979 14.4955C10.8097 14.6151 10.7302 14.7408 10.6599 14.8718C10.5284 15.3006 10.5173 15.7574 10.628 16.1921C10.7249 16.5439 10.5974 16.9192 10.3064 17.1394C10.0453 17.2936 9.7275 17.318 9.44599 17.2054C9.17151 17.0977 8.94437 16.8958 8.80528 16.6358C8.29734 15.8708 8.36959 14.7427 8.55663 13.9047C8.61018 13.7334 8.67729 13.5985 8.75907 13.4048L8.76091 13.403Z" fill="white"/>
</svg>
