<svg width="24" height="24" viewBox="0 0 24 24" fill="none" xmlns="http://www.w3.org/2000/svg">
<mask id="mask0_5674_37777" style="mask-type:alpha" maskUnits="userSpaceOnUse" x="0" y="0" width="24" height="24">
<rect width="24" height="24" rx="12" fill="#0B4DA2"/>
</mask>
<g mask="url(#mask0_5674_37777)">
<rect width="24" height="24" rx="12" fill="white"/>
<rect width="24" height="15.5" rx="7.75" fill="#007DC5"/>
<path d="M14.5538 17.2342C16.9184 16.7902 24.9025 15.0182 23.9172 10.1082C23.5653 8.34376 21.8834 6.40479 19.3428 5.05776C17.0445 3.99292 14.5638 3.4628 12.0626 3.50203C4.36003 3.50203 -0.999023 7.89601 -0.999023 13.3145C-0.999023 17.0862 1.56719 20.6108 5.75098 22.25C6.62714 19.7305 10.1941 18.0462 14.5538 17.2342Z" fill="#007DC5"/>
<path d="M11.8787 19.1942C8.52339 19.7349 6.98742 21.1284 6.00098 22.8209C7.87939 23.6248 9.84813 24.0229 11.8275 23.999C19.3025 23.999 24.501 18.9128 24.501 12.6397C24.5009 12.0895 24.4609 11.5406 24.3815 11C24.146 18.3677 15.5582 18.6051 11.8787 19.1942Z" fill="url(#paint0_linear_5674_37777)"/>
<path d="M4.80119 8.5625H2.22852L2.25655 8.6361C2.3588 9.03765 2.39316 9.45348 2.3582 9.86636C2.3582 9.97151 2.3582 15.8249 2.3582 15.8249H2.40726C2.40726 15.8249 3.58145 15.8669 4.68202 15.8669C6.9813 15.8669 8.53752 14.3107 8.53752 11.9904C8.5235 9.90141 7.06191 8.5625 4.80119 8.5625ZM3.45876 9.21093C3.60597 9.21093 4.06162 9.16536 4.38759 9.16536C6.3539 9.16536 7.2687 10.1187 7.2687 12.1621C7.2687 14.2651 6.45554 15.3166 4.78366 15.3166C3.5569 15.3166 3.45876 15.2571 3.45876 14.5315V9.21093Z" fill="white"/>
<path d="M15.4314 15.7589C15.3928 15.3312 15.3753 15.0579 15.3753 14.795V12.2539H14.1555L14.1941 12.3345C14.2913 12.5818 14.3332 12.8474 14.3168 13.1126C14.3168 13.1301 14.3168 14.8651 14.2747 15.2892C13.9639 15.3574 13.6466 15.3915 13.3283 15.3908C11.3866 15.3908 10.4017 14.2762 10.4017 12.0821C10.4017 10.4067 11.5093 9.15543 13.097 9.03976C13.8638 8.9599 14.632 9.1783 15.2421 9.64964L15.3297 9.72675V8.69978H15.2876C14.7367 8.58058 14.1758 8.5137 13.6123 8.5C10.8083 8.5 9.15039 9.9686 9.15039 12.4326C9.15039 15.0544 11.1868 15.9902 13.0935 15.9902C13.8608 15.9926 14.6271 15.9364 15.3858 15.8219H15.4349L15.4314 15.7589Z" fill="white"/>
<path d="M19.7958 11.8292C20.1797 11.7365 20.5222 11.5196 20.77 11.2122C21.0179 10.9048 21.1572 10.524 21.1662 10.1292C21.1662 9.14784 20.2795 8.5625 18.7968 8.5625H16.5957V8.62559C16.6516 8.94248 16.6739 9.26439 16.6623 9.58597V15.8704H16.7149C16.7149 15.8704 17.5806 15.8529 18.6426 15.8529C20.4933 15.8529 21.5553 15.0503 21.5553 13.6483C21.5693 12.7825 20.8508 12.057 19.7958 11.8292ZM17.7734 12.1797H18.3412C19.6521 12.1797 20.318 12.6949 20.318 13.7114C20.318 14.7278 19.7467 15.3026 18.5655 15.3026C17.9977 15.3026 17.7734 15.0958 17.7734 14.5666V12.1797ZM17.7734 9.1268H18.4919C19.624 9.1268 20.1077 9.47731 20.1077 10.2729C20.1077 11.1842 19.5154 11.6119 18.2396 11.6119H17.7699L17.7734 9.1268Z" fill="white"/>
</g>
<defs>
<linearGradient id="paint0_linear_5674_37777" x1="5.69719" y1="17.4973" x2="24.6546" y2="17.4973" gradientUnits="userSpaceOnUse">
<stop offset="0.1" stop-color="#007DC5"/>
<stop offset="0.23" stop-color="#0083CB"/>
<stop offset="0.4" stop-color="#0095DA"/>
<stop offset="0.75" stop-color="#00B49D"/>
<stop offset="1" stop-color="#71BF44"/>
</linearGradient>
</defs>
</svg>
