<svg width="24" height="24" viewBox="0 0 24 24" fill="none" xmlns="http://www.w3.org/2000/svg">
<path fill-rule="evenodd" clip-rule="evenodd" d="M0 12C0 5.37258 5.37258 0 12 0C18.6274 0 24 5.37258 24 12C24 18.6274 18.6274 24 12 24C5.37258 24 0 18.6274 0 12Z" fill="#056DAE"/>
<path fill-rule="evenodd" clip-rule="evenodd" d="M18.0854 17.2035V10.4678H19.4135V17.2035H18.0854ZM16.7332 16.9963C16.382 17.2182 15.9709 17.3262 15.5561 17.3056C14.6749 17.2869 14.086 16.5794 14.086 15.5446V11.7423H12.9635V10.4759H14.086V9.10277L15.3858 8.37891V10.4759H16.7365V11.7423H15.3858V15.316C15.3858 15.8405 15.5787 16.0755 16.0077 16.0755C16.3515 16.0537 16.6862 15.9553 16.9871 15.7876L17.0655 15.6896L16.8108 16.9893L16.7332 16.9963ZM10.4653 10.4678H11.8018V17.2035H10.4653V10.4678ZM7.3712 16.013C7.97265 15.9861 8.53601 15.711 8.92692 15.2531H8.95658L9.70678 16.2029L9.68678 16.1893C9.15063 16.9178 8.29599 17.3429 7.39153 17.3311C6.51891 17.3443 5.67215 17.0347 5.01397 16.4615C4.33762 15.7605 3.97291 14.8161 4.00249 13.8424C3.96599 12.8802 4.3326 11.9465 5.01397 11.2662C5.65933 10.6677 6.51151 10.3425 7.39153 10.359C8.29563 10.3477 9.14991 10.7723 9.68678 11.4998L9.70678 11.5511L8.95658 12.4869L8.92692 12.439C8.53671 11.9798 7.97316 11.7036 7.3712 11.6764C6.18842 11.6764 5.34058 12.5889 5.34058 13.8427C5.34058 15.0965 6.18842 16.013 7.3712 16.013Z" fill="white"/>
<path fill-rule="evenodd" clip-rule="evenodd" d="M19.943 8.88111C18.9185 7.09881 17.0196 6 14.9639 6C12.9081 6 11.0092 7.09881 9.98477 8.88111L9.92578 8.97309H11.3982L11.3825 9.00142C12.2566 7.92014 13.5725 7.29178 14.9629 7.29178C16.3532 7.29178 17.6691 7.92014 18.5432 9.00142L18.5602 8.97309H19.9999L19.943 8.88111Z" fill="#E02D2C"/>
</svg>
