<svg width="24" height="24" viewBox="0 0 24 24" fill="none" xmlns="http://www.w3.org/2000/svg">
<circle cx="12" cy="12" r="12" fill="#FAFAFA"/>
<mask id="mask0_5674_38337" style="mask-type:luminance" maskUnits="userSpaceOnUse" x="0" y="0" width="24" height="24">
<circle cx="12" cy="12" r="12" fill="white"/>
</mask>
<g mask="url(#mask0_5674_38337)">
<path fill-rule="evenodd" clip-rule="evenodd" d="M21.0797 16.1843C20.816 15.8012 20.5085 15.4502 20.1634 15.1384C19.6707 14.7255 19.2031 14.2837 18.7629 13.8153C18.4926 13.5294 18.2371 13.23 17.9972 12.9182C17.6815 12.6232 17.1166 12.0508 17.0923 12.0508H15.7227V14.001C16.0635 14.361 16.9282 15.1024 17.3059 15.5122C18.143 16.2623 19.128 17.0799 19.8367 17.4177C20.4871 17.7276 20.9105 17.4435 21.0317 17.2449C21.2334 16.9245 21.2516 16.5216 21.0797 16.1843Z" fill="#B1CD65"/>
<path fill-rule="evenodd" clip-rule="evenodd" d="M17.4467 12.3781C17.444 12.3664 17.5025 12.3532 17.4611 12.3406C17.4218 12.3261 17.3871 12.3015 17.3606 12.2692C16.69 11.9328 15.9441 11.4546 15.5202 11.9916C15.1511 12.3454 15.1493 13.2182 15.687 13.8947C15.8103 14.0699 15.9518 14.2315 16.1091 14.3769C16.4749 14.1218 16.8067 13.874 17.0746 13.6568C17.5565 13.2647 17.5595 12.8995 17.4467 12.3781Z" fill="#6DAE5A"/>
<path fill-rule="evenodd" clip-rule="evenodd" d="M17.3611 12.2667C16.6905 11.9304 15.9446 11.4521 15.5207 11.9892C15.2825 12.2305 15.2095 12.5897 15.3344 12.9048L15.3944 13.3849C15.4648 13.5689 15.564 13.7406 15.6884 13.8934C15.8117 14.0686 15.9532 14.2302 16.1105 14.3756C15.7958 14.6192 15.7244 14.6696 15.7244 14.6696L14.3548 15.336C13.6194 15.7791 13.0718 16.1551 12.4883 16.3093C11.5948 16.5451 10.8858 15.8655 10.5981 15.2766C10.5153 15.1074 10.4544 14.3006 10.7781 14.0306C11.2547 13.7369 11.7661 13.5039 12.3005 13.3369L15.0388 12.0516C15.3183 11.8305 15.6373 11.6647 15.9788 11.5631C16.5874 11.4836 17.1805 11.7941 17.4619 12.3396C17.4223 12.3248 17.3875 12.2996 17.3611 12.2667Z" fill="#B1CD65"/>
<path fill-rule="evenodd" clip-rule="evenodd" d="M14.9952 14.3136C14.7993 13.8744 14.2479 13.2977 13.7831 12.668C13.3979 12.8525 13.0236 13.0589 12.6619 13.286C12.4291 13.388 12.1518 13.4855 11.9199 13.5669C12.2857 14.0278 12.7044 14.4441 13.1674 14.8072C13.5557 15.1658 14.0691 15.358 14.5974 15.3424C14.7352 15.2765 14.8667 15.1981 14.9901 15.1081C15.1305 14.8624 15.1324 14.5612 14.9952 14.3136Z" fill="#6FA03B"/>
<path fill-rule="evenodd" clip-rule="evenodd" d="M13.783 12.6656L13.7758 12.6557C13.4818 12.2564 13.302 11.8456 13.0215 11.4046C12.6615 10.842 12.2054 10.1121 11.8409 9.4625C11.8082 9.4547 11.7773 9.35329 11.7473 9.30078C11.4248 10.0947 11.0387 10.8613 10.5928 11.593C10.6728 11.7311 10.7793 11.8519 10.9063 11.9485C11.1804 12.4872 11.4967 13.0032 11.8523 13.4919C11.8715 13.5168 11.891 13.602 11.9201 13.5642C12.1511 13.4832 12.4302 13.3842 12.6621 13.2834C13.0237 13.0563 13.3979 12.8501 13.783 12.6656Z" fill="#BAC447"/>
<path fill-rule="evenodd" clip-rule="evenodd" d="M11.7469 9.30153C11.9232 8.88214 12.0488 8.44319 12.121 7.994C12.1756 7.53316 11.9668 6.59857 11.3532 6.21513C10.7196 5.85711 9.92674 5.95278 9.39645 6.45125C8.79909 7.02131 8.23713 8.21813 7.60317 9.18482C6.74788 10.5158 5.77434 11.767 4.69438 12.9232C2.8678 14.943 2.60587 14.5103 2.21764 15.1434C1.78379 15.7534 2.06762 16.5707 2.46726 17.0291C3.12733 17.7873 3.98991 18.1791 4.8519 17.9205C5.52756 17.7174 6.17653 17.1227 6.84109 16.4824C7.68303 15.6993 8.44045 14.8299 9.10092 13.8887C9.56836 13.2151 10.1033 12.4185 10.5927 11.5923C11.1317 10.9167 11.5247 10.1367 11.7469 9.30153Z" fill="#48AFA9"/>
<path fill-rule="evenodd" clip-rule="evenodd" d="M11.1664 8.42785C10.7411 7.93462 10.0165 7.83204 9.47097 8.18783C9.16819 8.47619 9.06843 8.9183 9.21804 9.30874C9.61645 10.1047 10.0762 10.8685 10.5931 11.5932C11.039 10.8614 11.4251 10.0948 11.7476 9.30094C11.5914 8.98661 11.3961 8.69326 11.1664 8.42785Z" fill="#128E94"/>
</g>
</svg>
