<svg width="24" height="24" viewBox="0 0 24 24" fill="none" xmlns="http://www.w3.org/2000/svg">
<g clip-path="url(#clip0_5674_38368)">
<rect x="0.5" y="0.5" width="23" height="23" rx="11.5" fill="white" stroke="#EBEFF5"/>
<path d="M11.9728 16.7577C14.8149 14.3216 18.8075 11.9532 20.9999 11.1005C20.6616 10.884 20.1338 10.5727 19.5383 10.2344C16.7097 11.1682 13.4074 13.2389 10.457 15.5803C10.9578 15.9592 11.4856 16.3517 11.9728 16.7577Z" fill="#E31837"/>
<path d="M10.6734 10.1408C10.2538 9.93782 9.79369 9.74834 9.44181 9.58594C7.96645 10.3316 6.55427 11.1961 5.21924 12.1709C5.59819 12.3739 6.0042 12.6175 6.43729 12.8611C7.79068 11.8596 9.1576 10.9123 10.6734 10.1408Z" fill="#012169"/>
<path d="M13.2049 8.97768C12.6906 8.69347 10.9041 8.03031 9.6725 7.74609C9.30708 7.88143 8.7928 8.08444 8.44092 8.23331C8.88754 8.35512 10.5522 8.80174 11.9733 9.51903C12.3387 9.34309 12.853 9.12655 13.2049 8.97768Z" fill="#E31837"/>
<path d="M7.15491 8.80078C5.72233 9.48345 4.33456 10.2564 3 11.1151C3.32481 11.264 3.64962 11.3858 4.09624 11.6023C6.09926 10.2489 7.66919 9.42334 8.29175 9.15266C7.84513 8.99026 7.42559 8.88198 7.15491 8.80078Z" fill="#012169"/>
<path d="M14.3958 8.5564C14.7613 8.43459 15.1808 8.32632 15.5462 8.21805C14.3866 7.72521 13.1924 7.3181 11.9733 7C11.7838 7.05414 11.2154 7.20301 10.8229 7.32481C12.0439 7.64233 13.2385 8.05409 14.3958 8.5564ZM7.72363 13.6451C8.15672 13.9023 8.61687 14.2542 9.06348 14.5519C12.0274 12.2512 14.9507 10.4782 18.1583 9.4767C17.7116 9.24663 17.3192 9.04362 16.8184 8.80001C14.8966 9.28723 11.6079 10.6 7.72363 13.6451Z" fill="#E31837"/>
</g>
<defs>
<clipPath id="clip0_5674_38368">
<rect width="24" height="24" fill="white"/>
</clipPath>
</defs>
</svg>
