<svg width="24" height="24" viewBox="0 0 24 24" fill="none" xmlns="http://www.w3.org/2000/svg">
<circle cx="12" cy="12" r="12" fill="#FFE100"/>
<circle cx="12" cy="12" r="12" fill="#FFE100"/>
<mask id="mask0_5676_56375" style="mask-type:luminance" maskUnits="userSpaceOnUse" x="0" y="0" width="24" height="24">
<circle cx="12" cy="12" r="12" fill="white"/>
</mask>
<g mask="url(#mask0_5676_56375)">
<path d="M22.1246 0H1.8754C0.839644 0 0 0.839644 0 1.8754V22.1246C0 23.1604 0.839644 24 1.8754 24H22.1246C23.1604 24 24 23.1604 24 22.1246V1.8754C24 0.839644 23.1604 0 22.1246 0Z" fill="#FFE300"/>
<path d="M16.3509 11.7133C17.0087 11.2812 17.5096 10.6483 17.779 9.90875C18.0485 9.16921 18.0721 8.36247 17.8465 7.60842C17.6208 6.85436 17.1579 6.19324 16.5264 5.72331C15.895 5.25337 15.1288 4.99971 14.3417 5H8.21165C8.15552 5 8.10168 5.0223 8.06199 5.06199C8.0223 5.10168 8 5.15552 8 5.21165V18.2134C7.9999 18.2413 8.0053 18.2689 8.01589 18.2946C8.02648 18.3204 8.04205 18.3438 8.06171 18.3636C8.08138 18.3833 8.10475 18.399 8.13048 18.4096C8.15621 18.4203 8.18379 18.4258 8.21165 18.4258H14.3417C15.1286 18.4259 15.8945 18.1721 16.5257 17.7022C17.1568 17.2323 17.6196 16.5714 17.8452 15.8175C18.0709 15.0637 18.0473 14.2572 17.7781 13.5178C17.5089 12.7784 17.0084 12.1456 16.3509 11.7133ZM13.3423 14.7705H12.1907V8.65846H13.3391L13.3423 14.7705Z" fill="#1E1E1E"/>
</g>
</svg>
