<svg width="24" height="24" viewBox="0 0 24 24" fill="none" xmlns="http://www.w3.org/2000/svg">
<rect width="24" height="24" rx="12" fill="#0061AE"/>
<path fill-rule="evenodd" clip-rule="evenodd" d="M18.475 13.3286C17.7673 15.0979 16.5826 15.5979 16.5826 15.5979C20.0698 12.0418 17.939 7.94381 17.939 7.94381C17.4242 7.02531 18.0793 6.62499 18.0793 6.62499C16.5814 7.00192 17.0494 8.31736 17.0494 8.31736C17.6398 9.60509 17.762 11.0585 17.395 12.4267L16.9026 12.1498L16.9103 12.1381C16.9103 12.1381 18.0796 7.50102 13.3597 5.8748L13.3191 5H12.2997V10.7464L16.9805 13.4314C16.8953 13.6056 16.8048 13.7699 16.7106 13.9237L12.0092 11.1842L7.28813 13.925C7.19397 13.7711 7.1035 13.6056 7.01827 13.4326L11.76 10.7479V5H10.6926L10.6886 5.87296C5.91884 7.49917 7.11274 12.136 7.11274 12.136L7.09643 12.1477L6.6041 12.4246C6.23711 11.0564 6.35932 9.60294 6.94965 8.3152C6.94965 8.3152 7.41552 7.00192 5.91823 6.62499C5.91823 6.62499 6.57364 7.025 6.05854 7.94381C6.05854 7.94381 3.94677 12.0418 7.41582 15.5979C7.41582 15.5979 6.23055 15.0976 5.52344 13.3286C5.22588 12.7859 4.60182 12.5096 4 12.6541C4 12.6541 4.42402 12.8474 4.67295 13.6293C4.67295 13.6293 5.68499 16.8697 9.59375 17.3645V19.1544H11.5129V16.5168C10.1356 16.4261 8.84757 15.8029 7.92169 14.7791L8.40417 14.4958C8.49402 14.5813 9.97192 15.9573 11.988 15.9937H11.9997C12.0388 15.9937 12.0074 15.9937 12.0114 15.9937C14.0275 15.9577 15.5054 14.5813 15.5952 14.4958L16.0774 14.7791C15.1517 15.8026 13.8641 16.4257 12.4871 16.5164V19.1541H14.4062V17.3645C18.3141 16.87 19.3271 13.6293 19.3271 13.6293C19.576 12.8474 20 12.6541 20 12.6541C19.3977 12.5089 18.7727 12.7853 18.475 13.3286ZM15.9735 11.6748L15.9698 11.6215L13.329 10.1344L13.3146 6.95521H13.329C13.329 6.95521 16.5119 7.82663 15.9735 11.6748ZM10.6696 6.95521H10.684L10.6696 10.1347L8.02853 11.6231L8.02483 11.6763C7.48666 7.82663 10.6696 6.95521 10.6696 6.95521ZM12.0073 12.386L14.6404 13.9353V13.94L14.6791 13.9264C13.9376 14.5739 12.985 14.9282 12.0006 14.9225C11.033 14.9361 10.0968 14.5797 9.38325 13.9261L9.35986 13.9396V13.935L12.0086 12.3857L12.0073 12.386Z" fill="white"/>
</svg>
