<svg width="24" height="24" viewBox="0 0 24 24" fill="none" xmlns="http://www.w3.org/2000/svg">
<circle cx="11.9982" cy="11.9992" r="10.8" fill="white"/>
<path d="M12 0C5.3717 0 0 5.3717 0 12C0 18.6283 5.3717 24 12 24C18.6283 24 24 18.6283 24 12C24 5.3717 18.6261 0 12 0ZM12.2518 21.801C10.8169 22.0037 8.47976 21.6383 6.89566 20.6379C5.50984 19.7623 4.68103 18.6662 4.14631 17.5544C3.60045 16.4181 3.33977 15.039 3.92351 15.1081C4.19755 15.1392 4.43149 15.6584 4.95952 16.3312C5.32046 16.7924 5.65243 17.1801 5.90197 17.2336C6.01337 17.2581 6.10694 17.2068 6.18715 17.0553C6.33643 16.7701 6.53695 16.2287 6.89788 15.7898C7.18975 15.4534 7.53955 15.2974 7.74229 16.1173C7.84033 16.5273 7.91831 16.9462 7.96509 17.3138C8.02971 17.8329 8.06313 18.1426 8.24359 18.2317C8.41515 18.3164 8.70925 18.2072 9.18158 18.0312C9.52024 17.9042 9.95693 17.7438 10.5072 17.5856C11.0152 17.4408 11.3361 17.5165 11.0108 18.303C10.857 18.6751 10.7011 18.987 10.153 19.7779C10.0572 19.9161 10.075 20.0542 10.1953 20.1745C10.378 20.3572 10.7947 20.5778 11.2558 20.7783C11.6212 20.9365 12.0579 21.0746 12.3476 21.1571C12.7999 21.2863 12.7107 21.743 12.2562 21.8054L12.2518 21.801ZM18.41 19.2209C17.9621 19.9473 17.0264 20.7338 15.8901 21.2573C15.7185 21.3353 15.5336 21.3108 15.4868 21.1704C15.4467 21.0479 15.5425 20.9098 15.6561 20.7761C17.1355 18.8556 16.0371 17.0977 13.6487 15.7319C11.8841 14.7226 10.7612 14.1433 9.46008 13.3769C5.64575 11.1311 4.90828 9.17267 4.75901 8.01634C4.38247 5.09098 6.80208 2.90085 9.28853 2.37282C9.36428 2.35722 9.56257 2.32603 9.62718 2.4909C9.69179 2.65577 9.54475 2.77609 9.45785 2.82956C8.34608 3.44226 7.25214 4.74118 7.37245 6.18492C7.43929 6.99146 7.78463 8.15225 9.96807 9.70739C11.2848 10.6476 12.9001 11.4185 16.153 13.368C19.5908 15.4289 19.1987 17.9421 18.4122 19.2232L18.41 19.2209ZM18.9469 8.24582C18.1626 9.20609 17.3762 8.84961 16.7724 7.49722C16.3958 6.6528 15.899 6.45006 15.5492 6.67063C15.1682 6.91125 15.3197 7.49053 15.7453 8.1567C16.0238 8.59339 15.899 9.10583 15.6094 9.40884C15.3041 9.72744 14.8051 9.85444 14.2614 9.73413C13.2945 9.52024 12.3431 8.22577 13.0382 5.39621C13.319 4.25325 12.7709 3.76532 12.4233 3.3264C12.2495 3.10583 12.2273 2.97438 12.2919 2.88526C12.3609 2.78945 12.5214 2.78277 12.8065 2.84293C13.1786 2.92091 13.7312 3.11251 14.1812 3.18158C14.4798 3.22837 14.8184 3.24174 15.1727 3.22837C16.1374 3.19049 16.8481 3.33977 17.5767 3.70071C18.811 4.31118 18.938 5.36502 18.2518 5.28036C18.0134 5.25139 17.7081 5.07092 17.4541 4.94838C17.2848 4.86595 17.1378 4.83921 17.0308 4.91719C16.9306 4.99072 16.886 5.14445 16.9573 5.29595C17.111 5.61901 17.6302 5.78611 18.332 5.97995C19.5618 6.3186 19.5886 7.45934 18.9447 8.24805L18.9469 8.24582Z" fill="#0046FF"/>
<path d="M12.2491 21.8006C10.8142 22.0033 8.47706 21.6379 6.89296 20.6375C5.50714 19.7619 4.67833 18.6658 4.14361 17.554C3.59775 16.4177 3.33707 15.0386 3.92081 15.1077C4.19485 15.1388 4.42879 15.658 4.95683 16.3308C5.31776 16.792 5.64973 17.1797 5.89927 17.2332C6.01067 17.2577 6.10424 17.2064 6.18445 17.0549C6.33373 16.7697 6.53425 16.2283 6.89518 15.7894C7.18705 15.453 7.53685 15.297 7.7396 16.1169C7.83763 16.5269 7.91561 16.9458 7.9624 17.3134C8.02701 17.8325 8.06043 18.1422 8.2409 18.2313C8.41245 18.316 8.70655 18.2068 9.17888 18.0308C9.51754 17.9038 9.95423 17.7434 10.5045 17.5852C11.0125 17.4404 11.3334 17.5161 11.0081 18.3026C10.8543 18.6747 10.6984 18.9866 10.1503 19.7775C10.0545 19.9157 10.0723 20.0538 10.1926 20.1741C10.3753 20.3568 10.792 20.5774 11.2531 20.7779C11.6185 20.9361 12.0552 21.0742 12.3449 21.1567C12.7972 21.2859 12.708 21.7426 12.2535 21.805L12.2491 21.8006ZM18.4073 19.2205C17.9594 19.9469 17.0237 20.7333 15.8874 21.2569C15.7158 21.3349 15.5309 21.3104 15.4841 21.17C15.444 21.0475 15.5398 20.9094 15.6534 20.7757C17.1328 18.8551 16.0344 17.0973 13.646 15.7315C11.8814 14.7222 10.7585 14.1429 9.45738 13.3765C5.64305 11.1307 4.90558 9.17226 4.75631 8.01593C4.37977 5.09057 6.79938 2.90045 9.28583 2.37241C9.36158 2.35682 9.55987 2.32562 9.62448 2.4905C9.68909 2.65537 9.54205 2.77568 9.45515 2.82915C8.34338 3.44185 7.24944 4.74077 7.36975 6.18452C7.43659 6.99105 7.78193 8.15184 9.96537 9.70698C11.2821 10.6472 12.8974 11.4181 16.1503 13.3676C19.5881 15.4285 19.196 17.9417 18.4095 19.2228L18.4073 19.2205ZM18.9442 8.24542C18.1599 9.20568 17.3735 8.8492 16.7697 7.49681C16.3931 6.6524 15.8963 6.44965 15.5465 6.67022C15.1655 6.91084 15.317 7.49012 15.7426 8.1563C16.0211 8.59298 15.8963 9.10542 15.6067 9.40843C15.3014 9.72704 14.8024 9.85403 14.2587 9.73372C13.2918 9.51983 12.3404 8.22536 13.0355 5.39581C13.3163 4.25284 12.7682 3.76491 12.4206 3.326C12.2468 3.10542 12.2246 2.97397 12.2892 2.88485C12.3582 2.78905 12.5187 2.78236 12.8038 2.84252C13.1759 2.9205 13.7285 3.11211 14.1785 3.18118C14.4771 3.22796 14.8157 3.24133 15.17 3.22796C16.1347 3.19009 16.8454 3.33936 17.574 3.7003C18.8083 4.31077 18.9353 5.36461 18.2491 5.27995C18.0107 5.25099 17.7054 5.07052 17.4537 4.94798C17.2843 4.86554 17.1373 4.83881 17.0303 4.91679C16.9301 4.99031 16.8855 5.14404 16.9568 5.29555C17.1106 5.61861 17.6297 5.78571 18.3315 5.97954C19.5614 6.3182 19.5881 7.45893 18.9442 8.24764V8.24542Z" fill="white"/>
</svg>
