<svg width="24" height="24" viewBox="0 0 24 24" fill="none" xmlns="http://www.w3.org/2000/svg">
<circle cx="12.0002" cy="11.9992" r="10.8" fill="white"/>
<path fill-rule="evenodd" clip-rule="evenodd" d="M17.7331 9.38722C16.8308 10.0467 15.919 9.77497 15.5521 8.47963C15.3678 7.83451 14.9114 7.50489 14.4446 7.68832C13.9795 7.87119 14.2547 8.72149 14.6086 9.50969C15.3164 11.3144 13.5579 11.2543 13.3536 11.2309C12.4194 11.0345 12.2297 10.1881 12.2297 10.1881C12.1524 9.89011 12.1346 9.51421 12.1964 9.03446C12.3243 8.03064 12.5944 7.55879 12.9012 6.78187C13.3174 5.73657 12.3076 5.12531 12.4744 4.74066C12.7028 4.21999 13.4241 4.88176 14.2276 4.93058C14.9202 4.96897 15.3367 4.93425 15.8755 5.00593C16.5909 5.10104 17.4464 5.34374 17.8271 5.79132C18.1762 6.20024 17.6428 6.69947 17.0007 6.3865C16.5322 6.15819 15.941 6.29873 16.2873 6.78751C16.7052 7.25259 16.9048 7.26501 17.3298 7.37705C18.5013 7.6855 18.5242 8.80615 17.7331 9.38722ZM15.9874 19.4096C15.1478 19.9906 14.2176 20.2635 12.9978 20.329C12.8872 20.3442 12.6885 20.2808 12.6783 20.0866C12.6704 19.8789 12.9741 19.8264 12.9741 19.8264C15.6933 19.291 14.8989 17.5075 13.9365 16.5977C13.5326 16.2147 9.74577 12.9495 9.74577 12.9495C6.1367 9.84131 6.42541 7.41517 6.42541 7.41517C6.59955 4.42969 9.21406 3.68917 11.1919 3.85991C11.4239 3.87966 11.552 4.02161 11.5099 4.21436C11.4665 4.42433 11.1608 4.43985 11.1608 4.43985C10.5315 4.47738 9.96929 4.54144 9.54031 4.82958C7.94688 5.90168 8.41734 7.72503 10.5428 9.75467C10.8095 10.0109 11.0937 10.2796 11.3849 10.5525C11.3849 10.5525 11.8122 10.9289 12.6617 11.7369C14.2958 13.2428 15.1913 14.0552 15.1913 14.0552C18.0716 16.454 17.0884 18.6465 15.9874 19.4096ZM9.92737 19.7941C8.91137 19.6944 7.69837 19.3741 6.64173 18.4606C5.67088 17.6202 5.06834 16.4649 4.77624 15.4517C4.47736 14.4126 4.35149 13.1977 4.84566 13.2934C4.99722 13.3239 5.25997 13.9913 5.54558 14.4773C5.83994 14.979 6.08124 15.2567 6.30532 15.4255C6.40805 15.5022 6.75434 14.7315 7.25782 14.2933C7.55134 14.0514 7.87251 13.9682 7.92359 14.69C7.98681 15.5762 7.82791 16.6288 8.0853 16.6288C8.32745 16.6288 8.8727 16.4468 10.0699 16.3455C10.5189 16.3071 10.7752 16.3918 10.3465 16.9977C10.1325 17.2985 9.84524 17.7252 9.16706 18.212C10.1845 19.165 11.4059 19.0507 11.4274 19.4546C11.4435 19.7455 10.7357 19.8728 9.92737 19.7941ZM0.0127111 12.5423C0.311585 19.1632 5.92133 24.2864 12.5417 23.9876C19.1652 23.6893 24.2864 18.0787 23.9876 11.4581C23.689 4.83664 18.0784 -0.287979 11.458 0.0125726C4.83562 0.311149 -0.28955 5.92116 0.0127111 12.5423Z" fill="#0480E9"/>
<path d="M12 0C5.3717 0 0 5.3717 0 12C0 18.6283 5.3717 24 12 24C18.6283 24 24 18.6283 24 12C24 5.3717 18.6261 0 12 0ZM12.2518 21.801C10.8169 22.0037 8.47976 21.6383 6.89566 20.6379C5.50984 19.7623 4.68103 18.6662 4.14631 17.5544C3.60045 16.4181 3.33977 15.039 3.92351 15.1081C4.19755 15.1392 4.43149 15.6584 4.95952 16.3312C5.32046 16.7924 5.65243 17.1801 5.90197 17.2336C6.01337 17.2581 6.10694 17.2068 6.18715 17.0553C6.33643 16.7701 6.53695 16.2287 6.89788 15.7898C7.18975 15.4534 7.53955 15.2974 7.74229 16.1173C7.84033 16.5273 7.91831 16.9462 7.96509 17.3138C8.02971 17.8329 8.06313 18.1426 8.24359 18.2317C8.41515 18.3164 8.70925 18.2072 9.18158 18.0312C9.52024 17.9042 9.95693 17.7438 10.5072 17.5856C11.0152 17.4408 11.3361 17.5165 11.0108 18.303C10.857 18.6751 10.7011 18.987 10.153 19.7779C10.0572 19.9161 10.075 20.0542 10.1953 20.1745C10.378 20.3572 10.7947 20.5778 11.2558 20.7783C11.6212 20.9365 12.0579 21.0746 12.3476 21.1571C12.7999 21.2863 12.7107 21.743 12.2562 21.8054L12.2518 21.801ZM18.41 19.2209C17.9621 19.9473 17.0264 20.7338 15.8901 21.2573C15.7185 21.3353 15.5336 21.3108 15.4868 21.1704C15.4467 21.0479 15.5425 20.9098 15.6561 20.7761C17.1355 18.8556 16.0371 17.0977 13.6487 15.7319C11.8841 14.7226 10.7612 14.1433 9.46008 13.3769C5.64575 11.1311 4.90828 9.17267 4.75901 8.01634C4.38247 5.09098 6.80208 2.90085 9.28853 2.37282C9.36428 2.35722 9.56257 2.32603 9.62718 2.4909C9.69179 2.65577 9.54475 2.77609 9.45785 2.82956C8.34608 3.44226 7.25214 4.74118 7.37245 6.18492C7.43929 6.99146 7.78463 8.15225 9.96807 9.70739C11.2848 10.6476 12.9001 11.4185 16.153 13.368C19.5908 15.4289 19.1987 17.9421 18.4122 19.2232L18.41 19.2209ZM18.9469 8.24582C18.1626 9.20609 17.3762 8.84961 16.7724 7.49722C16.3958 6.6528 15.899 6.45006 15.5492 6.67063C15.1682 6.91125 15.3197 7.49053 15.7453 8.1567C16.0238 8.59339 15.899 9.10583 15.6094 9.40884C15.3041 9.72744 14.8051 9.85444 14.2614 9.73413C13.2945 9.52024 12.3431 8.22577 13.0382 5.39621C13.319 4.25325 12.7709 3.76532 12.4233 3.3264C12.2495 3.10583 12.2273 2.97438 12.2919 2.88526C12.3609 2.78945 12.5214 2.78277 12.8065 2.84293C13.1786 2.92091 13.7312 3.11251 14.1812 3.18158C14.4798 3.22837 14.8184 3.24174 15.1727 3.22837C16.1374 3.19049 16.8481 3.33977 17.5767 3.70071C18.811 4.31118 18.938 5.36502 18.2518 5.28036C18.0134 5.25139 17.7081 5.07092 17.4541 4.94838C17.2848 4.86595 17.1378 4.83921 17.0308 4.91719C16.9306 4.99072 16.886 5.14445 16.9573 5.29595C17.111 5.61901 17.6302 5.78611 18.332 5.97995C19.5618 6.3186 19.5886 7.45934 18.9447 8.24805L18.9469 8.24582Z" fill="#0046FF"/>
<path d="M12.2496 21.8006C10.8147 22.0033 8.47755 21.6379 6.89344 20.6375C5.50763 19.7619 4.67881 18.6658 4.14409 17.554C3.59823 16.4177 3.33756 15.0386 3.92129 15.1077C4.19534 15.1388 4.42928 15.658 4.95731 16.3308C5.31825 16.792 5.65022 17.1797 5.89976 17.2332C6.01116 17.2577 6.10473 17.2064 6.18494 17.0549C6.33422 16.7697 6.53474 16.2283 6.89567 15.7894C7.18754 15.453 7.53734 15.297 7.74008 16.1169C7.83812 16.5269 7.9161 16.9458 7.96288 17.3134C8.0275 17.8325 8.06092 18.1422 8.24138 18.2313C8.41294 18.316 8.70704 18.2068 9.17937 18.0308C9.51803 17.9038 9.95471 17.7434 10.505 17.5852C11.013 17.4404 11.3338 17.5161 11.0086 18.3026C10.8548 18.6747 10.6989 18.9866 10.1508 19.7775C10.055 19.9157 10.0728 20.0538 10.1931 20.1741C10.3758 20.3568 10.7924 20.5774 11.2536 20.7779C11.619 20.9361 12.0557 21.0742 12.3454 21.1567C12.7976 21.2859 12.7085 21.7426 12.254 21.805L12.2496 21.8006ZM18.4077 19.2205C17.9599 19.9469 17.0242 20.7333 15.8879 21.2569C15.7163 21.3349 15.5314 21.3104 15.4846 21.17C15.4445 21.0475 15.5403 20.9094 15.6539 20.7757C17.1333 18.8551 16.0349 17.0973 13.6465 15.7315C11.8819 14.7222 10.759 14.1429 9.45787 13.3765C5.64354 11.1307 4.90607 9.17226 4.75679 8.01593C4.38026 5.09057 6.79987 2.90045 9.28631 2.37241C9.36207 2.35682 9.56036 2.32562 9.62497 2.4905C9.68958 2.65537 9.54253 2.77568 9.45564 2.82915C8.34387 3.44185 7.24992 4.74077 7.37024 6.18452C7.43708 6.99105 7.78242 8.15184 9.96585 9.70698C11.2826 10.6472 12.8979 11.4181 16.1508 13.3676C19.5886 15.4285 19.1965 17.9417 18.41 19.2228L18.4077 19.2205ZM18.9447 8.24542C18.1604 9.20568 17.3739 8.8492 16.7702 7.49681C16.3936 6.6524 15.8968 6.44965 15.547 6.67022C15.166 6.91084 15.3175 7.49012 15.7431 8.1563C16.0216 8.59298 15.8968 9.10542 15.6071 9.40843C15.3019 9.72704 14.8028 9.85403 14.2592 9.73372C13.2923 9.51983 12.3409 8.22536 13.036 5.39581C13.3168 4.25284 12.7687 3.76491 12.4211 3.326C12.2473 3.10542 12.225 2.97397 12.2897 2.88485C12.3587 2.78905 12.5191 2.78236 12.8043 2.84252C13.1764 2.9205 13.7289 3.11211 14.179 3.18118C14.4776 3.22796 14.8162 3.24133 15.1705 3.22796C16.1352 3.19009 16.8459 3.33936 17.5745 3.7003C18.8088 4.31077 18.9358 5.36461 18.2496 5.27995C18.0112 5.25099 17.7059 5.07052 17.4542 4.94798C17.2848 4.86554 17.1378 4.83881 17.0308 4.91679C16.9306 4.99031 16.886 5.14404 16.9573 5.29555C17.111 5.61861 17.6302 5.78571 18.332 5.97954C19.5618 6.3182 19.5886 7.45893 18.9447 8.24764V8.24542Z" fill="white"/>
</svg>
