<svg width="24" height="24" viewBox="0 0 24 24" fill="none" xmlns="http://www.w3.org/2000/svg">
<circle cx="12" cy="12" r="12" fill="#545045"/>
<mask id="mask0_5676_62855" style="mask-type:luminance" maskUnits="userSpaceOnUse" x="3" y="6" width="18" height="12">
<path fill-rule="evenodd" clip-rule="evenodd" d="M3.59998 6H20.3998V17.9676H3.59998V6Z" fill="white"/>
</mask>
<g mask="url(#mask0_5676_62855)">
<path fill-rule="evenodd" clip-rule="evenodd" d="M20.1291 12.1413L19.9828 12.0496C19.4879 11.5547 18.7984 11.3398 17.8758 11.3937C17.1072 11.4413 16.4982 11.7458 16.0327 12.0286C16.0327 12.0216 16.032 12.0146 16.032 12.0076C16.032 11.7668 16.06 11.5064 16.0873 11.2523C16.1139 10.9947 16.1412 10.7329 16.1412 10.4851C16.1412 10.2324 16.1125 9.99295 16.0257 9.78785C16.0033 9.73465 15.955 9.70385 15.8934 9.70385C15.6456 9.70875 15.1605 9.87885 15.0436 9.98245L14.9806 10.1218C14.9757 10.3969 14.9155 11.1641 14.8539 11.2565C14.8567 11.2537 14.8217 11.3503 14.8217 11.3503C14.7174 12.4451 14.7146 13.4083 14.8112 14.235C14.8224 14.3183 14.9813 14.4429 15.1038 14.4877C15.2396 14.5374 15.661 14.4247 15.9046 14.333C15.9011 14.3337 15.9963 14.3183 15.9963 14.3183C16.0726 14.3099 16.1181 14.2455 16.1146 14.1573C16.1139 14.1559 16.1202 13.92 16.1202 13.92C16.2959 13.206 17.0071 12.3534 17.8471 12.226C18.3238 12.1504 18.6983 12.2722 18.9951 12.5949C19.0357 12.6537 19.1218 13.1675 18.8082 13.7583C18.5751 14.1951 18.1082 14.5633 17.495 14.7929C16.9147 15.0141 16.2749 15.103 15.486 15.0757C15.4531 15.0547 14.7475 14.5766 14.7475 14.5766C14.121 14.137 13.344 13.5903 12.6391 13.3229C12.5145 13.2753 12.2933 13.0905 12.1589 12.9806L12.0868 12.9211C11.6801 12.5942 10.9059 12.079 10.285 11.6653C10.285 11.6653 10.0043 11.477 9.94968 11.4413C9.95108 11.4175 9.95108 11.3706 9.95108 11.3706C9.96858 11.3503 10.3592 11.1172 10.3592 11.1172C10.9059 10.7966 11.1586 10.6398 11.2125 10.5593C11.2006 10.5726 11.2846 10.5166 11.2846 10.5166C11.2895 10.5138 12.6405 9.74935 12.6405 9.74935C13.9404 9.03535 15.4146 8.22335 16.1888 7.42255C16.1888 7.42115 16.2266 7.29935 16.2266 7.29935L16.2427 7.19085C16.2938 7.01935 16.2973 6.88845 16.2546 6.73515C16.2427 6.69175 16.2035 6.64205 16.1489 6.63225C15.5448 6.57135 14.7657 6.93395 14.0559 7.60035C13.8956 7.75085 13.7605 7.82365 13.6191 7.90135L13.5113 7.96155C12.7287 8.40605 10.9654 9.50085 10.0435 10.0896C10.1037 9.09765 10.2871 7.68715 10.5132 6.51045L10.488 6.36975C10.4859 6.36485 10.3928 6.19195 10.3928 6.19195L10.3207 6.06455L10.2997 6.05895C10.1163 5.96655 9.96508 6.00365 9.85518 6.03095L9.67178 6.09955L9.42537 6.18915C9.37708 6.19825 9.34208 6.22835 9.32318 6.27595C8.88288 7.34065 8.51538 9.09205 8.42788 10.4935C7.54728 9.93345 6.73388 9.53025 6.33488 9.33565L6.32368 9.32935L6.27608 9.31955C6.13258 9.30135 5.95758 9.19495 5.78958 9.09345C5.77138 9.08225 5.45428 8.87575 5.45428 8.87575L4.94258 8.54885C4.94678 8.55165 4.80748 8.51805 4.80748 8.51805C4.58768 8.55585 4.16558 8.83865 4.04168 9.03185C4.02418 9.05845 4.01718 9.08575 4.01718 9.11445C4.01718 9.15505 4.03048 9.19635 4.04168 9.23625L4.06338 9.34055L4.08718 9.40285C4.33358 9.65415 4.95168 10.0728 5.55858 10.3997L6.26138 10.7721L7.33868 11.3601C7.33868 11.365 7.52208 11.5064 7.52208 11.5064L7.64878 11.5792C7.64878 11.5792 7.66278 11.5876 7.67188 11.5932C7.38488 11.785 5.71328 12.9008 5.71328 12.9008L4.68358 13.5833C4.58628 13.6498 4.17958 13.8318 4.08998 13.8682C3.86738 13.9592 3.69798 14.0985 3.62798 14.2504L3.59998 14.3092L3.62798 14.3484L3.70638 14.4079C3.70288 14.4079 3.81208 14.4772 3.81208 14.4772L3.92618 14.5549C3.92828 14.5563 4.03258 14.5724 4.03258 14.5724C4.21388 14.5794 4.48198 14.4758 4.98318 14.2567C5.44378 14.0523 6.69468 13.2977 7.22878 12.9764L7.45698 12.8392C7.55218 12.8469 7.65578 12.7671 7.74818 12.6971C7.85528 12.6117 8.08838 12.4689 8.23048 12.4059C8.23538 12.4038 8.31588 12.3583 8.39288 12.3163C8.39218 12.3401 8.39148 12.3779 8.39148 12.3779C8.41598 14.0138 8.50838 15.2024 8.68757 16.1194L8.69038 16.1348L8.70788 16.1719C8.79678 16.3007 8.89618 16.6885 8.98438 17.0301L9.18878 17.7126C9.19298 17.721 9.24547 17.777 9.24547 17.777C9.36238 17.8561 9.71728 17.9919 9.95318 17.9639L10.012 17.9569L10.0505 17.8736C10.0694 17.7714 10.0771 17.6713 10.0771 17.5614C10.0771 17.4361 10.0673 17.2989 10.0568 17.1302L10.0407 16.8845C9.96508 15.7428 9.89088 14.0936 9.89088 12.9974V12.9106C10.0848 13.0324 10.9332 13.5665 10.9332 13.5665C12.378 14.5038 14.5592 15.9185 15.8773 16.293C15.9459 16.314 16.0187 16.2979 16.0684 16.2503C16.0712 16.2468 16.2714 16.1194 16.2714 16.1194L16.3092 16.104C16.3848 16.0676 16.4359 15.9409 16.445 15.8016C17.5559 15.7463 19.1057 15.3186 19.9352 14.2756C20.2565 13.871 20.4 13.3761 20.4 12.9533C20.4 12.6054 20.3041 12.3058 20.1291 12.1413Z" fill="#FBAF17"/>
</g>
</svg>
