<svg width="24" height="24" viewBox="0 0 24 24" fill="none" xmlns="http://www.w3.org/2000/svg">
<circle cx="12" cy="12" r="12" fill="#5C4B4D"/>
<g clip-path="url(#clip0_5674_37467)">
<path d="M13.4127 10.3906H15.1974L12.7369 13.2112L15.435 16.3475H13.5392L11.233 13.7635H11.2166V16.3475H9.66846V10.3906H11.2166V12.848H11.233L13.4127 10.3906Z" fill="white"/>
<path d="M18.8028 15.8152C18.8025 15.9982 18.7297 16.1736 18.6003 16.303C18.471 16.4324 18.2956 16.5052 18.1126 16.5054C17.9295 16.5054 17.754 16.4327 17.6245 16.3033C17.4951 16.1738 17.4224 15.9983 17.4224 15.8152C17.4222 15.7245 17.44 15.6347 17.4746 15.5509C17.5093 15.4671 17.5601 15.391 17.6242 15.3269C17.6883 15.2627 17.7645 15.2119 17.8483 15.1773C17.9321 15.1426 18.0219 15.1249 18.1126 15.125C18.2032 15.125 18.293 15.1429 18.3767 15.1775C18.4605 15.2122 18.5365 15.2631 18.6006 15.3272C18.6647 15.3913 18.7156 15.4673 18.7503 15.5511C18.7849 15.6348 18.8028 15.7246 18.8028 15.8152Z" fill="#E94709"/>
<path d="M18.1077 14.8496C18.262 14.8496 18.407 14.7982 18.5192 14.4381C18.7825 13.6152 19.1363 11.0004 18.8566 10.2989C18.7976 10.149 18.6936 10.0211 18.559 9.93266C18.4243 9.84425 18.2656 9.79971 18.1046 9.80516C17.9436 9.79956 17.7848 9.84404 17.6501 9.93247C17.5155 10.0209 17.4115 10.1489 17.3527 10.2989C17.0739 11.0004 17.4257 13.6132 17.689 14.4381C17.8053 14.8013 17.9503 14.8496 18.1005 14.8496" fill="#E94709"/>
<path d="M18.1096 8.82202C18.5756 8.82093 19.036 8.92367 19.4573 9.12277C19.8787 9.32188 20.2503 9.61234 20.5454 9.97306L21.5 9.03906C21.0778 8.5536 20.5562 8.16458 19.9705 7.89837C19.3849 7.63215 18.7488 7.49496 18.1054 7.4961C17.4621 7.49496 16.826 7.63215 16.2404 7.89837C15.6547 8.16458 15.1331 8.5536 14.7109 9.03906L15.6655 9.97409C15.9613 9.61205 16.3342 9.3207 16.7571 9.12137C17.18 8.92203 17.6421 8.81976 18.1096 8.82202Z" fill="#F6AB00"/>
<path d="M9.08866 13.2604C9.08866 15.1871 7.70617 16.5521 5.79702 16.5521C3.88786 16.5521 2.50537 15.1922 2.50537 13.2656C2.50537 11.4644 4.08536 10.1992 5.79702 10.1992C7.50867 10.1992 9.08866 11.4644 9.08866 13.2656M4.11211 13.2738C4.11211 14.3025 4.87021 15.0503 5.79496 15.0503C6.71971 15.0503 7.47679 14.2994 7.47679 13.2738C7.47679 12.4509 6.71868 11.701 5.79496 11.701C4.87124 11.701 4.11211 12.4509 4.11211 13.2738Z" fill="white"/>
</g>
<defs>
<clipPath id="clip0_5674_37467">
<rect width="19" height="9.04586" fill="white" transform="translate(2.5 7.5)"/>
</clipPath>
</defs>
</svg>
