<svg width="24" height="24" viewBox="0 0 24 24" fill="none" xmlns="http://www.w3.org/2000/svg">
<rect opacity="0.01" width="24" height="24" fill="#F800FF"/>
<circle cx="12" cy="12" r="12" fill="white"/>
<mask id="mask0_5674_37319" style="mask-type:alpha" maskUnits="userSpaceOnUse" x="0" y="0" width="24" height="24">
<circle cx="12" cy="12" r="12" fill="white"/>
</mask>
<g mask="url(#mask0_5674_37319)">
<path d="M11.9977 11.9874C11.3211 11.1868 10.4945 10.5263 9.56445 10.043V13.9425C10.4959 13.4567 11.3227 12.7924 11.9977 11.9874Z" fill="#E43D30"/>
<path d="M-0.00320449 24.0027H10.0723C11.3043 23.2351 12.3077 22.1508 12.9778 20.863C13.6478 19.5753 13.9599 18.1313 13.8815 16.6818C13.8003 15.3633 13.3932 14.0855 12.6968 12.963C11.7366 14.0372 10.536 14.8691 9.19306 15.3909L8.92743 15.4945L8.42007 15.6671V8.29577L9.19838 8.59593C10.5407 9.11773 11.741 9.94862 12.7021 11.0212C13.3986 9.89863 13.8056 8.62083 13.8868 7.30229C13.966 5.85911 13.6577 4.42102 12.994 3.13707C12.3303 1.85312 11.3353 0.770012 10.1122 0H-0.00585938L-0.00320449 24.0027ZM4.51258 7.85481H5.71325V16.1214H4.51258V7.85481Z" fill="#148FCA"/>
<path d="M23.9996 0H12.0115C13.0251 0.929742 13.8209 2.07182 14.3421 3.34468C14.8633 4.61754 15.097 5.98977 15.0265 7.36339C14.9382 8.87623 14.4725 10.3429 13.6717 11.6295L13.4486 11.9881L13.6717 12.3467C14.4728 13.6322 14.9386 15.098 15.0265 16.6101C15.096 17.9916 14.858 19.3713 14.3298 20.6497C13.8015 21.9281 12.9961 23.0733 11.9717 24.0027H23.9916L23.9996 0ZM20.812 16.124H19.3112L16.2218 11.9801L19.3563 7.83091H20.8678L17.728 11.9907L20.812 16.124Z" fill="#055198"/>
</g>
</svg>
