<svg width="24" height="24" viewBox="0 0 24 24" fill="none" xmlns="http://www.w3.org/2000/svg">
<circle cx="12" cy="12" r="12" fill="#005EA1"/>
<g clip-path="url(#clip0_5674_37558)">
<path d="M7.49786 14.8837C7.38206 15.5198 7.70751 15.7245 8.27281 15.7245C8.67345 15.7245 9.12294 15.5725 9.2135 15.1713C9.32326 14.6949 8.61253 14.6038 7.9254 14.3832C7.23826 14.1626 6.55991 13.8157 6.78493 12.8234C7.05276 11.6424 8.27994 11.1797 9.2382 11.1797C10.2541 11.1797 11.1591 11.7027 10.8891 12.9228H9.55926C9.69208 12.4288 9.29143 12.2708 8.8842 12.2708C8.59771 12.2708 8.21628 12.3761 8.13615 12.7329C8.0412 13.1494 8.76071 13.2268 9.45334 13.4464C10.146 13.6659 10.8013 14.0287 10.5806 15.0056C10.2694 16.3776 9.06861 16.8167 7.94625 16.8167C6.77286 16.8167 5.8607 16.2717 6.16585 14.8859L7.49786 14.8837Z" fill="white"/>
<path d="M16.7012 11.2969H18.0311L16.8055 16.7045H15.4746L16.7012 11.2969Z" fill="white"/>
<path d="M11.8544 11.2975H14.2424C15.1255 11.2827 16.036 11.5242 15.7791 12.6531C15.6693 13.1377 15.3082 13.5312 14.8598 13.7436C15.3658 13.9083 15.5887 14.4105 15.4498 15.0235C15.1589 16.3116 14.176 16.7068 13.0816 16.7068H10.6289L11.8544 11.2975ZM12.7018 13.4259H13.7314C13.9603 13.4259 14.3039 13.2963 14.39 12.9105C14.4762 12.5247 14.2446 12.3875 13.9658 12.3875H12.9367L12.7018 13.4259ZM12.2139 15.5762H13.2803C13.7018 15.5762 14.0305 15.4165 14.1326 14.9725C14.2424 14.495 13.9619 14.3358 13.5613 14.3358H12.4955L12.2139 15.5762Z" fill="white"/>
<path d="M19.8891 9.12381C19.1537 7.17108 14.9464 6.94826 10.4932 8.62548C7.31712 9.82192 4.87428 11.6621 4 13.3284C5.20742 12.0661 7.16015 10.8257 9.51518 9.93772C13.9689 8.25996 18.1757 8.48333 18.9111 10.4366C19.123 10.9964 19.0247 11.638 18.6729 12.3087C19.7497 11.1847 20.2354 10.0436 19.8891 9.12546" fill="#EE303B"/>
</g>
<defs>
<clipPath id="clip0_5674_37558">
<rect width="16" height="9.31691" fill="white" transform="translate(4 7.5)"/>
</clipPath>
</defs>
</svg>
