<svg width="24" height="24" viewBox="0 0 24 24" fill="none" xmlns="http://www.w3.org/2000/svg">
<circle cx="12" cy="12" r="12" fill="#005BAC"/>
<mask id="mask0_5682_39402" style="mask-type:luminance" maskUnits="userSpaceOnUse" x="0" y="0" width="24" height="24">
<circle cx="12" cy="12" r="12" fill="white"/>
</mask>
<g mask="url(#mask0_5682_39402)">
</g>
<g clip-path="url(#clip0_5682_39402)">
<path d="M20.4922 8.00781H19.3142V11.0472H14.4997V8.00781H13.3216C13.1753 8.02162 13.0403 8.09218 12.9454 8.20437C12.8505 8.31657 12.8033 8.46147 12.814 8.60803V15.0316C12.8033 15.1781 12.8505 15.323 12.9454 15.4352C13.0403 15.5474 13.1753 15.618 13.3216 15.6318H14.4997V12.3594H19.3142V15.6254H20.4922C20.638 15.6108 20.7722 15.5399 20.8664 15.4278C20.9607 15.3157 21.0074 15.1712 20.9967 15.0252V8.59845C21.0064 8.45361 20.9591 8.3107 20.8648 8.20032C20.7706 8.08993 20.6368 8.02083 20.4922 8.00781Z" fill="white"/>
<path d="M10.8536 8.00781H9.67234V13.8471L6.13172 9.18269C5.54428 8.50267 5.13882 8.00781 4.19699 8.00781H2.99976V15.0316C2.98825 15.1783 3.03511 15.3237 3.13016 15.4361C3.22521 15.5485 3.36077 15.6188 3.50738 15.6318H4.68227V9.75737L8.24524 14.3931C8.84864 15.0922 9.385 15.6286 10.2566 15.6286H11.3517V8.60483C11.3624 8.46012 11.3165 8.31691 11.2235 8.20548C11.1306 8.09406 10.9979 8.02317 10.8536 8.00781Z" fill="white"/>
</g>
<defs>
<clipPath id="clip0_5682_39402">
<rect width="18" height="7.62717" fill="white" transform="translate(3 8)"/>
</clipPath>
</defs>
</svg>
