<svg width="24" height="24" viewBox="0 0 24 24" fill="none" xmlns="http://www.w3.org/2000/svg">
<circle cx="12" cy="12" r="12" fill="#043B73"/>
<mask id="mask0_5674_37483" style="mask-type:luminance" maskUnits="userSpaceOnUse" x="20" y="7" width="3" height="4">
<path fill-rule="evenodd" clip-rule="evenodd" d="M20.1289 7.75781H22.4274V10.3308H20.1289V7.75781Z" fill="white"/>
</mask>
<g mask="url(#mask0_5674_37483)">
<path fill-rule="evenodd" clip-rule="evenodd" d="M22.4274 7.75781C22.0893 9.15927 20.874 9.92279 20.1599 10.3308L20.1289 10.2896C20.4226 10.0515 21.4273 9.30967 21.7489 8.08088L22.4274 7.75781Z" fill="#F16322"/>
</g>
<path fill-rule="evenodd" clip-rule="evenodd" d="M4.78237 10.4492C4.76389 10.577 4.50449 12.3869 4.48047 12.5556H5.06057C5.07888 12.4274 5.33827 10.6183 5.36247 10.4492H4.78237Z" fill="white"/>
<path fill-rule="evenodd" clip-rule="evenodd" d="M9.53077 10.4492C9.51193 10.577 9.25289 12.3869 9.22852 12.5556H10.5886C10.602 12.4633 10.6361 12.219 10.6534 12.1011H9.82974L9.88511 11.7114H10.6328C10.6464 11.6211 10.6778 11.4027 10.6942 11.2876H9.94611L10.0011 10.9034H10.8034C10.8168 10.8111 10.852 10.5671 10.8689 10.4492H9.53077Z" fill="white"/>
<mask id="mask1_5674_37483" style="mask-type:luminance" maskUnits="userSpaceOnUse" x="1" y="10" width="4" height="3">
<path fill-rule="evenodd" clip-rule="evenodd" d="M1.71436 10.4492H4.32264V12.5556H1.71436V10.4492Z" fill="white"/>
</mask>
<g mask="url(#mask1_5674_37483)">
<path fill-rule="evenodd" clip-rule="evenodd" d="M3.069 11.6558C3.069 11.6558 3.55455 10.5461 3.59267 10.4492H4.32264C4.32299 10.5965 4.22489 12.4061 4.22682 12.5556H3.70105L3.78813 11.0809C3.78813 11.0809 3.19652 12.4616 3.15718 12.5556H2.74255L2.55578 11.0809C2.54204 11.1476 2.345 12.1326 2.23767 12.5556H1.71436C1.7692 12.3676 2.16939 10.5577 2.20057 10.4492H2.90402L3.069 11.6558Z" fill="white"/>
</g>
<path fill-rule="evenodd" clip-rule="evenodd" d="M8.01389 11.6946L8.34628 10.913L8.45483 11.6946H8.01389ZM8.50972 12.1288C8.50972 12.1288 8.54718 12.4723 8.56093 12.5556H9.11735C9.08618 12.3819 8.78269 10.5724 8.76073 10.4492H8.05623C8.01565 10.5373 7.21221 12.3483 7.1167 12.5556H7.68151C7.71146 12.4847 7.85502 12.1291 7.85502 12.1291L8.50972 12.1288Z" fill="white"/>
<path fill-rule="evenodd" clip-rule="evenodd" d="M6.17172 10.8443H6.30095C6.38966 10.8443 6.48824 10.8542 6.5499 10.9254C6.59329 10.9752 6.60883 11.046 6.59592 11.1355C6.59592 11.1355 6.57796 11.297 6.47186 11.348C6.47186 11.348 6.39923 11.3956 6.27851 11.3987H6.01613L6.5109 12.5556H7.07414L6.64835 11.6682C6.90617 11.6201 7.10756 11.544 7.1588 11.1438C7.16508 11.0936 7.17009 11.0457 7.17009 11.0006C7.17009 10.8529 7.13092 10.733 7.05372 10.6441C6.91403 10.4829 6.67378 10.4492 6.49716 10.4492H5.70167C5.68287 10.5771 5.42382 12.387 5.39893 12.5556H5.92747C5.94525 12.4375 6.17172 10.8443 6.17172 10.8443Z" fill="white"/>
<path fill-rule="evenodd" clip-rule="evenodd" d="M16.8002 11.4382C16.7942 11.4392 16.7878 11.4399 16.7809 11.4417C16.7878 11.4399 16.7942 11.4392 16.8002 11.4382Z" fill="#1F3263"/>
<path fill-rule="evenodd" clip-rule="evenodd" d="M17.5593 11.2875C17.5701 11.2845 17.5803 11.2817 17.5906 11.2799C17.5801 11.2817 17.5691 11.2845 17.5588 11.2875H17.5593Z" fill="#1F3263"/>
<path fill-rule="evenodd" clip-rule="evenodd" d="M16.6348 11.4647C16.6226 11.4668 16.6107 11.4685 16.5985 11.4699C16.6107 11.4685 16.6226 11.4668 16.6348 11.4647Z" fill="#1F3263"/>
<path fill-rule="evenodd" clip-rule="evenodd" d="M17.7837 11.2336C17.7437 11.244 17.7033 11.2537 17.6621 11.2634C17.7033 11.2537 17.7437 11.244 17.7837 11.2336Z" fill="#1F3263"/>
<path fill-rule="evenodd" clip-rule="evenodd" d="M16.4295 11.4955C16.4333 11.4951 16.4368 11.4941 16.4408 11.4937C16.4368 11.4941 16.4333 11.4951 16.4293 11.4955H16.4295Z" fill="#1F3263"/>
<path fill-rule="evenodd" clip-rule="evenodd" d="M18.0605 11.1639C18.0358 11.1711 18.01 11.1777 17.9844 11.1847C18.01 11.1777 18.0358 11.1711 18.0605 11.1639Z" fill="#1F3263"/>
<path fill-rule="evenodd" clip-rule="evenodd" d="M18.701 10.9727H18.7C18.6421 10.9919 18.5828 11.0107 18.5215 11.03C18.5828 11.0107 18.6428 10.9919 18.701 10.9727Z" fill="#1F3263"/>
<path fill-rule="evenodd" clip-rule="evenodd" d="M18.4851 11.0418C18.4605 11.0499 18.4356 11.0573 18.4102 11.0646C18.4356 11.0573 18.4605 11.0499 18.4851 11.0418Z" fill="#1F3263"/>
<path fill-rule="evenodd" clip-rule="evenodd" d="M18.37 11.0781C18.2864 11.1026 18.2007 11.127 18.1113 11.1515C18.2007 11.127 18.2864 11.1026 18.37 11.0781Z" fill="#1F3263"/>
<path fill-rule="evenodd" clip-rule="evenodd" d="M17.9286 11.1996C17.9036 11.2059 17.878 11.2124 17.8525 11.2193C17.878 11.2124 17.9036 11.2059 17.9286 11.1996Z" fill="#1F3263"/>
<path fill-rule="evenodd" clip-rule="evenodd" d="M15.3696 11.6152C15.3643 11.6159 15.3595 11.6159 15.354 11.6162C15.3595 11.6159 15.3643 11.6159 15.3696 11.6152Z" fill="#1F3263"/>
<path fill-rule="evenodd" clip-rule="evenodd" d="M15.0377 11.6385C15.0335 11.6389 15.03 11.6394 15.0257 11.6398C15.03 11.6394 15.0335 11.6389 15.0377 11.6385Z" fill="#1F3263"/>
<path fill-rule="evenodd" clip-rule="evenodd" d="M15.2047 11.6269C15.2002 11.6273 15.1951 11.6276 15.1908 11.628C15.1951 11.6276 15.2002 11.6273 15.2047 11.6269Z" fill="#1F3263"/>
<path fill-rule="evenodd" clip-rule="evenodd" d="M16.1388 11.2778C16.1351 11.2762 15.9853 11.2011 15.9853 11.2011L15.9833 11.2L15.9813 11.1991C15.9318 11.1706 15.8159 11.1035 15.8159 10.9905C15.8164 10.9357 15.8376 10.8882 15.8771 10.8555C15.9243 10.8158 15.9982 10.8002 16.0773 10.8153C16.1767 10.8309 16.291 10.8952 16.4168 11.0027C16.4767 10.8882 16.5905 10.6686 16.6319 10.5908C16.4878 10.4717 16.348 10.4078 16.1399 10.3709C15.8823 10.3335 15.6341 10.388 15.4597 10.5203C15.313 10.633 15.2217 10.7972 15.1973 10.9966C15.1933 11.0301 15.1914 11.0634 15.1914 11.0947C15.1914 11.2045 15.2145 11.2992 15.2609 11.3789C15.5743 11.3719 15.9044 11.3559 16.2372 11.3289C16.2069 11.3112 16.1741 11.2938 16.1388 11.2778Z" fill="white"/>
<path fill-rule="evenodd" clip-rule="evenodd" d="M18.4861 10.4492C18.4733 10.537 18.4325 10.8144 18.4131 10.95C18.8223 10.8354 19.3167 10.6712 19.7752 10.4492H18.4861Z" fill="white"/>
<path fill-rule="evenodd" clip-rule="evenodd" d="M18.7007 10.973H18.7017C18.6434 10.9922 18.5835 11.011 18.5222 11.0303C18.5096 11.0341 18.4973 11.038 18.4848 11.0415C18.4601 11.0496 18.4353 11.057 18.4098 11.0644C18.3968 11.0685 18.3832 11.0722 18.3696 11.0764C18.286 11.1009 18.2003 11.1253 18.1109 11.1498C18.0943 11.1545 18.0775 11.1588 18.0608 11.1629C18.036 11.1701 18.0102 11.1768 17.9846 11.1838C17.9663 11.1881 17.9472 11.1933 17.9288 11.1976C17.9038 11.204 17.8782 11.2104 17.8527 11.2174C17.8296 11.2228 17.8064 11.2285 17.7832 11.2338C17.7431 11.2441 17.7027 11.2539 17.6616 11.2636C17.6377 11.2689 17.6151 11.2749 17.5906 11.28C17.5803 11.2819 17.5702 11.2846 17.5594 11.2876H17.559C17.3205 11.3412 17.0677 11.3921 16.7998 11.4378C16.7939 11.4389 16.7874 11.4396 16.7805 11.4414C16.7327 11.4493 16.6836 11.4574 16.6345 11.465C16.6223 11.4671 16.6104 11.4688 16.5982 11.4703C16.546 11.4786 16.4937 11.4872 16.4409 11.4946C16.4369 11.495 16.4335 11.496 16.4296 11.4964H16.4294C16.1413 11.5382 15.8383 11.5741 15.5198 11.6023H15.5155C15.4671 11.6069 15.4181 11.6103 15.369 11.6142C15.3638 11.6149 15.3589 11.6149 15.3535 11.6152C15.3042 11.6197 15.2542 11.6232 15.2046 11.6267C15.2 11.6271 15.195 11.6274 15.1906 11.6278C15.1395 11.6309 15.0887 11.634 15.0373 11.6368C15.0331 11.6372 15.0296 11.6377 15.0253 11.638C14.9728 11.641 14.9208 11.6434 14.8676 11.6462H14.8617C14.5938 11.6593 14.3168 11.6659 14.0309 11.6659V11.6664C14.023 11.6664 14.0154 11.6659 14.0076 11.6659C13.9447 11.6659 13.8812 11.665 13.8177 11.6647C13.804 11.6643 13.7908 11.6643 13.7769 11.6643C13.5471 11.6615 13.3112 11.6532 13.0703 11.6406H13.0652V11.6401C12.6996 11.6208 12.3214 11.5897 11.9315 11.5459L12.3802 11.1237C12.3802 11.1237 12.6419 11.202 13.0027 11.2667C12.9339 10.8595 12.8738 10.5017 12.8644 10.4492H12.1601C12.1191 10.5373 11.3158 12.3483 11.2207 12.5556H11.7859C11.8162 12.4847 12.0055 12.0319 12.0055 12.0319L12.5944 12.031C12.5944 12.031 12.6513 12.4723 12.6642 12.5556H13.221C13.2088 12.488 13.1548 12.1699 13.0926 11.8006C13.4894 11.8229 13.8875 11.8274 14.2577 11.8216C14.2767 11.8532 14.2866 11.8865 14.2866 11.9227C14.2866 11.9357 14.2856 11.9479 14.283 11.9613C14.2751 12.0093 14.2499 12.0481 14.2115 12.0751C14.1349 12.1288 14.0252 12.1173 13.9492 12.1034C13.7692 12.0722 13.6267 11.9357 13.5116 11.8236C13.4388 11.9413 13.2881 12.187 13.2384 12.2675C13.4509 12.4606 13.6804 12.5789 13.9232 12.612C14.1682 12.6495 14.4114 12.5943 14.592 12.4615C14.749 12.3453 14.8481 12.1758 14.8788 11.9717C14.8888 11.9126 14.8927 11.8563 14.8899 11.8036C15.287 11.7866 15.6171 11.7617 15.8286 11.7431C15.8981 11.7945 15.9341 11.8542 15.9341 11.9227C15.9341 11.9357 15.9328 11.9479 15.9307 11.9613C15.9221 12.0093 15.8976 12.0481 15.8592 12.0751C15.7827 12.1288 15.6725 12.1173 15.597 12.1034C15.4168 12.0722 15.2735 11.9357 15.1596 11.8236C15.0868 11.9413 14.9356 12.187 14.8859 12.2675C15.0983 12.4606 15.3277 12.5789 15.5702 12.612C15.8157 12.6495 16.0589 12.5943 16.2387 12.4615C16.3967 12.3453 16.496 12.1758 16.5264 11.9717C16.5453 11.8577 16.5413 11.7545 16.5141 11.6629C16.6041 11.6497 16.6902 11.6368 16.7731 11.6232C16.7101 12.065 16.6506 12.4789 16.6395 12.5556H17.9998C18.0128 12.4633 18.0477 12.219 18.0642 12.1011H17.2407L17.2964 11.7114H18.044C18.0555 11.6309 18.0824 11.4469 18.0996 11.3267C18.2015 11.2942 18.2522 11.2749 18.2522 11.2749C18.2522 11.2749 18.5055 11.199 18.8327 11.0781C18.7853 11.4079 18.6412 12.4159 18.6212 12.5556H19.21C19.2278 12.4307 19.4372 10.973 19.4372 10.973H19.8631C19.8762 10.8826 19.9168 10.5935 19.9352 10.4621C19.7149 10.5848 19.2967 10.7779 18.7007 10.973Z" fill="white"/>
<path fill-rule="evenodd" clip-rule="evenodd" d="M14.6698 11.3836C14.6188 11.344 14.5592 11.3082 14.4911 11.2778C14.4881 11.2763 14.3383 11.2011 14.3383 11.2011L14.3357 11.2001L14.3335 11.1991C14.284 11.1706 14.1685 11.1035 14.1685 10.9905C14.169 10.9357 14.1902 10.8882 14.2293 10.8555C14.2773 10.8158 14.3507 10.8001 14.4296 10.8153C14.5293 10.8309 14.6437 10.8952 14.7693 11.0028C14.8289 10.8882 14.9434 10.6686 14.9837 10.5909C14.8397 10.4717 14.7005 10.4077 14.4919 10.3709C14.2347 10.3335 13.9863 10.3881 13.8124 10.5203C13.665 10.633 13.5741 10.7972 13.5499 10.9967C13.5457 11.0301 13.5439 11.0634 13.5439 11.0946C13.5439 11.1877 13.5605 11.2697 13.5936 11.3413C13.6056 11.3423 13.618 11.3433 13.6298 11.344C13.8932 11.3644 14.2547 11.3804 14.6698 11.3836Z" fill="white"/>
<path fill-rule="evenodd" clip-rule="evenodd" d="M17.4122 10.9034H18.2147C18.2277 10.811 18.2632 10.5671 18.2799 10.4492H16.9418C16.9338 10.5035 16.8826 10.8618 16.8242 11.2694C17.0091 11.2462 17.1922 11.2194 17.3716 11.1875L17.4122 10.9034Z" fill="white"/>
<path fill-rule="evenodd" clip-rule="evenodd" d="M9.17166 13.1875L8.87796 14.8519H8.58805L8.88174 13.1875H9.17166ZM7.86453 13.4523L7.69225 14.4263H8.09973L8.27082 13.4523H7.86453ZM8.60008 13.2225L8.34643 14.6603H7.60324C7.52292 14.6603 7.46597 14.6435 7.43321 14.6101C7.39975 14.5777 7.38846 14.5298 7.39975 14.4666L7.61874 13.2225H8.60008Z" fill="white"/>
<path fill-rule="evenodd" clip-rule="evenodd" d="M10.2618 13.2236L10.1263 13.9955H9.74774L9.66765 14.4469H10.1803L10.4032 13.1875H10.6927L10.5761 13.8491H10.7913L10.9073 13.1875H11.197L10.904 14.8519H10.616L10.7544 14.0638H10.5392L10.4007 14.8531H10.1094L10.1439 14.659H9.59339C9.51153 14.659 9.45265 14.6435 9.41607 14.6125C9.37909 14.5791 9.36552 14.531 9.37703 14.4686L9.49269 13.8133H9.86829L9.93398 13.4328H9.55997L9.59673 13.2236H10.2618Z" fill="white"/>
<path fill-rule="evenodd" clip-rule="evenodd" d="M13.1959 13.1904L12.9029 14.8544H12.6216L12.9143 13.1904H13.1959ZM11.7659 13.5322C11.7199 13.6373 11.6817 13.7758 11.6517 13.9469C11.6197 14.1279 11.608 14.2717 11.6164 14.3796C11.6248 14.4946 11.6559 14.5522 11.711 14.5522C11.7627 14.5522 11.8135 14.4946 11.8639 14.3796C11.9105 14.2717 11.9495 14.1279 11.9812 13.9469C12.0116 13.7758 12.0224 13.6373 12.0132 13.5322C12.0041 13.4183 11.9728 13.3613 11.9209 13.3613C11.866 13.3613 11.8148 13.4183 11.7659 13.5322ZM12.14 14.064L12.1816 13.8488H12.3724L12.4905 13.1893H12.7701L12.4764 14.853H12.1956L12.3344 14.064H12.14ZM12.2468 13.9732C12.2041 14.1943 12.1348 14.3739 12.0387 14.5112C11.936 14.6584 11.8165 14.7321 11.6803 14.7321C11.5402 14.7321 11.4453 14.655 11.3947 14.5014C11.3486 14.3593 11.3449 14.1741 11.3855 13.946C11.424 13.7265 11.4916 13.5461 11.5874 13.4063C11.6928 13.2558 11.8148 13.1797 11.9532 13.1797C12.0733 13.1797 12.1607 13.2373 12.2158 13.353C12.267 13.4603 12.2855 13.6042 12.2702 13.7851C12.2702 13.7851 12.2684 13.838 12.2468 13.9732Z" fill="white"/>
<path fill-rule="evenodd" clip-rule="evenodd" d="M14.5911 14.5342C14.6975 14.6151 14.832 14.6677 14.9939 14.6919L14.8445 14.8572C14.7041 14.8329 14.5791 14.7907 14.469 14.7306C14.3571 14.6677 14.2797 14.5968 14.2373 14.5172C14.1697 14.5968 14.065 14.6686 13.9241 14.7322C13.783 14.7969 13.6319 14.8405 13.4717 14.865L13.3911 14.7017C13.5587 14.6799 13.7152 14.6267 13.8601 14.5423C14.0282 14.4422 14.1242 14.3269 14.147 14.1963H14.4362C14.413 14.3269 14.4652 14.4398 14.5911 14.5342ZM15.1939 13.1875L15.0274 14.137H14.7411L14.9084 13.1875H15.1939ZM14.7676 13.1885L14.6 14.1372H14.3145L14.3966 13.6721H14.1899L14.2229 13.4846H14.43L14.4816 13.1885H14.7676ZM14.0787 13.2011C14.0415 13.4137 14.0373 13.5819 14.0666 13.7046C14.0934 13.8237 14.1547 13.9157 14.2517 13.9815L14.0798 14.1024C14.0171 14.0603 13.9615 14.0046 13.9143 13.935C13.8873 13.8969 13.8593 13.846 13.8279 13.7836C13.7849 13.8363 13.7387 13.8854 13.6885 13.9331C13.6168 14.0024 13.5408 14.0603 13.4624 14.1063L13.3359 13.9837C13.4544 13.9105 13.5458 13.822 13.6111 13.7182C13.692 13.5927 13.7509 13.4202 13.7901 13.2011H14.0787Z" fill="white"/>
<path fill-rule="evenodd" clip-rule="evenodd" d="M16.8251 14.3035C16.9385 14.3683 16.9864 14.4488 16.9699 14.545C16.9524 14.6397 16.8765 14.7202 16.7398 14.7852C16.5876 14.8592 16.3922 14.8965 16.1544 14.8965C15.9152 14.8965 15.7321 14.8592 15.6047 14.7852C15.49 14.7202 15.441 14.6397 15.4575 14.545C15.4744 14.4502 15.5516 14.3699 15.6891 14.3035C15.8426 14.229 16.0394 14.1916 16.2785 14.1916C16.5168 14.1916 16.6988 14.229 16.8251 14.3035ZM15.8887 14.4298C15.8048 14.4607 15.7581 14.4994 15.7495 14.5452C15.7422 14.5885 15.7752 14.6266 15.8487 14.6586C15.9297 14.6931 16.0431 14.7107 16.1872 14.7107C16.3298 14.7107 16.4483 14.6931 16.5415 14.6586C16.6258 14.6278 16.6732 14.59 16.6805 14.5452C16.6888 14.4994 16.6563 14.4607 16.5816 14.4298C16.502 14.3955 16.3901 14.3779 16.2462 14.3779C16.1018 14.3779 15.9826 14.3955 15.8887 14.4298ZM16.468 13.1875H16.7557L16.6861 13.58H16.8373L16.9058 13.1875H17.192L17.0256 14.1308H16.7398L16.8028 13.7739H16.6522L16.5892 14.1308H16.3018L16.3065 14.1049L16.468 13.1875ZM16.0772 13.2011L16.0422 13.4028C16.021 13.5206 16.0302 13.6303 16.0701 13.7314C16.1098 13.83 16.1767 13.9108 16.2706 13.9735L16.1019 14.093C16.0354 14.0478 15.9767 13.9948 15.9242 13.9331C15.8804 13.8812 15.8481 13.8321 15.827 13.7871C15.7882 13.8373 15.7431 13.8854 15.6901 13.9331C15.6196 13.9948 15.5438 14.0484 15.4629 14.0944L15.3359 13.9735C15.4476 13.907 15.5373 13.83 15.6047 13.7432C15.6802 13.6458 15.7295 13.5328 15.7523 13.4053L15.7879 13.2011H16.0772Z" fill="white"/>
<path fill-rule="evenodd" clip-rule="evenodd" d="M18.8036 14.2986C18.9168 14.3652 18.9646 14.4469 18.9472 14.5446C18.929 14.639 18.8525 14.7199 18.716 14.7843C18.5636 14.8592 18.3672 14.8961 18.1268 14.8961C17.8871 14.8961 17.7038 14.8592 17.5782 14.7843C17.4662 14.7199 17.4186 14.639 17.4347 14.5446C17.4523 14.4469 17.5284 14.3652 17.6636 14.2986C17.8176 14.2241 18.0127 14.1875 18.2508 14.1875C18.4933 14.1875 18.6773 14.2241 18.8036 14.2986ZM17.8622 14.4246C17.7811 14.4567 17.7368 14.496 17.7282 14.5421C17.7204 14.5873 17.7516 14.6245 17.8213 14.6556C17.8997 14.6912 18.0122 14.7091 18.1596 14.7091C18.309 14.7091 18.4298 14.6912 18.5223 14.6556C18.6042 14.6245 18.649 14.5873 18.6573 14.5421C18.6652 14.496 18.6334 14.4567 18.5631 14.4246C18.4829 14.3905 18.3683 14.373 18.2188 14.373C18.0716 14.373 17.9526 14.3905 17.8622 14.4246ZM18.7714 13.7531L18.8116 13.5234H18.536L18.4956 13.7531H18.7714ZM17.8652 13.4084L17.7845 13.8631H18.1887L18.2691 13.4084H17.8652ZM18.5899 13.2234L18.5695 13.3399H18.8446L18.871 13.1875H19.1608L18.9942 14.1312H18.705L18.7395 13.9354H18.4637L18.4428 14.0562H17.7031C17.6228 14.0562 17.5655 14.0396 17.5307 14.0067C17.4977 13.9736 17.4866 13.926 17.4972 13.8645L17.6104 13.2234H18.5899Z" fill="white"/>
</svg>
