<svg width="24" height="24" viewBox="0 0 24 24" fill="none" xmlns="http://www.w3.org/2000/svg">
<circle cx="12" cy="12" r="11.5" fill="white" stroke="#EBEFF5"/>
<g clip-path="url(#clip0_5674_37477)">
<path d="M19.2568 11.9858L19.1244 11.9035C18.8731 11.6734 18.5741 11.5015 18.2488 11.4001C17.9235 11.2987 17.5799 11.2702 17.2423 11.3167C16.6567 11.3674 16.0926 11.5615 15.5999 11.882V11.8641C15.6033 11.6392 15.6188 11.4147 15.6464 11.1914C15.6753 10.9635 15.692 10.7341 15.6965 10.5044C15.7038 10.292 15.6685 10.0803 15.5927 9.8818C15.5827 9.85894 15.5662 9.83958 15.5451 9.82619C15.5241 9.8128 15.4996 9.806 15.4746 9.80666C15.2061 9.83191 14.9468 9.91753 14.716 10.0571L14.6588 10.1824C14.6558 10.5228 14.6186 10.862 14.5479 11.195L14.5192 11.2773C14.4281 12.1337 14.4281 12.9973 14.5192 13.8536C14.5192 13.9288 14.6695 14.0397 14.7804 14.0791C15.0263 14.0851 15.2705 14.0375 15.4961 13.9395H15.5784C15.5948 13.9374 15.6106 13.9319 15.6248 13.9234C15.639 13.915 15.6514 13.9037 15.6611 13.8903C15.6708 13.8769 15.6777 13.8617 15.6813 13.8455C15.6849 13.8294 15.6852 13.8127 15.6822 13.7964V13.5817C15.7796 13.2145 15.9743 12.8805 16.2457 12.6147C16.5171 12.3489 16.8553 12.1613 17.2244 12.0717C17.4089 12.0317 17.6006 12.0412 17.7803 12.0989C17.9599 12.1567 18.1212 12.2609 18.2478 12.4009C18.3276 12.7555 18.2673 13.1273 18.0796 13.4386C17.8123 13.8762 17.3973 14.2036 16.9095 14.3618C16.3365 14.5667 15.7278 14.6531 15.1204 14.6158L14.462 14.1685C13.8791 13.7251 13.2476 13.3493 12.5798 13.0485C12.4247 12.9653 12.2804 12.8632 12.1504 12.7444L12.086 12.6907C11.7282 12.4009 11.034 11.9393 10.4794 11.5707L10.1788 11.3703V11.3059C10.1967 11.288 10.5367 11.0805 10.5367 11.0805C10.8102 10.9467 11.0662 10.7796 11.2988 10.5831C11.3212 10.5716 11.3427 10.5584 11.3632 10.5438L12.5727 9.86033C13.7356 9.2234 15.0488 8.49702 15.743 7.78137L15.7752 7.67401V7.57741C15.8179 7.44478 15.8179 7.3021 15.7752 7.16948C15.7695 7.14704 15.7578 7.12657 15.7415 7.1102C15.7251 7.09382 15.7046 7.08217 15.6822 7.07645C15.1419 7.02278 14.4477 7.34839 13.8107 7.94238C13.6945 8.04869 13.5645 8.13895 13.4243 8.21075L13.3277 8.26442C12.612 8.66161 11.0555 9.63848 10.2289 10.1645C10.306 9.09191 10.447 8.02489 10.6512 6.9691L10.6261 6.84386L10.5438 6.68285L10.4794 6.56834H10.4579C10.3972 6.53852 10.3312 6.52096 10.2636 6.51667C10.1961 6.51237 10.1284 6.52141 10.0643 6.54329L9.89972 6.60412L9.67787 6.68643C9.65745 6.68939 9.63825 6.69798 9.62245 6.71126C9.60665 6.72453 9.59486 6.74196 9.58842 6.76157C9.14141 7.97121 8.87145 9.23906 8.78689 10.5259C8.18466 10.1466 7.56101 9.80255 6.91905 9.49534H6.87611C6.71984 9.45325 6.57211 9.38424 6.43956 9.29139L6.13899 9.09816L5.68455 8.80474L5.56289 8.77969C5.29461 8.86102 5.05666 9.02048 4.87945 9.23771C4.86538 9.25892 4.85791 9.28382 4.85798 9.30928C4.85961 9.34711 4.86684 9.38449 4.87945 9.4202L4.90092 9.51324L4.92239 9.56691C5.32061 9.91666 5.76048 10.2159 6.23202 10.4579L6.86179 10.7907L7.82434 11.3167L7.98894 11.4455L8.09987 11.5099H8.12134L6.37157 12.6764L5.45196 13.2847C5.28086 13.3802 5.10399 13.4651 4.92239 13.5388C4.74525 13.6023 4.59841 13.73 4.51089 13.8966L4.48584 13.9503L4.51089 13.9825L4.58245 14.0361L4.67549 14.1005L4.77568 14.1685H4.87229C5.17729 14.1259 5.47126 14.0251 5.73823 13.8715C6.14972 13.689 7.26613 13.0163 7.74204 12.7301L7.946 12.6084C8.04517 12.5964 8.13729 12.5509 8.20721 12.4796C8.34146 12.3797 8.48529 12.2934 8.6366 12.222L8.78331 12.1397C8.7821 12.1587 8.7821 12.1779 8.78331 12.1969C8.77675 13.3153 8.86533 14.4321 9.0481 15.5354V15.5676C9.15864 15.8129 9.24146 16.0697 9.295 16.3334L9.47749 16.9452L9.52758 17.0025C9.71998 17.1135 9.93883 17.1704 10.1609 17.1671H10.2146L10.2468 17.092C10.2643 17 10.2727 16.9065 10.2719 16.8129C10.2719 16.7019 10.2719 16.5767 10.2719 16.4264V16.2081C10.2039 15.1883 10.1359 13.7034 10.1359 12.7372V12.6621L11.0698 13.2453C12.358 14.0827 14.2902 15.3458 15.4818 15.6785C15.5109 15.689 15.5424 15.6911 15.5727 15.6848C15.603 15.6785 15.631 15.664 15.6535 15.6428L15.8325 15.5247H15.8682C15.9075 15.4921 15.9389 15.451 15.96 15.4045C15.9811 15.358 15.9913 15.3073 15.9899 15.2563C16.9811 15.2062 18.3623 14.8233 19.103 13.893C19.3695 13.5569 19.5156 13.1411 19.518 12.7122C19.5341 12.4516 19.4481 12.1949 19.2783 11.9965" fill="#FCAF16"/>
</g>
<defs>
<clipPath id="clip0_5674_37477">
<rect width="15" height="10.6846" fill="white" transform="translate(4.5 6.5)"/>
</clipPath>
</defs>
</svg>
