<svg width="24" height="24" viewBox="0 0 24 24" fill="none" xmlns="http://www.w3.org/2000/svg">
<circle cx="12" cy="12" r="12" fill="#CB0202"/>
<mask id="mask0_5674_37615" style="mask-type:luminance" maskUnits="userSpaceOnUse" x="0" y="0" width="24" height="24">
<circle cx="12" cy="12" r="12" fill="white"/>
</mask>
<g mask="url(#mask0_5674_37615)">
<path fill-rule="evenodd" clip-rule="evenodd" d="M12.0002 2C6.47724 2 2 6.47724 2 12.0002C2 17.5232 6.47724 22.0004 12.0002 22.0004C17.5232 22.0004 22.0004 17.5232 22.0004 12.0002C22.0004 9.34798 20.9468 6.80439 19.0714 4.92899C17.196 3.05359 14.6524 2 12.0002 2ZM12.3896 16.5459H16.5452V14.7279H12.9092V9.32792H16.5458V7.45592H12.3896V5.63672H18.3638V11.0913H14.7278V12.9093H18.3644V18.3639H12.3896V16.5459ZM5.63672 12.9093H9.32732V11.0913H5.63672V5.63672H11.6109V7.45472H7.45472V9.32672H11.0913V14.7267H7.45472V16.5447H11.6103V18.3627H5.63672V12.9093Z" fill="white"/>
</g>
</svg>
