<svg width="24" height="24" viewBox="0 0 24 24" fill="none" xmlns="http://www.w3.org/2000/svg">
<circle cx="11.9985" cy="12.0002" r="10.8" fill="white"/>
<path d="M12.0002 0C5.37195 0 0.000244141 5.3717 0.000244141 12C0.000244141 18.6283 5.37195 24 12.0002 24C18.6285 24 24.0002 18.6283 24.0002 12C24.0002 5.3717 18.6263 0 12.0002 0ZM12.252 21.801C10.8172 22.0037 8.48001 21.6383 6.8959 20.6379C5.51008 19.7623 4.68127 18.6662 4.14655 17.5544C3.60069 16.4181 3.34001 15.039 3.92375 15.1081C4.19779 15.1392 4.43173 15.6584 4.95977 16.3312C5.3207 16.7924 5.65268 17.1801 5.90221 17.2336C6.01361 17.2581 6.10719 17.2068 6.1874 17.0553C6.33667 16.7701 6.53719 16.2287 6.89813 15.7898C7.19 15.4534 7.53979 15.2974 7.74254 16.1173C7.84057 16.5273 7.91855 16.9462 7.96534 17.3138C8.02995 17.8329 8.06337 18.1426 8.24384 18.2317C8.41539 18.3164 8.70949 18.2072 9.18183 18.0312C9.52048 17.9042 9.95717 17.7438 10.5075 17.5856C11.0155 17.4408 11.3363 17.5165 11.011 18.303C10.8573 18.6751 10.7013 18.987 10.1532 19.7779C10.0574 19.9161 10.0753 20.0542 10.1956 20.1745C10.3783 20.3572 10.7949 20.5778 11.2561 20.7783C11.6215 20.9365 12.0582 21.0746 12.3478 21.1571C12.8001 21.2863 12.711 21.743 12.2565 21.8054L12.252 21.801ZM18.4102 19.2209C17.9624 19.9473 17.0266 20.7338 15.8903 21.2573C15.7188 21.3353 15.5339 21.3108 15.4871 21.1704C15.447 21.0479 15.5428 20.9098 15.6564 20.7761C17.1358 18.8556 16.0374 17.0977 13.649 15.7319C11.8844 14.7226 10.7615 14.1433 9.46033 13.3769C5.64599 11.1311 4.90852 9.17267 4.75925 8.01634C4.38272 5.09098 6.80232 2.90085 9.28877 2.37282C9.36452 2.35722 9.56281 2.32603 9.62743 2.4909C9.69204 2.65577 9.54499 2.77609 9.4581 2.82956C8.34633 3.44226 7.25238 4.74118 7.37269 6.18492C7.43953 6.99146 7.78487 8.15225 9.96831 9.70739C11.2851 10.6476 12.9004 11.4185 16.1532 13.368C19.591 15.4289 19.1989 17.9421 18.4124 19.2232L18.4102 19.2209ZM18.9471 8.24582C18.1629 9.20609 17.3764 8.84961 16.7726 7.49722C16.3961 6.6528 15.8992 6.45006 15.5494 6.67063C15.1685 6.91125 15.32 7.49053 15.7455 8.1567C16.024 8.59339 15.8992 9.10583 15.6096 9.40884C15.3044 9.72744 14.8053 9.85444 14.2617 9.73413C13.2947 9.52024 12.3434 8.22577 13.0385 5.39621C13.3192 4.25325 12.7711 3.76532 12.4236 3.3264C12.2498 3.10583 12.2275 2.97438 12.2921 2.88526C12.3612 2.78945 12.5216 2.78277 12.8068 2.84293C13.1789 2.92091 13.7314 3.11251 14.1815 3.18158C14.48 3.22837 14.8187 3.24174 15.1729 3.22837C16.1376 3.19049 16.8484 3.33977 17.5769 3.70071C18.8112 4.31118 18.9382 5.36502 18.252 5.28036C18.0136 5.25139 17.7084 5.07092 17.4544 4.94838C17.2851 4.86595 17.138 4.83921 17.0311 4.91719C16.9308 4.99072 16.8862 5.14445 16.9575 5.29595C17.1113 5.61901 17.6304 5.78611 18.3322 5.97995C19.5621 6.3186 19.5888 7.45934 18.9449 8.24805L18.9471 8.24582Z" fill="#0046FF"/>
<path d="M12.2488 21.8006C10.814 22.0033 8.47682 21.6379 6.89271 20.6375C5.5069 19.7619 4.67808 18.6658 4.14336 17.554C3.5975 16.4177 3.33683 15.0386 3.92056 15.1077C4.19461 15.1388 4.42855 15.658 4.95658 16.3308C5.31752 16.792 5.64949 17.1797 5.89902 17.2332C6.01042 17.2577 6.104 17.2064 6.18421 17.0549C6.33348 16.7697 6.534 16.2283 6.89494 15.7894C7.18681 15.453 7.5366 15.297 7.73935 16.1169C7.83738 16.5269 7.91536 16.9458 7.96215 17.3134C8.02676 17.8325 8.06018 18.1422 8.24065 18.2313C8.41221 18.316 8.7063 18.2068 9.17864 18.0308C9.51729 17.9038 9.95398 17.7434 10.5043 17.5852C11.0123 17.4404 11.3331 17.5161 11.0078 18.3026C10.8541 18.6747 10.6981 18.9866 10.15 19.7775C10.0542 19.9157 10.0721 20.0538 10.1924 20.1741C10.3751 20.3568 10.7917 20.5774 11.2529 20.7779C11.6183 20.9361 12.055 21.0742 12.3446 21.1567C12.7969 21.2859 12.7078 21.7426 12.2533 21.805L12.2488 21.8006ZM18.407 19.2205C17.9592 19.9469 17.0234 20.7333 15.8871 21.2569C15.7156 21.3349 15.5307 21.3104 15.4839 21.17C15.4438 21.0475 15.5396 20.9094 15.6532 20.7757C17.1326 18.8551 16.0342 17.0973 13.6458 15.7315C11.8812 14.7222 10.7583 14.1429 9.45714 13.3765C5.6428 11.1307 4.90534 9.17226 4.75606 8.01593C4.37953 5.09057 6.79914 2.90045 9.28558 2.37241C9.36133 2.35682 9.55963 2.32562 9.62424 2.4905C9.68885 2.65537 9.5418 2.77568 9.45491 2.82915C8.34314 3.44185 7.24919 4.74077 7.3695 6.18452C7.43634 6.99105 7.78168 8.15184 9.96512 9.70698C11.2819 10.6472 12.8972 11.4181 16.15 13.3676C19.5878 15.4285 19.1957 17.9417 18.4092 19.2228L18.407 19.2205ZM18.944 8.24542C18.1597 9.20568 17.3732 8.8492 16.7694 7.49681C16.3929 6.6524 15.8961 6.44965 15.5463 6.67022C15.1653 6.91084 15.3168 7.49012 15.7423 8.1563C16.0208 8.59298 15.8961 9.10542 15.6064 9.40843C15.3012 9.72704 14.8021 9.85403 14.2585 9.73372C13.2915 9.51983 12.3402 8.22536 13.0353 5.39581C13.316 4.25284 12.7679 3.76491 12.4204 3.326C12.2466 3.10542 12.2243 2.97397 12.2889 2.88485C12.358 2.78905 12.5184 2.78236 12.8036 2.84252C13.1757 2.9205 13.7282 3.11211 14.1783 3.18118C14.4768 3.22796 14.8155 3.24133 15.1697 3.22796C16.1344 3.19009 16.8452 3.33936 17.5737 3.7003C18.808 4.31077 18.935 5.36461 18.2488 5.27995C18.0104 5.25099 17.7052 5.07052 17.4534 4.94798C17.2841 4.86554 17.137 4.83881 17.0301 4.91679C16.9298 4.99031 16.8853 5.14404 16.9566 5.29555C17.1103 5.61861 17.6294 5.78571 18.3313 5.97954C19.5611 6.3182 19.5878 7.45893 18.944 8.24764V8.24542Z" fill="white"/>
</svg>
