<svg width="24" height="24" viewBox="0 0 24 24" fill="none" xmlns="http://www.w3.org/2000/svg">
<mask id="mask0_5674_37338" style="mask-type:alpha" maskUnits="userSpaceOnUse" x="0" y="0" width="24" height="24">
<rect width="24" height="24" rx="12" fill="white"/>
</mask>
<g mask="url(#mask0_5674_37338)">
<rect width="23.9982" height="23.9997" fill="#006ABD"/>
<path d="M12.0429 4.13697C6.63205 4.10297 1.79561 7.50601 0 12.6107V20.4148C0.106792 20.725 0.215984 21.0346 0.347374 21.3364C2.27383 19.2694 6.78369 17.8114 12.0429 17.8114C17.3021 17.8114 21.8108 19.2694 23.742 21.3364C23.8398 21.1144 23.9148 20.8846 23.9982 20.6578V12.3653C22.1296 7.38916 17.3579 4.10502 12.0429 4.13697Z" fill="#006CBE"/>
<path d="M12.0405 4.23861C6.62052 4.1996 1.77803 7.6182 0 12.7387V20.3214C0.113991 20.658 0.235782 20.9928 0.379172 21.3192C2.29903 19.2684 6.79869 17.8224 12.0411 17.8224C17.2835 17.8224 21.7844 19.269 23.7102 21.3192C23.82 21.0702 23.907 20.814 23.9988 20.559V12.5053C22.1493 7.50776 17.3689 4.20312 12.0405 4.23861Z" fill="#006DBF"/>
<path d="M12.0399 4.35193C6.40032 4.35193 1.62228 7.94889 0 12.8766V20.2439C0.119991 20.6039 0.251381 20.9585 0.40497 21.3059C2.32123 19.2725 6.80769 17.8386 12.0393 17.8386C17.2709 17.8386 21.7586 19.2725 23.6784 21.3059C23.8002 21.0317 23.8986 20.7503 23.9982 20.4689V12.6474C22.1661 7.63242 17.3786 4.3113 12.0399 4.35193Z" fill="#006FC0"/>
<path d="M12.0375 4.45312C6.37752 4.45312 1.58988 8.07288 0 13.0102V20.1525C0.125157 20.538 0.270344 20.9167 0.434967 21.2871C2.34342 19.2711 6.81969 17.8492 12.0375 17.8492C17.2553 17.8492 21.731 19.2711 23.6466 21.2871C23.7804 20.9871 23.892 20.6799 23.9988 20.3709V12.7834C22.3342 7.96368 17.6099 4.45312 12.0375 4.45312Z" fill="#0071C2"/>
<path d="M12.0375 4.5625C6.35232 4.5625 1.55148 8.21765 0 13.1724V20.0453C0.130526 20.4637 0.284764 20.8744 0.461965 21.2753C2.36862 19.2755 6.83229 17.8649 12.0369 17.8649C17.2415 17.8649 21.7052 19.2749 23.616 21.2753C23.7612 20.9519 23.886 20.6207 23.9982 20.2853V12.9204C22.3636 8.09406 17.6264 4.5625 12.0375 4.5625Z" fill="#0073C3"/>
<path d="M12.0375 4.66797C6.32892 4.66797 1.51309 8.35792 0 13.3283V19.93C0.135553 20.3826 0.29926 20.8262 0.490163 21.2584C2.38842 19.2754 6.84369 17.8762 12.0345 17.8762C17.2253 17.8762 21.6776 19.2754 23.5836 21.2584C23.7401 20.9099 23.8787 20.5536 23.9988 20.191V13.0589C22.3972 8.22352 17.6438 4.66797 12.0375 4.66797Z" fill="#0075C4"/>
<path d="M12.0353 4.77344C6.29848 4.77344 1.47304 8.49999 0.00195312 13.4847V19.8188C0.141994 20.3045 0.314982 20.78 0.519714 21.242C2.41677 19.2777 6.85764 17.8911 12.0347 17.8911C17.2117 17.8911 21.6525 19.2777 23.5538 21.2444C23.7246 20.8671 23.8736 20.4802 24.0002 20.0858V13.2159C22.4367 8.36259 17.6694 4.77344 12.0353 4.77344Z" fill="#0076C6"/>
<path d="M12.0311 4.87891C6.26728 4.87891 1.43045 8.63666 0.00195312 13.637V19.7095C0.145855 20.2278 0.327631 20.7347 0.545812 21.2263C2.43927 19.2763 6.86814 17.9023 12.0332 17.9023C17.1928 17.9023 21.627 19.2775 23.5223 21.2263C23.7075 20.8155 23.8668 20.3934 23.9993 19.9627V13.382C22.479 8.50886 17.6979 4.87891 12.0311 4.87891Z" fill="#0078C7"/>
<path d="M12.0309 4.98828C6.23893 4.98828 1.3835 8.78563 0 13.8046V19.5945C0.148892 20.1483 0.341482 20.6894 0.575957 21.2127C2.46222 19.2795 6.88028 17.9169 12.0303 17.9169C17.1803 17.9169 21.5996 19.2795 23.4894 21.2127C23.6907 20.7673 23.8611 20.3086 23.9994 19.8399V13.5538C22.5232 8.65844 17.7269 4.98828 12.0309 4.98828Z" fill="#007AC8"/>
<path d="M12.0291 5.09375C6.20953 5.09375 1.3403 8.9247 0 13.9574V19.4852C0.15205 20.0713 0.353971 20.6434 0.603555 21.1951C2.48501 19.2782 6.89108 17.9282 12.0279 17.9282C17.1647 17.9282 21.5708 19.2782 23.457 21.1951C23.6745 20.7148 23.8556 20.2188 23.9988 19.7114V13.7258C22.5724 8.8071 17.7587 5.09375 12.0291 5.09375Z" fill="#007CC9"/>
<path d="M12.0291 5.20312C6.18734 5.20312 1.2989 9.06288 0 14.1034V19.3887C0.155508 20.0041 0.366351 20.6041 0.629953 21.1815C2.50961 19.2819 6.90428 17.9434 12.0291 17.9434C17.1539 17.9434 21.5474 19.2819 23.4282 21.1833C23.6612 20.672 23.8524 20.1427 24 19.6005V13.8892C22.6174 8.95368 17.7872 5.20312 12.0291 5.20312Z" fill="#007ECB"/>
<path d="M12.0249 5.30859C6.15494 5.30859 1.24971 9.20674 0 14.2629V19.2764C0.158299 19.9263 0.379319 20.5592 0.659951 21.1664C2.53241 19.2848 6.91568 17.9564 12.0255 17.9564C17.1353 17.9564 21.5186 19.2836 23.3928 21.1664C23.6435 20.6205 23.8461 20.0538 23.9982 19.4726V14.0613C22.6684 9.10295 17.8169 5.30859 12.0249 5.30859Z" fill="#0080CC"/>
<path d="M12.0261 5.41406C6.12434 5.41406 1.19691 9.35121 0 14.4254V19.1599C0.160663 19.8455 0.391879 20.5127 0.689948 21.1507C2.55521 19.2853 6.92708 17.9707 12.0231 17.9707C17.1191 17.9707 21.4916 19.2847 23.3622 21.1507C23.6292 20.576 23.8417 19.9776 23.997 19.3633V14.2166C22.7152 9.24501 17.846 5.41406 12.0261 5.41406Z" fill="#0082CD"/>
<path d="M12.0225 5.52344C6.09494 5.52344 1.14891 9.49359 0 14.5767V19.0587C0.163528 19.7756 0.404944 20.4726 0.719946 21.137C2.57981 19.2885 6.94028 17.9871 12.0225 17.9871C17.1047 17.9871 21.4658 19.2897 23.3317 21.1388C23.6168 20.5306 23.8401 19.8952 23.9979 19.2423V14.3883C22.7692 9.39639 17.8763 5.52344 12.0225 5.52344Z" fill="#0084CE"/>
<path d="M12.0225 5.62891C6.04275 5.62891 1.07152 9.67106 0 14.7932V18.8965C0.160179 19.6647 0.411122 20.4112 0.747544 21.1201C2.6032 19.2877 6.95108 17.9966 12.0207 17.9966C17.0855 17.9966 21.44 19.2865 23.2999 21.1201C23.6033 20.4843 23.8374 19.8177 23.9982 19.1317V14.5418C22.819 9.53606 17.9057 5.62891 12.0225 5.62891Z" fill="#0086CF"/>
<path d="M12.0195 5.73438C5.98995 5.73438 0.992926 9.84432 0 15.0043V18.7308C0.155368 19.5523 0.415682 20.3505 0.774542 21.1056C2.6266 19.2894 6.96428 18.0102 12.0195 18.0102C17.0747 18.0102 21.4124 19.2894 23.2669 21.1056C23.5909 20.4326 23.8363 19.7246 23.9982 18.9954V14.7355C22.8856 9.70153 17.9438 5.73438 12.0195 5.73438Z" fill="#0088D1"/>
<path d="M12.0201 5.83984C5.93596 5.83984 0.904132 10.0284 0 15.2297V18.5507C0.148924 19.4304 0.419919 20.2851 0.80514 21.0899C2.65 19.2899 6.97568 18.0233 12.0177 18.0233C17.0597 18.0233 21.3854 19.2911 23.2369 21.0899C23.5853 20.3656 23.8411 19.6004 23.9982 18.8123V14.9657C22.9714 9.88559 18.0007 5.83984 12.0201 5.83984Z" fill="#008AD2"/>
<path d="M12.0171 5.94531C5.87896 5.94531 0.817139 10.2053 0 15.4432V18.3832C0.14189 19.3155 0.422157 20.2215 0.831538 21.0711C2.6734 19.2885 6.98768 18.0334 12.0165 18.0334C17.0399 18.0334 21.3602 19.2885 23.2057 21.0711C23.5813 20.2925 23.8484 19.466 23.9994 18.6148V15.2032C23.0656 10.0751 18.0619 5.94531 12.0171 5.94531Z" fill="#008DD3"/>
<path d="M12.0147 6.05469C5.82436 6.05469 0.728345 10.3842 0 15.6546V18.2225C0.133906 19.2086 0.424763 20.1669 0.861535 21.0611C2.6974 19.2947 6.99967 18.0515 12.0147 18.0515C17.0243 18.0515 21.3332 19.2947 23.1739 21.0611C23.5773 20.2316 23.8551 19.3468 23.9982 18.4355V15.4404C23.1616 10.2675 18.1207 6.05469 12.0147 6.05469Z" fill="#008FD4"/>
<path d="M12.0141 6.16016C5.76917 6.16016 0.631753 10.5647 0 15.8692V18.0526C0.123848 19.093 0.424767 20.1046 0.889733 21.0436C2.7196 19.294 7.01167 18.0628 12.0129 18.0628C17.0087 18.0628 21.3056 19.2928 23.1397 21.0436C23.5738 20.1628 23.8637 19.2179 23.9982 18.2452V15.6694C23.2618 10.4549 18.1801 6.16016 12.0141 6.16016Z" fill="#0091D5"/>
<path d="M12.0129 6.26562C5.59578 6.26562 0.365373 10.918 0 16.3845V17.5953C0.0761401 18.7885 0.388135 19.9548 0.917931 21.0266C2.74359 19.2951 7.02367 18.0747 12.0111 18.0747C16.9907 18.0747 21.2804 19.2951 23.1103 21.0266C23.5734 20.0998 23.8738 19.1003 23.9982 18.0717V15.8916C23.3619 10.639 18.2371 6.26562 12.0129 6.26562Z" fill="#0093D7"/>
<path d="M12.0099 6.375C5.41039 6.375 0.0581956 11.2949 0 16.9259V17.1089C0.0133449 18.466 0.336544 19.8022 0.944929 21.0154C2.76759 19.3 7.03447 18.0923 12.0099 18.0923C16.9787 18.0923 21.2534 19.3 23.0773 21.0154C23.614 19.9404 23.9272 18.7677 23.9979 17.5682V16.4582C23.6571 11.0243 18.4261 6.375 12.0099 6.375Z" fill="#0096D8"/>
<path d="M12.0088 18.102C16.9633 18.102 21.2271 19.2984 23.048 20.9964C23.6714 19.7693 23.9971 18.4128 23.9989 17.0364C23.9989 11.4205 18.6293 6.47656 12.0112 6.47656C5.39312 6.47656 0.0283203 11.4205 0.0283203 17.0364C0.029412 18.4126 0.354348 19.7691 0.976849 20.9964C2.79171 19.2972 7.04839 18.102 12.0088 18.102Z" fill="#0098D9"/>
<path d="M12.0069 18.1154C16.9475 18.1154 21.2 19.2992 23.0137 20.9816C23.6352 19.7685 23.9604 18.4254 23.9628 17.0624C23.9628 11.5011 18.6076 6.58594 12.0075 6.58594C5.40742 6.58594 0.0576172 11.5023 0.0576172 17.0624C0.058852 18.4251 0.382876 19.7682 1.00315 20.9816C2.81441 19.2992 7.05969 18.1154 12.0069 18.1154Z" fill="#009ADA"/>
<path d="M12.0061 18.1318C16.9329 18.1318 21.174 19.3036 22.9852 20.9691C23.6045 19.7695 23.9288 18.4396 23.9314 17.0896C23.9314 11.5835 18.5918 6.69531 12.0085 6.69531C5.42516 6.69531 0.0849609 11.5853 0.0849609 17.0884C0.0868351 18.4381 0.410132 19.768 1.02809 20.9679C2.83755 19.3036 7.07204 18.1318 12.0061 18.1318Z" fill="#009DDB"/>
<path d="M12.0039 18.1436C16.9163 18.1436 21.1466 19.3034 22.9501 20.9522C23.5672 19.7661 23.8909 18.4493 23.8938 17.1123C23.8938 11.6613 18.5686 6.80078 12.0039 6.80078C5.43917 6.80078 0.118164 11.6607 0.118164 17.1123C0.120028 18.4491 0.442637 19.7659 1.05889 20.9522C2.86176 19.3034 7.08424 18.1436 12.0039 18.1436Z" fill="#009FDD"/>
<path d="M12.0021 18.1579C16.9013 18.1579 21.1214 19.3057 22.9212 20.9377C23.5367 19.7648 23.8596 18.4606 23.8626 17.1361C23.8626 11.741 18.553 6.90625 12.0045 6.90625C5.45595 6.90625 0.152344 11.7392 0.152344 17.1361C0.154882 18.4594 0.476338 19.7626 1.08947 20.9353C2.88514 19.3057 7.09562 18.1579 12.0021 18.1579Z" fill="#00A2DE"/>
<path d="M12.0017 18.1686C16.8872 18.1686 21.0947 19.3044 22.8885 20.9201C23.5017 19.7604 23.8237 18.4689 23.8268 17.157C23.8268 11.8171 18.5316 7.01172 12.0017 7.01172C5.47182 7.01172 0.182617 11.8171 0.182617 17.157C0.184837 18.4686 0.505611 19.76 1.11735 20.9201C2.90881 19.305 7.1085 18.1686 12.0017 18.1686Z" fill="#00A4DF"/>
<path d="M12 18.181C16.8716 18.181 21.0677 19.3054 22.8592 20.9038C23.4705 19.7577 23.792 18.4793 23.7957 17.1803C23.7957 11.8949 18.5161 7.11719 12.003 7.11719C5.48987 7.11719 0.213867 11.8955 0.213867 17.1803C0.216355 18.479 0.53665 19.7574 1.1468 20.9038C2.93466 19.3066 7.11995 18.181 12 18.181Z" fill="#00A7E0"/>
<path d="M11.9979 18.1968C16.8575 18.1968 21.041 19.3092 22.824 20.8902C23.4336 19.7577 23.7544 18.4924 23.7582 17.2062C23.7582 11.9761 18.4918 7.22656 11.9991 7.22656C5.50635 7.22656 0.244141 11.9761 0.244141 17.2062C0.24644 18.492 0.565852 19.7574 1.17407 20.8902C2.95594 19.3092 7.13222 18.1968 11.9979 18.1968Z" fill="#00A9E1"/>
<path d="M11.9969 18.2084C16.841 18.2084 21.0149 19.3088 22.7961 20.8736C23.4022 19.7538 23.7211 18.5012 23.7243 17.228C23.7243 12.0531 18.4728 7.32812 11.9969 7.32812C5.52102 7.32812 0.274414 12.0507 0.274414 17.228C0.277397 18.501 0.596091 19.7534 1.20194 20.873C2.97961 19.3082 7.1439 18.2084 11.9969 18.2084Z" fill="#10ACE3"/>
<path d="M11.9964 18.2398C16.8338 18.2398 21.0023 19.3335 22.7782 20.8875C23.3842 19.7766 23.7038 18.5321 23.7081 17.2666C23.7081 12.1252 18.4633 7.42969 11.997 7.42969C5.53065 7.42969 0.290039 12.1246 0.290039 17.2666C0.293177 18.5318 0.611547 19.7763 1.21637 20.8875C2.99104 19.3335 7.14992 18.2398 11.9964 18.2398Z" fill="#23AEE4"/>
<path d="M11.9962 18.2681C16.8282 18.2681 20.9895 19.3547 22.763 20.8991C23.3686 19.7956 23.6883 18.5579 23.6929 17.2991C23.6929 12.1914 18.4547 7.52344 11.9974 7.52344C5.54005 7.52344 0.306641 12.192 0.306641 17.2991C0.309183 18.5575 0.627043 19.7952 1.23117 20.8991C3.00404 19.3541 7.15813 18.2681 11.9962 18.2681Z" fill="#31B1E5"/>
<path d="M11.9968 18.3007C16.8216 18.3007 20.9781 19.3807 22.7492 20.9136C23.3526 19.8189 23.6713 18.5901 23.6761 17.3401C23.6761 12.2665 18.4451 7.625 11.9974 7.625C5.54967 7.625 0.322266 12.2671 0.322266 17.3401C0.325206 18.5899 0.642742 19.8188 1.2456 20.9136C3.01486 19.3777 7.16415 18.3007 11.9968 18.3007Z" fill="#3CB4E6"/>
<path d="M11.997 18.3311C16.8164 18.3311 20.9663 19.4027 22.7362 20.9267C23.3386 19.8403 23.657 18.6194 23.6619 17.3771C23.6619 12.3372 18.4381 7.72266 11.9988 7.72266C5.55945 7.72266 0.339844 12.3378 0.339844 17.3771C0.343034 18.6191 0.660026 19.8401 1.26137 20.9267C3.02824 19.4018 7.17093 18.3311 11.997 18.3311Z" fill="#46B6E7"/>
<path d="M11.9962 18.3598C16.8085 18.3598 20.953 19.4242 22.7192 20.9397C23.3208 19.8615 23.6389 18.6483 23.6438 17.4136C23.6438 12.4073 18.4242 7.82031 11.9968 7.82031C5.56952 7.82031 0.353516 12.4079 0.353516 17.4136C0.356924 18.6479 0.67359 19.8612 1.27385 20.9397C3.03891 19.4248 7.1774 18.3598 11.9962 18.3598Z" fill="#4FB9E8"/>
<path d="M11.9964 18.392C16.8033 18.392 20.9412 19.4492 22.7056 20.9528C23.3056 19.8829 23.6233 18.6779 23.629 17.4513C23.629 12.4779 18.4189 7.91797 11.9976 7.91797C5.5763 7.91797 0.371094 12.4779 0.371094 17.4513C0.374146 18.6776 0.690312 19.8829 1.28962 20.9528C3.05169 19.4483 7.18478 18.392 11.9964 18.392Z" fill="#58BCE9"/>
<path d="M11.9967 18.4246C16.7963 18.4246 20.9288 19.4746 22.6903 20.9686C23.2896 19.9062 23.6067 18.708 23.6115 17.4883C23.6115 12.5486 18.4087 8.01562 11.997 8.01562C5.58525 8.01562 0.385742 12.5501 0.385742 17.4883C0.388942 18.7077 0.70478 19.9058 1.30307 20.9683C3.06394 19.4746 7.19103 18.4246 11.9967 18.4246Z" fill="#60BFEA"/>
<path d="M11.9955 18.4524C16.7897 18.4524 20.9156 19.4951 22.6747 20.9789C23.2721 19.9253 23.589 18.736 23.595 17.5248C23.595 12.6186 18.3988 8.11328 11.9961 8.11328C5.59338 8.11328 0.401367 12.6198 0.401367 17.5248C0.40485 18.7357 0.720156 19.9253 1.3169 20.9789C3.07567 19.4969 7.19796 18.4524 11.9955 18.4524Z" fill="#68C1EB"/>
<path d="M11.9971 18.4834C16.7847 18.4834 20.904 19.5196 22.6607 20.9926C23.2571 19.9471 23.5737 18.7654 23.5798 17.5618C23.5798 12.6899 18.3902 8.21094 11.9971 8.21094C5.60398 8.21094 0.417969 12.6917 0.417969 17.5618C0.421654 18.7651 0.736641 19.947 1.3323 20.9926C3.08837 19.5184 7.20376 18.4834 11.9971 18.4834Z" fill="#70C4EC"/>
<path d="M12.0001 18.5151C16.7811 18.5151 20.895 19.5429 22.6493 21.005C23.2444 19.9681 23.5604 18.7945 23.5666 17.5989C23.5666 12.7605 18.3848 8.30859 12.0001 8.30859C5.61533 8.30859 0.436523 12.7617 0.436523 17.5989C0.440437 18.7942 0.754891 19.9679 1.34906 21.005C3.10032 19.5429 7.21332 18.5151 12.0001 18.5151Z" fill="#78C7ED"/>
<path d="M11.9952 18.5437C16.7702 18.5437 20.8781 19.5637 22.6288 21.0181C23.2231 19.9893 23.5391 18.8234 23.5455 17.6353C23.5455 12.8306 18.3709 8.40625 11.9964 8.40625C5.62188 8.40625 0.447266 12.833 0.447266 17.6353C0.451327 18.823 0.765469 19.9891 1.3586 21.0181C3.11167 19.5649 7.21806 18.5437 11.9952 18.5437Z" fill="#80CAEE"/>
<path d="M11.9969 18.576C16.7665 18.576 20.8672 19.59 22.6161 21.0323C23.2096 20.0116 23.5253 18.8531 23.5316 17.6724C23.5316 12.9025 18.363 8.50391 11.9969 8.50391C5.63076 8.50391 0.464844 12.9019 0.464844 17.6718C0.468779 18.8522 0.782625 20.0108 1.37498 21.0317C3.12384 19.59 7.22514 18.576 11.9969 18.576Z" fill="#87CDEF"/>
<path d="M11.9979 18.6058C16.7603 18.6058 20.8556 19.612 22.6021 21.0448C23.1938 20.0326 23.509 18.8825 23.5158 17.71C23.5158 12.9701 18.3562 8.60156 11.9967 8.60156C5.63715 8.60156 0.477539 12.9743 0.477539 17.71C0.481488 18.882 0.794163 20.0322 1.38407 21.0448C3.13594 19.612 7.23183 18.6058 11.9979 18.6058Z" fill="#8ED0F0"/>
<path d="M11.9966 18.6324C16.7525 18.6324 20.843 19.632 22.5858 21.054C23.1762 20.05 23.491 18.9079 23.4984 17.7432C23.4984 13.0387 18.3442 8.69531 11.996 8.69531C5.64791 8.69531 0.496094 13.0417 0.496094 17.7432C0.500412 18.9076 0.813429 20.05 1.40323 21.054C3.14849 19.6344 7.23839 18.6324 11.9966 18.6324Z" fill="#95D2F1"/>
<path d="M11.9976 18.6656C16.7469 18.6656 20.8308 19.6585 22.5718 21.0703C23.1614 20.0748 23.476 18.9406 23.4838 17.7836C23.4838 13.1132 18.3362 8.79688 11.9976 8.79688C5.65911 8.79688 0.512695 13.1168 0.512695 17.7836C0.518181 18.9402 0.831711 20.0745 1.42103 21.0697C3.1609 19.6585 7.24539 18.6656 11.9976 18.6656Z" fill="#9CD5F2"/>
<path d="M11.999 18.6966C16.7423 18.6966 20.8184 19.6818 22.5582 21.084C23.1465 20.0963 23.4607 18.9696 23.4684 17.82C23.4684 13.1833 18.3279 8.89453 11.9984 8.89453C5.66889 8.89453 0.530273 13.1845 0.530273 17.82C0.534689 18.9692 0.846889 20.0963 1.43441 21.084C3.17308 19.6818 7.25217 18.6966 11.999 18.6966Z" fill="#A3D8F3"/>
<path d="M11.9975 18.7271C16.7371 18.7271 20.806 19.7051 22.5429 21.097C23.1302 20.1178 23.4439 18.9989 23.4512 17.8571C23.4512 13.2539 18.318 8.99219 11.9975 8.99219C5.67694 8.99219 0.544922 13.2563 0.544922 17.8571C0.548527 18.9983 0.85939 20.1175 1.44485 21.097C3.18472 19.7051 7.25902 18.7271 11.9975 18.7271Z" fill="#AADBF4"/>
<path d="M11.9975 18.7575C16.7287 18.7575 20.794 19.7289 22.5285 21.1101C23.114 20.1392 23.4271 19.0285 23.435 17.8947C23.435 13.3252 18.3096 9.08984 11.9975 9.08984C5.68536 9.08984 0.560547 13.3282 0.560547 17.8947C0.564641 19.0281 0.875629 20.1393 1.46048 21.1101C3.19525 19.7283 7.26564 18.7575 11.9975 18.7575Z" fill="#B0DEF5"/>
<path d="M11.9975 18.788C16.7216 18.788 20.7815 19.7516 22.5129 21.1232C23.0972 20.1606 23.4103 19.0578 23.4189 17.9318C23.4189 13.3952 18.2994 9.1875 11.9975 9.1875C5.69559 9.1875 0.576172 13.3982 0.576172 17.9318C0.581138 19.0575 0.892222 20.1607 1.4761 21.1232C3.20817 19.7528 7.27227 18.788 11.9975 18.788Z" fill="#B7E0F6"/>
<path d="M11.9984 18.8217C16.717 18.8217 20.7697 19.7817 22.4976 21.1401C23.0807 20.1857 23.3933 19.0906 23.4017 17.9722C23.4017 13.4722 18.2901 9.28906 11.9966 9.28906C5.70304 9.28906 0.59082 13.4734 0.59082 17.9722C0.596279 19.0905 0.907485 20.186 1.49075 21.1401C3.22102 19.7787 7.28092 18.8217 11.9984 18.8217Z" fill="#BDE3F7"/>
<path d="M11.9977 18.8489C16.7098 18.8489 20.7571 19.7981 22.4837 21.1487C23.0658 20.2029 23.378 19.1158 23.3867 18.0053C23.3867 13.5354 18.2817 9.38281 11.9977 9.38281C5.71379 9.38281 0.609375 13.5402 0.609375 18.0053C0.614145 19.1156 0.924461 20.2031 1.50631 21.1487C3.23298 19.7981 7.28627 18.8489 11.9977 18.8489Z" fill="#C3E6F8"/>
<path d="M11.9988 18.8794C16.7048 18.8794 20.7455 19.8213 22.4704 21.1623C23.0505 20.2244 23.3618 19.1452 23.3703 18.0424C23.3703 13.6072 18.2707 9.48047 11.997 9.48047C5.72326 9.48047 0.623047 13.6108 0.623047 18.0424C0.628132 19.145 0.937919 20.2247 1.51818 21.1623C3.24545 19.8222 7.29335 18.8794 11.9988 18.8794Z" fill="#CAE8F9"/>
<path d="M11.9984 18.9098C16.6978 18.9098 20.7331 19.8446 22.455 21.1748C23.0345 20.2454 23.3459 19.174 23.3549 18.0788C23.3549 13.6773 18.2637 9.57812 11.9978 9.57812C5.72284 9.57812 0.640625 13.6815 0.640625 18.0788C0.645574 19.1737 0.954874 20.2456 1.53396 21.1748C3.25763 19.844 7.30013 18.9098 11.9984 18.9098Z" fill="#D0EBF9"/>
<path d="M11.9983 18.9403C16.6917 18.9403 20.721 19.8679 22.4405 21.1878C23.019 20.2669 23.3305 19.2034 23.3404 18.1159C23.3404 13.7485 18.2564 9.67578 12.0013 9.67578C5.73473 9.67578 0.662109 13.7521 0.662109 18.1159C0.66751 19.203 0.976502 20.267 1.55424 21.1878C3.26891 19.8685 7.30661 18.9403 11.9983 18.9403Z" fill="#D6EEFA"/>
<path d="M12.0013 18.9707C16.6887 18.9707 20.7114 19.8911 22.4285 21.2015C23.0064 20.2891 23.3181 19.2335 23.3284 18.1535C23.3284 13.8186 18.2516 9.77344 12.0031 9.77344C5.74496 9.77344 0.677734 13.8234 0.677734 18.1535C0.683088 19.2329 0.99159 20.289 1.56807 21.2015C3.28154 19.8917 7.31384 18.9707 12.0013 18.9707Z" fill="#DCF0FB"/>
<path d="M11.9976 19.0045C16.6773 19.0045 20.697 19.9177 22.4098 21.2179C22.9857 20.3136 23.2964 19.2659 23.3068 18.1939C23.3068 13.8937 18.2372 9.875 11.9976 9.875C5.7479 9.875 0.688477 13.8949 0.688477 18.1939C0.694283 19.2655 1.00248 20.3137 1.57761 21.2179C3.29348 19.9183 7.31798 19.0045 11.9976 19.0045Z" fill="#E2F3FC"/>
<path d="M11.9989 19.0343C16.6731 19.0343 20.6838 19.9403 22.3967 21.2303C22.9707 20.3342 23.2809 19.2945 23.2918 18.2304C23.2918 13.9638 18.2282 9.97266 11.9989 9.97266C5.75932 9.97266 0.704102 13.968 0.704102 18.2304C0.710051 19.2943 1.01797 20.3346 1.59203 21.2303C3.30551 19.9403 7.327 19.0343 11.9989 19.0343Z" fill="#E8F5FD"/>
<path d="M11.999 19.0615C16.6666 19.0615 20.6719 19.9615 22.3818 21.2407C22.9546 20.3528 23.2644 19.3207 23.2751 18.2641C23.2751 14.0306 18.2187 10.0664 11.996 10.0664C5.76302 10.0664 0.716797 14.0354 0.716797 18.2641C0.722408 19.3205 1.02986 20.3532 1.60293 21.2407C3.3176 19.9609 7.3337 19.0615 11.999 19.0615Z" fill="#EEF8FD"/>
<path d="M11.9983 19.0932C16.6606 19.0932 20.6593 19.9847 22.3661 21.2531C22.9383 20.3738 23.248 19.3496 23.2589 18.3006C23.2589 14.1006 18.2096 10.1641 11.9983 10.1641C5.77377 10.1641 0.735352 14.106 0.735352 18.3006C0.741329 19.3492 1.0485 20.3741 1.62029 21.2531C3.32896 19.9847 7.34026 19.0932 11.9983 19.0932Z" fill="#F4FAFE"/>
<path d="M11.9987 19.1257C16.6544 19.1257 20.6471 20.0107 22.3521 21.2695C22.9226 20.3984 23.2317 19.3821 23.2431 18.3409C23.2431 14.1752 18.2034 10.2656 11.9987 10.2656C5.78318 10.2656 0.751953 14.1812 0.751953 18.3409C0.757931 19.3818 1.06462 20.3988 1.63509 21.2695C3.34196 20.0107 7.34726 19.1257 11.9987 19.1257Z" fill="#FAFDFE"/>
<path d="M11.9981 19.1529C16.6478 19.1529 20.6375 20.0301 22.3372 21.2792C22.9062 20.4162 23.215 19.4077 23.2269 18.3741C23.2269 14.2419 18.1915 10.3594 11.9981 10.3594C5.7904 10.3594 0.767578 14.2473 0.767578 18.3741C0.77354 19.4074 1.07974 20.4168 1.64891 21.2792C3.35278 20.0301 7.35328 19.1529 11.9981 19.1529Z" fill="white"/>
<path d="M23.9982 17.2244C16.2529 14.3719 7.74449 14.3731 0 17.228V24.0007H23.9982V17.2244Z" fill="#006ABD"/>
</g>
</svg>
