<svg width="24" height="24" viewBox="0 0 24 24" fill="none" xmlns="http://www.w3.org/2000/svg">
<circle cx="12" cy="12" r="12" fill="#D71820"/>
<mask id="mask0_5674_37733" style="mask-type:luminance" maskUnits="userSpaceOnUse" x="15" y="8" width="8" height="8">
<path fill-rule="evenodd" clip-rule="evenodd" d="M15.9619 8.52344H22.0813V15.1275H15.9619V8.52344Z" fill="white"/>
</mask>
<g mask="url(#mask0_5674_37733)">
<path fill-rule="evenodd" clip-rule="evenodd" d="M21.4597 9.7022H22.0157C22.0519 9.7022 22.0813 9.67248 22.0813 9.63627V8.58861C22.0813 8.55265 22.0519 8.52344 22.0157 8.52344H21.2356C20.3327 8.52344 19.8548 8.81185 19.5811 9.42489L17.8837 13.5818C17.7813 13.8303 17.6326 13.9483 17.3404 13.9483V8.58861C17.3404 8.55265 17.3105 8.52344 17.2744 8.52344H16.028C15.9909 8.52344 15.9619 8.55265 15.9619 8.58861V15.0121C15.9619 15.0747 16.0137 15.1277 16.0774 15.1277H17.4768C18.379 15.1277 18.7914 14.8389 19.0642 14.2258L20.7395 10.1207C20.8734 9.82968 21.067 9.7022 21.4597 9.7022Z" fill="#FEFEFE"/>
</g>
<mask id="mask1_5674_37733" style="mask-type:luminance" maskUnits="userSpaceOnUse" x="1" y="8" width="7" height="8">
<path fill-rule="evenodd" clip-rule="evenodd" d="M1.19922 8.52344H7.22837V15.1275H1.19922V8.52344Z" fill="white"/>
</mask>
<g mask="url(#mask1_5674_37733)">
<path fill-rule="evenodd" clip-rule="evenodd" d="M4.76641 13.9766H2.65723V12.4277H4.76641C5.33413 12.4277 5.71868 12.7745 5.71868 13.2018C5.71868 13.6298 5.33413 13.9766 4.76641 13.9766ZM6.21828 11.8261C6.7197 11.6176 7.13323 11.15 7.13323 10.3757C7.13323 9.22325 6.14437 8.52344 4.95138 8.52344H1.26414C1.22819 8.52344 1.19922 8.55265 1.19922 8.58849V9.63615C1.19922 9.67236 1.22819 9.7022 1.26414 9.7022H4.69517C5.24891 9.7022 5.62322 10.0409 5.62322 10.4572C5.62322 10.8737 5.24891 11.2118 4.69517 11.2118H2.65691V10.434C2.65691 10.397 2.62794 10.3679 2.59086 10.3679H1.26414C1.22819 10.3679 1.19922 10.397 1.19922 10.434V15.0622C1.19922 15.0986 1.22819 15.1275 1.26414 15.1275H4.89756C6.25587 15.1275 7.22837 14.4943 7.22837 13.2021C7.22837 12.5678 6.8538 12.0427 6.21828 11.8261Z" fill="#FEFEFE"/>
</g>
<mask id="mask2_5674_37733" style="mask-type:luminance" maskUnits="userSpaceOnUse" x="20" y="12" width="3" height="4">
<path fill-rule="evenodd" clip-rule="evenodd" d="M20.0166 12.3125H22.7634V15.1283H20.0166V12.3125Z" fill="white"/>
</mask>
<g mask="url(#mask2_5674_37733)">
<path fill-rule="evenodd" clip-rule="evenodd" d="M22.7516 15.052L20.613 12.3181C20.6069 12.3099 20.5979 12.3109 20.5945 12.3196L20.0193 13.7278C20.0154 13.7364 20.0154 13.746 20.0212 13.7535L20.9561 15.0062C21.0223 15.0952 21.0968 15.1283 21.2088 15.1283H22.7148C22.7594 15.1283 22.7771 15.0855 22.7516 15.052Z" fill="#FEFEFE"/>
</g>
<mask id="mask3_5674_37733" style="mask-type:luminance" maskUnits="userSpaceOnUse" x="8" y="10" width="2" height="6">
<path fill-rule="evenodd" clip-rule="evenodd" d="M8.25586 10.3672H9.63576V15.1269H8.25586V10.3672Z" fill="white"/>
</mask>
<g mask="url(#mask3_5674_37733)">
<path fill-rule="evenodd" clip-rule="evenodd" d="M9.57046 10.3672H8.32166C8.28483 10.3672 8.25586 10.3963 8.25586 10.4332V15.0615C8.25586 15.0978 8.28483 15.1269 8.32166 15.1269H9.57046C9.60555 15.1269 9.63576 15.0978 9.63576 15.0615V10.4332C9.63576 10.3963 9.60555 10.3672 9.57046 10.3672Z" fill="#FEFEFE"/>
</g>
<mask id="mask4_5674_37733" style="mask-type:luminance" maskUnits="userSpaceOnUse" x="8" y="8" width="7" height="8">
<path fill-rule="evenodd" clip-rule="evenodd" d="M8.25586 8.52344H14.7709V15.1275H8.25586V8.52344Z" fill="white"/>
</mask>
<g mask="url(#mask4_5674_37733)">
<path fill-rule="evenodd" clip-rule="evenodd" d="M14.7054 8.52344H13.4578C13.4219 8.52344 13.3928 8.55265 13.3928 8.58849V13.9483C13.0998 13.9483 12.9523 13.8302 12.8494 13.5818L11.1511 9.42489C10.8783 8.81185 10.3994 8.52344 9.49755 8.52344H8.32166C8.28483 8.52344 8.25586 8.55265 8.25586 8.58849V9.63627C8.25586 9.67248 8.28483 9.7022 8.32166 9.7022H9.27193C9.66573 9.7022 9.85875 9.82968 9.99385 10.1206L11.6687 14.2258C11.9421 14.8389 12.3545 15.1277 13.2567 15.1277H14.6552C14.7185 15.1277 14.7709 15.0747 14.7709 15.0121V8.58849C14.7709 8.55265 14.7419 8.52344 14.7054 8.52344Z" fill="#FEFEFE"/>
</g>
</svg>
