<svg width="24" height="24" viewBox="0 0 24 24" fill="none" xmlns="http://www.w3.org/2000/svg">
<path fill-rule="evenodd" clip-rule="evenodd" d="M0 12C0 5.37258 5.37258 0 12 0C18.6274 0 24 5.37258 24 12C24 18.6274 18.6274 24 12 24C5.37258 24 0 18.6274 0 12Z" fill="#03B89F"/>
<path fill-rule="evenodd" clip-rule="evenodd" d="M19.7278 8.91577C19.0863 9.34926 18.407 9.72394 17.6982 10.0352C15.514 10.8828 13.0782 11.1648 10.7545 11.5022C9.39116 11.6942 8.02393 11.7672 6.67073 11.853C6.14649 11.8362 5.63837 11.6677 5.20799 11.3679C4.75758 11.1174 4.37812 10.7567 4.10515 10.3195C3.97476 9.94265 3.91445 9.37412 4.23555 9.07192C4.53516 8.8737 4.90972 8.82554 5.24972 8.94152C5.6385 8.9348 6.02675 8.9732 6.40668 9.05595C7.02378 9.15114 7.64545 9.27208 8.25995 9.35977C11.8475 9.86767 15.6884 9.62676 19.1599 8.35375C19.3135 8.28856 19.4983 8.23477 19.6372 8.18391C19.7278 8.17591 19.8179 8.20528 19.8864 8.26523C19.9549 8.32517 19.9959 8.41049 20 8.50143C19.977 8.67376 19.8768 8.82625 19.7278 8.91577ZM11.5743 8.66832C10.8409 8.67428 10.2415 8.08467 10.2354 7.3513V7.32098C10.2347 7.09056 10.3094 6.86624 10.4483 6.68236C10.5648 6.46108 10.7489 6.28279 10.9738 6.17348C11.2496 6.0503 11.5498 5.99133 11.8517 6.00103C12.1229 6.00103 12.6279 6.00592 12.6103 6.39385C12.5976 6.68008 12.7267 6.79678 12.8414 7.03639C12.8828 7.13661 12.9072 7.24305 12.9135 7.3513C12.9105 7.70354 12.7678 8.04018 12.5167 8.28718C12.2655 8.53417 11.9265 8.67127 11.5743 8.66832ZM9.12102 13.4695C9.48962 12.8062 10.1123 12.3214 10.8458 12.1267C11.5793 11.932 12.3604 12.0442 13.0095 12.4374C13.5887 12.7813 14.0336 13.312 14.2711 13.9422C14.3703 14.1144 14.4341 14.3047 14.4589 14.502C14.546 15.0739 14.5258 15.6571 14.3992 16.2216C14.3233 16.6146 14.22 17.0018 14.0902 17.3805C13.7916 18.4233 13.2386 19.3755 12.4807 20.1514C12.3708 20.3054 12.176 20.3737 11.994 20.3219C11.9471 20.3046 11.9063 20.2739 11.8767 20.2336C11.8115 20.1358 11.8639 20.0119 11.9138 19.9128C11.9338 19.783 11.9628 19.6546 12.0005 19.5288C12.4081 18.2727 12.6071 16.9582 12.5896 15.6377C12.5817 15.3392 12.5193 15.0447 12.4054 14.7686C12.2789 14.4899 12.0277 14.2878 11.7283 14.2239C11.5486 14.1918 11.3638 14.24 11.2227 14.3559C11.1494 14.3393 11.0796 14.4283 11.0206 14.4407C10.9422 14.547 10.8715 14.6587 10.809 14.7751C10.6921 15.1563 10.6823 15.5623 10.7807 15.9487C10.8668 16.2615 10.7535 16.5951 10.4948 16.7908C10.2627 16.9278 9.98022 16.9495 9.72998 16.8494C9.48601 16.7537 9.2841 16.5743 9.16047 16.3432C8.70897 15.6632 8.77319 14.6604 8.93945 13.9155C8.98704 13.7633 9.0467 13.6433 9.11939 13.4712L9.12102 13.4695Z" fill="white"/>
</svg>
