<svg width="200" height="200" viewBox="0 0 200 200" fill="none" xmlns="http://www.w3.org/2000/svg">
<circle cx="100" cy="100" r="100" fill="#ECE8FF"/>
<path d="M59.1915 77.9482V150L69.566 143.691L79.9405 150L90.3149 143.691L100.688 150L111.064 143.691L121.437 150L131.81 143.691L142.186 150V61.6155C142.186 55.7531 137.443 51 131.589 51H48.5972" fill="url(#paint0_linear_5334_15263)"/>
<path d="M38.0014 104.537H59.1915V60.6711C59.1915 55.3303 54.8712 51.0015 49.5402 51.0015H47.6514C42.3218 51.0015 38 55.3303 38 60.6711V104.537H38.0014Z" fill="url(#paint1_linear_5334_15263)"/>
<rect x="70.9648" y="73.7539" width="20.5138" height="5.39837" rx="2.69918" fill="white"/>
<rect x="70.9648" y="86.7104" width="32.93" height="5.39837" rx="2.69918" fill="url(#paint2_linear_5334_15263)"/>
<rect x="70.9648" y="111.542" width="21.5935" height="5.39837" rx="2.69918" fill="url(#paint3_linear_5334_15263)"/>
<rect x="70.9648" y="99.1265" width="53.4438" height="5.39837" rx="2.69918" fill="url(#paint4_linear_5334_15263)"/>
<path d="M160.018 91.5011C158.752 88.6633 156.941 86.1168 154.637 83.9327C152.341 81.7563 149.669 80.0484 146.695 78.856C143.623 77.6246 140.361 77 137 77C133.639 77 130.377 77.6246 127.306 78.856C124.332 80.0484 121.659 81.7578 119.364 83.9327C117.059 86.1168 115.249 88.6633 113.983 91.5011C112.675 94.4128 111.998 97.5915 112 100.81C112 107.488 114.919 113.806 120.049 118.312C118.415 120.553 116.058 122.585 112.552 124.789C112.339 124.923 112.173 125.126 112.081 125.368C111.989 125.61 111.975 125.876 112.041 126.127C112.108 126.378 112.251 126.599 112.448 126.757C112.646 126.915 112.888 127 113.136 127C116.596 127 119.777 126.64 122.591 125.928C124.989 125.322 127.13 124.46 128.966 123.361C131.569 124.199 134.277 124.623 137 124.619C140.361 124.619 143.623 123.994 146.695 122.763C149.668 121.573 152.341 119.861 154.636 117.686C156.941 115.502 158.751 112.956 160.018 110.118C161.323 107.205 162 104.027 162 100.81C162 97.5918 161.323 94.4137 160.018 91.5011H160.018Z" fill="#F63232"/>
<path fill-rule="evenodd" clip-rule="evenodd" d="M128.523 106.626C127.611 107.523 127.611 108.976 128.523 109.873C129.435 110.77 130.914 110.77 131.826 109.873L137.606 104.19L143.386 109.872C144.298 110.768 145.776 110.768 146.688 109.872C147.6 108.975 147.6 107.521 146.688 106.625L140.909 100.943L146.688 95.2614C147.6 94.3648 147.6 92.911 146.688 92.0144C145.776 91.1177 144.298 91.1177 143.386 92.0144L137.606 97.696L131.826 92.0131C130.914 91.1165 129.435 91.1165 128.523 92.0131C127.611 92.9097 127.611 94.3635 128.523 95.2601L134.303 100.943L128.523 106.626Z" fill="white"/>
<defs>
<linearGradient id="paint0_linear_5334_15263" x1="42.3579" y1="39.6858" x2="148.526" y2="43.8495" gradientUnits="userSpaceOnUse">
<stop stop-color="#8380FF"/>
<stop offset="1" stop-color="#C89CFF"/>
</linearGradient>
<linearGradient id="paint1_linear_5334_15263" x1="36.5872" y1="44.8832" x2="60.6576" y2="45.2784" gradientUnits="userSpaceOnUse">
<stop stop-color="#9186FF"/>
<stop offset="1" stop-color="#C39BFF"/>
</linearGradient>
<linearGradient id="paint2_linear_5334_15263" x1="70.9648" y1="87.7901" x2="106.054" y2="89.4096" gradientUnits="userSpaceOnUse">
<stop stop-color="white"/>
<stop offset="1" stop-color="white" stop-opacity="0"/>
</linearGradient>
<linearGradient id="paint3_linear_5334_15263" x1="70.9648" y1="112.622" x2="94.0022" y2="113.319" gradientUnits="userSpaceOnUse">
<stop stop-color="white"/>
<stop offset="1" stop-color="white" stop-opacity="0"/>
</linearGradient>
<linearGradient id="paint4_linear_5334_15263" x1="70.9648" y1="100.206" x2="127.716" y2="104.457" gradientUnits="userSpaceOnUse">
<stop stop-color="white"/>
<stop offset="1" stop-color="white" stop-opacity="0"/>
</linearGradient>
</defs>
</svg>
